<svg id="_0" data-name="0" xmlns="http://www.w3.org/2000/svg" viewBox="0 0 361.71 771.64"><defs><style>.cls-1{fill:none;stroke:#000;stroke-linecap:round;stroke-linejoin:round;stroke-width:3px;}</style></defs><title>Bracket</title><g id="LINE"><line class="cls-1" x1="180.86" y1="182.16" x2="259.79" y2="182.16"/></g><g id="LINE-2" data-name="LINE"><line class="cls-1" x1="262.75" y1="590.78" x2="180.86" y2="590.78"/></g><g id="LWPOLYLINE"><path class="cls-1" d="M672.75,343V220a10.25,10.25,0,1,1,20.5,0V343a10.25,10.25,0,0,1-20.5,0Z" transform="translate(-502.14 1.81)"/></g><g id="LWPOLYLINE-2" data-name="LWPOLYLINE"><path class="cls-1" d="M693.25,425V548a10.25,10.25,0,0,1-20.5,0V425a10.25,10.25,0,0,1,20.5,0Z" transform="translate(-502.14 1.81)"/></g><g id="CIRCLE"><path class="cls-1" d="M759.86,384a25.62,25.62,0,1,1,25.62,25.62A25.62,25.62,0,0,1,759.86,384Z" transform="translate(-502.14 1.81)"/></g><g id="LINE-3" data-name="LINE"><line class="cls-1" x1="78.38" y1="480.99" x2="78.38" y2="590.78"/></g><g id="LINE-4" data-name="LINE"><line class="cls-1" x1="78.38" y1="180.85" x2="78.38" y2="290.64"/></g><g id="ARC"><path class="cls-1" d="M564.33,308.86a76.86,76.86,0,0,0,0,150.28" transform="translate(-502.14 1.81)"/></g><g id="ARC-2" data-name="ARC"><path class="cls-1" d="M580.52,479.18a20.49,20.49,0,0,0-16.19-20" transform="translate(-502.14 1.81)"/></g><g id="ARC-3" data-name="ARC"><path class="cls-1" d="M564.33,308.86a20.49,20.49,0,0,0,16.19-20" transform="translate(-502.14 1.81)"/></g><g id="CIRCLE-2" data-name="CIRCLE"><path class="cls-1" d="M548.44,76.55a32.08,32.08,0,1,1,32.08,32.08,32.08,32.08,0,0,1-32.08-32.08Z" transform="translate(-502.14 1.81)"/></g><g id="CIRCLE-3" data-name="CIRCLE"><path class="cls-1" d="M548.44,691.45a32.08,32.08,0,1,1,32.08,32.08,32.08,32.08,0,0,1-32.08-32.08Z" transform="translate(-502.14 1.81)"/></g><g id="CIRCLE-4" data-name="CIRCLE"><path class="cls-1" d="M548.44,384a32.08,32.08,0,1,1,32.08,32.08A32.08,32.08,0,0,1,548.44,384Z" transform="translate(-502.14 1.81)"/></g><g id="LINE-5" data-name="LINE"><line class="cls-1" x1="180.86" y1="182.16" x2="175.74" y2="182.16"/></g><g id="LINE-6" data-name="LINE"><line class="cls-1" x1="180.86" y1="590.78" x2="175.74" y2="590.78"/></g><g id="LINE-7" data-name="LINE"><line class="cls-1" x1="78.38" y1="180.85" x2="78.38" y2="173.54"/></g><g id="LINE-8" data-name="LINE"><line class="cls-1" x1="78.38" y1="590.78" x2="78.38" y2="598.09"/></g><g id="LINE-9" data-name="LINE"><line class="cls-1" x1="155.24" y1="78.36" x2="155.24" y2="161.66"/></g><g id="LINE-10" data-name="LINE"><line class="cls-1" x1="155.24" y1="611.28" x2="155.24" y2="693.26"/></g><g id="ARC-4" data-name="ARC"><path class="cls-1" d="M657.38,76.55a76.87,76.87,0,1,0-93,75.14" transform="translate(-502.14 1.81)"/></g><g id="ARC-5" data-name="ARC"><path class="cls-1" d="M580.52,171.73a20.49,20.49,0,0,0-16.19-20" transform="translate(-502.14 1.81)"/></g><g id="ARC-6" data-name="ARC"><path class="cls-1" d="M564.33,616.31a76.86,76.86,0,1,0,93,75.14" transform="translate(-502.14 1.81)"/></g><g id="ARC-7" data-name="ARC"><path class="cls-1" d="M564.33,616.31a20.49,20.49,0,0,0,16.19-20" transform="translate(-502.14 1.81)"/></g><g id="ARC-8" data-name="ARC"><path class="cls-1" d="M677.88,589a20.49,20.49,0,0,0-20.5,20.49" transform="translate(-502.14 1.81)"/></g><g id="ARC-9" data-name="ARC"><path class="cls-1" d="M657.38,159.85a20.5,20.5,0,0,0,20.5,20.5" transform="translate(-502.14 1.81)"/></g><g id="CIRCLE-5" data-name="CIRCLE"><path class="cls-1" d="M759.86,281.52a25.62,25.62,0,1,1,25.62,25.62,25.62,25.62,0,0,1-25.62-25.62Z" transform="translate(-502.14 1.81)"/></g><g id="CIRCLE-6" data-name="CIRCLE"><path class="cls-1" d="M759.86,486.48a25.62,25.62,0,1,1,25.62,25.62,25.62,25.62,0,0,1-25.62-25.62Z" transform="translate(-502.14 1.81)"/></g><g id="LINE-11" data-name="LINE"><line class="cls-1" x1="360.21" y1="283.28" x2="360.21" y2="488.3"/></g><g id="LINE-12" data-name="LINE"><line class="cls-1" x1="283.24" y1="565.16" x2="283.24" y2="570.28"/></g><g id="LINE-13" data-name="LINE"><line class="cls-1" x1="280.29" y1="206.53" x2="280.29" y2="202.66"/></g><g id="ARC-10" data-name="ARC"><path class="cls-1" d="M785.38,563.35a76.87,76.87,0,0,0,77-76.76v-.11" transform="translate(-502.14 1.81)"/></g><g id="ARC-11" data-name="ARC"><path class="cls-1" d="M862.35,281.57a76.87,76.87,0,0,0-76.81-76.92c-1,0-2.08,0-3.11.06" transform="translate(-502.14 1.81)"/></g><g id="ARC-12" data-name="ARC"><path class="cls-1" d="M764.89,589a20.49,20.49,0,0,0,20.49-20.5" transform="translate(-502.14 1.81)"/></g><g id="ARC-13" data-name="ARC"><path class="cls-1" d="M782.43,200.84a20.49,20.49,0,0,0-20.5-20.49" transform="translate(-502.14 1.81)"/></g><g id="LINE-14" data-name="LINE"><line class="cls-1" x1="78.38" y1="480.99" x2="78.38" y2="598.09"/></g><g id="LINE-15" data-name="LINE"><line class="cls-1" x1="78.38" y1="173.54" x2="78.38" y2="290.64"/></g></svg>