<svg id="_0" data-name="0" xmlns="http://www.w3.org/2000/svg" viewBox="0 0 363.21 771.63"><defs><style>.cls-1{fill:none;stroke:#000;stroke-linecap:round;stroke-linejoin:round;stroke-width:3px;}</style></defs><title>EncoderMount</title><g id="LINE"><line class="cls-1" x1="1.5" y1="65.82" x2="1.5" y2="590.02"/></g><g id="ARC"><path class="cls-1" d="M502.9,587.09a180.1,180.1,0,1,0,360.2,2.24v-1.12" transform="translate(-501.4 1.81)"/></g><g id="LINE-2" data-name="LINE"><line class="cls-1" x1="361.71" y1="590.02" x2="361.71" y2="65.82"/></g><g id="LINE-3" data-name="LINE"><line class="cls-1" x1="297.39" y1="1.5" x2="65.82" y2="1.5"/></g><g id="ARC-2" data-name="ARC"><path class="cls-1" d="M863.1,64A64.31,64.31,0,0,0,798.78-.31" transform="translate(-501.4 1.81)"/></g><g id="ARC-3" data-name="ARC"><path class="cls-1" d="M567.22-.31A64.31,64.31,0,0,0,502.9,64" transform="translate(-501.4 1.81)"/></g><g id="CIRCLE"><path class="cls-1" d="M580.08,588.21A102.92,102.92,0,1,1,683,691.13,102.92,102.92,0,0,1,580.08,588.21Z" transform="translate(-501.4 1.81)"/></g><g id="CIRCLE-2" data-name="CIRCLE"><path class="cls-1" d="M667.48,730a15.44,15.44,0,1,1,15.44,15.43A15.44,15.44,0,0,1,667.48,730Z" transform="translate(-501.4 1.81)"/></g><g id="CIRCLE-3" data-name="CIRCLE"><path class="cls-1" d="M790.32,517.29a15.44,15.44,0,1,1,15.43,15.44,15.43,15.43,0,0,1-15.43-15.44Z" transform="translate(-501.4 1.81)"/></g><g id="CIRCLE-4" data-name="CIRCLE"><path class="cls-1" d="M544.77,517.36a15.44,15.44,0,1,1,15.44,15.44,15.44,15.44,0,0,1-15.44-15.44Z" transform="translate(-501.4 1.81)"/></g><g id="CIRCLE-5" data-name="CIRCLE"><path class="cls-1" d="M791.69,54.07A19.94,19.94,0,1,1,811.63,74a19.94,19.94,0,0,1-19.94-19.95Z" transform="translate(-501.4 1.81)"/></g><g id="CIRCLE-6" data-name="CIRCLE"><path class="cls-1" d="M534.4,54.07A19.94,19.94,0,1,1,554.34,74,19.94,19.94,0,0,1,534.4,54.07Z" transform="translate(-501.4 1.81)"/></g><g id="CIRCLE-7" data-name="CIRCLE"><path class="cls-1" d="M791.69,311.37a19.94,19.94,0,1,1,19.94,19.94,19.94,19.94,0,0,1-19.94-19.94Z" transform="translate(-501.4 1.81)"/></g><g id="CIRCLE-8" data-name="CIRCLE"><path class="cls-1" d="M534.4,311.37a19.94,19.94,0,1,1,19.94,19.94,19.93,19.93,0,0,1-19.94-19.94Z" transform="translate(-501.4 1.81)"/></g><g id="LWPOLYLINE"><path class="cls-1" d="M631.52,408.5H554.34a19.95,19.95,0,0,1,0-39.89h77.18a19.95,19.95,0,0,1,0,39.89Z" transform="translate(-501.4 1.81)"/></g><g id="LWPOLYLINE-2" data-name="LWPOLYLINE"><path class="cls-1" d="M734.44,368.61h77.19a19.95,19.95,0,0,1,0,39.89H734.44a19.95,19.95,0,0,1,0-39.89Z" transform="translate(-501.4 1.81)"/></g><g id="LWPOLYLINE-3" data-name="LWPOLYLINE"><path class="cls-1" d="M604.77,248.92V116.06a77.19,77.19,0,1,1,154.38,0V248.92a77.19,77.19,0,1,1-154.38,0Z" transform="translate(-501.4 1.81)"/></g></svg>