<svg id="_0" data-name="0" xmlns="http://www.w3.org/2000/svg" viewBox="0 0 344.61 771.63"><defs><style>.cls-1{fill:none;stroke:#000;stroke-linecap:round;stroke-linejoin:round;stroke-width:3px;}</style></defs><title>HWmount</title><g id="LWPOLYLINE"><path class="cls-1" d="M853.81,406.59V-.31H825.34V13.92H562V-.31h-18.5V28.15H512.19V737h28.47v24.2a7.11,7.11,0,0,0,7.12,7.11h82.85A85.39,85.39,0,0,0,707.06,721L844.83,444.7A85.44,85.44,0,0,0,853.81,406.59Z" transform="translate(-510.69 1.81)"/></g><g id="LWPOLYLINE-2" data-name="LWPOLYLINE"><path class="cls-1" d="M825.34,56.62H569.13a28.47,28.47,0,0,0-28.47,28.47v42.18H796.87A28.47,28.47,0,0,0,825.34,98.8Z" transform="translate(-510.69 1.81)"/></g><g id="LINE"><line class="cls-1" x1="35.66" y1="148.11" x2="35.66" y2="168.04"/></g><g id="ARC"><path class="cls-1" d="M546.36,166.22a4.27,4.27,0,1,0,8.54,0" transform="translate(-510.69 1.81)"/></g><g id="LINE-2" data-name="LINE"><line class="cls-1" x1="44.2" y1="168.04" x2="44.2" y2="148.11"/></g><g id="ARC-2" data-name="ARC"><path class="cls-1" d="M554.9,146.29a4.27,4.27,0,1,0-8.54,0" transform="translate(-510.69 1.81)"/></g><g id="LINE-3" data-name="LINE"><line class="cls-1" x1="35.66" y1="205.04" x2="35.66" y2="224.97"/></g><g id="ARC-3" data-name="ARC"><path class="cls-1" d="M546.36,223.16a4.27,4.27,0,0,0,8.54,0" transform="translate(-510.69 1.81)"/></g><g id="LINE-4" data-name="LINE"><line class="cls-1" x1="44.2" y1="224.97" x2="44.2" y2="205.04"/></g><g id="ARC-4" data-name="ARC"><path class="cls-1" d="M554.9,203.23a4.27,4.27,0,0,0-8.54,0" transform="translate(-510.69 1.81)"/></g><g id="LINE-5" data-name="LINE"><line class="cls-1" x1="35.66" y1="261.98" x2="35.66" y2="281.91"/></g><g id="ARC-5" data-name="ARC"><path class="cls-1" d="M546.36,280.09a4.27,4.27,0,1,0,8.54,0" transform="translate(-510.69 1.81)"/></g><g id="LINE-6" data-name="LINE"><line class="cls-1" x1="44.2" y1="281.91" x2="44.2" y2="261.98"/></g><g id="ARC-6" data-name="ARC"><path class="cls-1" d="M554.9,260.17a4.27,4.27,0,1,0-8.54,0" transform="translate(-510.69 1.81)"/></g><g id="LINE-7" data-name="LINE"><line class="cls-1" x1="35.66" y1="318.91" x2="35.66" y2="338.84"/></g><g id="ARC-7" data-name="ARC"><path class="cls-1" d="M546.36,337a4.27,4.27,0,1,0,8.54,0" transform="translate(-510.69 1.81)"/></g><g id="LINE-8" data-name="LINE"><line class="cls-1" x1="44.2" y1="338.84" x2="44.2" y2="318.91"/></g><g id="ARC-8" data-name="ARC"><path class="cls-1" d="M554.9,317.1a4.27,4.27,0,1,0-8.54,0" transform="translate(-510.69 1.81)"/></g><g id="LINE-9" data-name="LINE"><line class="cls-1" x1="35.66" y1="375.85" x2="35.66" y2="395.78"/></g><g id="ARC-9" data-name="ARC"><path class="cls-1" d="M546.36,394a4.27,4.27,0,1,0,8.54,0" transform="translate(-510.69 1.81)"/></g><g id="LINE-10" data-name="LINE"><line class="cls-1" x1="44.2" y1="395.78" x2="44.2" y2="375.85"/></g><g id="ARC-10" data-name="ARC"><path class="cls-1" d="M554.9,374a4.27,4.27,0,1,0-8.54,0" transform="translate(-510.69 1.81)"/></g><g id="LINE-11" data-name="LINE"><line class="cls-1" x1="35.66" y1="432.79" x2="35.66" y2="452.71"/></g><g id="ARC-11" data-name="ARC"><path class="cls-1" d="M546.36,450.9a4.27,4.27,0,0,0,8.54,0" transform="translate(-510.69 1.81)"/></g><g id="LINE-12" data-name="LINE"><line class="cls-1" x1="44.2" y1="452.71" x2="44.2" y2="432.79"/></g><g id="ARC-12" data-name="ARC"><path class="cls-1" d="M554.9,431a4.27,4.27,0,1,0-8.54,0" transform="translate(-510.69 1.81)"/></g><g id="LINE-13" data-name="LINE"><line class="cls-1" x1="35.66" y1="489.72" x2="35.66" y2="509.65"/></g><g id="ARC-13" data-name="ARC"><path class="cls-1" d="M546.36,507.83a4.27,4.27,0,0,0,8.54,0" transform="translate(-510.69 1.81)"/></g><g id="LINE-14" data-name="LINE"><line class="cls-1" x1="44.2" y1="509.65" x2="44.2" y2="489.72"/></g><g id="ARC-14" data-name="ARC"><path class="cls-1" d="M554.9,487.91a4.27,4.27,0,1,0-8.54,0" transform="translate(-510.69 1.81)"/></g><g id="LINE-15" data-name="LINE"><line class="cls-1" x1="35.66" y1="546.66" x2="35.66" y2="566.58"/></g><g id="ARC-15" data-name="ARC"><path class="cls-1" d="M546.36,564.77a4.27,4.27,0,0,0,8.54,0" transform="translate(-510.69 1.81)"/></g><g id="LINE-16" data-name="LINE"><line class="cls-1" x1="44.2" y1="566.58" x2="44.2" y2="546.66"/></g><g id="ARC-16" data-name="ARC"><path class="cls-1" d="M554.9,544.84a4.27,4.27,0,0,0-8.54,0" transform="translate(-510.69 1.81)"/></g><g id="LWPOLYLINE-3" data-name="LWPOLYLINE"><path class="cls-1" d="M546.36,146.29a4.27,4.27,0,1,1,8.54,0v19.93a4.27,4.27,0,1,1-8.54,0Z" transform="translate(-510.69 1.81)"/></g><g id="ARC-17" data-name="ARC"><path class="cls-1" d="M577.67,146.29a4.27,4.27,0,1,0-8.54,0" transform="translate(-510.69 1.81)"/></g><g id="LINE-17" data-name="LINE"><line class="cls-1" x1="58.44" y1="148.11" x2="58.44" y2="168.04"/></g><g id="ARC-18" data-name="ARC"><path class="cls-1" d="M569.13,166.22a4.27,4.27,0,1,0,8.54,0" transform="translate(-510.69 1.81)"/></g><g id="LINE-18" data-name="LINE"><line class="cls-1" x1="66.98" y1="168.04" x2="66.98" y2="148.11"/></g><g id="ARC-19" data-name="ARC"><path class="cls-1" d="M569.13,223.16a4.27,4.27,0,1,0,8.54,0" transform="translate(-510.69 1.81)"/></g><g id="LINE-19" data-name="LINE"><line class="cls-1" x1="66.98" y1="224.97" x2="66.98" y2="205.04"/></g><g id="LINE-20" data-name="LINE"><line class="cls-1" x1="58.44" y1="205.04" x2="58.44" y2="224.97"/></g><g id="ARC-20" data-name="ARC"><path class="cls-1" d="M577.67,203.23a4.27,4.27,0,0,0-8.54,0" transform="translate(-510.69 1.81)"/></g><g id="ARC-21" data-name="ARC"><path class="cls-1" d="M569.13,280.09a4.27,4.27,0,1,0,8.54,0" transform="translate(-510.69 1.81)"/></g><g id="LINE-21" data-name="LINE"><line class="cls-1" x1="66.98" y1="281.91" x2="66.98" y2="261.98"/></g><g id="LINE-22" data-name="LINE"><line class="cls-1" x1="58.44" y1="261.98" x2="58.44" y2="281.91"/></g><g id="ARC-22" data-name="ARC"><path class="cls-1" d="M577.67,260.17a4.27,4.27,0,1,0-8.54,0" transform="translate(-510.69 1.81)"/></g><g id="LWPOLYLINE-4" data-name="LWPOLYLINE"><path class="cls-1" d="M577.67,337a4.27,4.27,0,0,1-8.54,0V317.1a4.27,4.27,0,0,1,8.54,0Z" transform="translate(-510.69 1.81)"/></g><g id="LWPOLYLINE-5" data-name="LWPOLYLINE"><path class="cls-1" d="M569.13,374a4.27,4.27,0,1,1,8.54,0V394a4.27,4.27,0,1,1-8.54,0Z" transform="translate(-510.69 1.81)"/></g><g id="LWPOLYLINE-6" data-name="LWPOLYLINE"><path class="cls-1" d="M646,544.84a4.27,4.27,0,1,1,8.54,0v19.93a4.27,4.27,0,0,1-8.54,0Z" transform="translate(-510.69 1.81)"/></g><g id="LWPOLYLINE-7" data-name="LWPOLYLINE"><path class="cls-1" d="M646,487.91a4.27,4.27,0,0,1,8.54,0v19.92a4.27,4.27,0,1,1-8.54,0Z" transform="translate(-510.69 1.81)"/></g><g id="LWPOLYLINE-8" data-name="LWPOLYLINE"><path class="cls-1" d="M646,431a4.27,4.27,0,0,1,8.54,0V450.9a4.27,4.27,0,0,1-8.54,0Z" transform="translate(-510.69 1.81)"/></g><g id="CIRCLE"><path class="cls-1" d="M708,213.19a60.39,60.39,0,1,1,60.39,60.39A60.39,60.39,0,0,1,708,213.19Z" transform="translate(-510.69 1.81)"/></g><g id="CIRCLE-2" data-name="CIRCLE"><path class="cls-1" d="M546.36,756.93a4.27,4.27,0,1,1,4.27,4.27,4.27,4.27,0,0,1-4.27-4.27Z" transform="translate(-510.69 1.81)"/></g><g id="CIRCLE-3" data-name="CIRCLE"><path class="cls-1" d="M569.13,756.93a4.27,4.27,0,1,1,4.27,4.27,4.27,4.27,0,0,1-4.27-4.27Z" transform="translate(-510.69 1.81)"/></g><g id="CIRCLE-4" data-name="CIRCLE"><path class="cls-1" d="M787.68,312.83a5,5,0,1,1,5,5,5,5,0,0,1-5-5Z" transform="translate(-510.69 1.81)"/></g><g id="CIRCLE-5" data-name="CIRCLE"><path class="cls-1" d="M729.26,312.83a5,5,0,1,1,5,5,5,5,0,0,1-5-5Z" transform="translate(-510.69 1.81)"/></g><g id="CIRCLE-6" data-name="CIRCLE"><path class="cls-1" d="M717.79,298.49a5,5,0,1,1,5,5,5,5,0,0,1-5-5Z" transform="translate(-510.69 1.81)"/></g><g id="CIRCLE-7" data-name="CIRCLE"><path class="cls-1" d="M775.52,298.49a5,5,0,1,1,5,5,5,5,0,0,1-5-5Z" transform="translate(-510.69 1.81)"/></g><g id="CIRCLE-8" data-name="CIRCLE"><path class="cls-1" d="M740.45,326.82a5,5,0,1,1,5,5,5,5,0,0,1-5-5Z" transform="translate(-510.69 1.81)"/></g><g id="CIRCLE-9" data-name="CIRCLE"><path class="cls-1" d="M799.54,326.82a5,5,0,1,1,5,5,5,5,0,0,1-5-5Z" transform="translate(-510.69 1.81)"/></g><g id="CIRCLE-10" data-name="CIRCLE"><path class="cls-1" d="M751.9,341.14a5,5,0,1,1,5,5,5,5,0,0,1-5-5Z" transform="translate(-510.69 1.81)"/></g><g id="CIRCLE-11" data-name="CIRCLE"><path class="cls-1" d="M811.67,341.14a5,5,0,1,1,5,5,5,5,0,0,1-5-5Z" transform="translate(-510.69 1.81)"/></g><g id="LWPOLYLINE-9" data-name="LWPOLYLINE"><path class="cls-1" d="M690.87,695.64,820.19,437a7.11,7.11,0,0,0-6.37-10.3H668.77V569l-14.24,14.23V711.38h10.88A28.46,28.46,0,0,0,690.87,695.64Z" transform="translate(-510.69 1.81)"/></g><g id="LINE-23" data-name="LINE"><line class="cls-1" x1="44.2" y1="758.74" x2="44.2" y2="758.74"/></g><g id="LINE-24" data-name="LINE"><line class="cls-1" x1="35.66" y1="769.98" x2="35.66" y2="770.13"/></g><g id="LINE-25" data-name="LINE"><line class="cls-1" x1="44.2" y1="546.66" x2="44.2" y2="566.58"/></g><g id="LINE-26" data-name="LINE"><line class="cls-1" x1="44.2" y1="489.72" x2="44.2" y2="509.65"/></g><g id="LINE-27" data-name="LINE"><line class="cls-1" x1="35.66" y1="546.66" x2="35.66" y2="566.58"/></g><g id="LINE-28" data-name="LINE"><line class="cls-1" x1="35.66" y1="489.72" x2="35.66" y2="509.65"/></g><g id="LINE-29" data-name="LINE"><line class="cls-1" x1="44.2" y1="432.79" x2="44.2" y2="452.71"/></g><g id="LINE-30" data-name="LINE"><line class="cls-1" x1="35.66" y1="432.79" x2="35.66" y2="452.71"/></g><g id="LINE-31" data-name="LINE"><line class="cls-1" x1="58.44" y1="148.11" x2="58.44" y2="168.04"/></g><g id="LINE-32" data-name="LINE"><line class="cls-1" x1="44.2" y1="148.11" x2="44.2" y2="168.04"/></g><g id="LINE-33" data-name="LINE"><line class="cls-1" x1="58.44" y1="205.04" x2="58.44" y2="224.97"/></g><g id="LINE-34" data-name="LINE"><line class="cls-1" x1="44.2" y1="205.04" x2="44.2" y2="224.97"/></g><g id="LINE-35" data-name="LINE"><line class="cls-1" x1="35.66" y1="148.11" x2="35.66" y2="168.04"/></g><g id="LINE-36" data-name="LINE"><line class="cls-1" x1="35.66" y1="205.04" x2="35.66" y2="224.97"/></g><g id="LINE-37" data-name="LINE"><line class="cls-1" x1="58.44" y1="261.98" x2="58.44" y2="281.91"/></g><g id="LINE-38" data-name="LINE"><line class="cls-1" x1="58.44" y1="318.91" x2="58.44" y2="338.84"/></g><g id="LINE-39" data-name="LINE"><line class="cls-1" x1="58.44" y1="375.85" x2="58.44" y2="395.78"/></g><g id="LINE-40" data-name="LINE"><line class="cls-1" x1="44.2" y1="375.85" x2="44.2" y2="395.78"/></g><g id="LINE-41" data-name="LINE"><line class="cls-1" x1="35.66" y1="375.85" x2="35.66" y2="395.78"/></g><g id="LINE-42" data-name="LINE"><line class="cls-1" x1="44.2" y1="261.98" x2="44.2" y2="281.91"/></g><g id="LINE-43" data-name="LINE"><line class="cls-1" x1="44.2" y1="318.91" x2="44.2" y2="338.84"/></g><g id="LINE-44" data-name="LINE"><line class="cls-1" x1="35.66" y1="261.98" x2="35.66" y2="281.91"/></g><g id="LINE-45" data-name="LINE"><line class="cls-1" x1="35.66" y1="318.91" x2="35.66" y2="338.84"/></g><g id="CIRCLE-12" data-name="CIRCLE"><path class="cls-1" d="M841,32.42a4.27,4.27,0,1,1,4.27,4.27A4.27,4.27,0,0,1,841,32.42Z" transform="translate(-510.69 1.81)"/></g><g id="CIRCLE-13" data-name="CIRCLE"><path class="cls-1" d="M841,52.35a4.27,4.27,0,1,1,4.27,4.27A4.27,4.27,0,0,1,841,52.35Z" transform="translate(-510.69 1.81)"/></g><g id="CIRCLE-14" data-name="CIRCLE"><path class="cls-1" d="M840.86,123.36a4.43,4.43,0,1,1,4.43,4.43,4.43,4.43,0,0,1-4.43-4.43Z" transform="translate(-510.69 1.81)"/></g><g id="CIRCLE-15" data-name="CIRCLE"><path class="cls-1" d="M821.06,123.52a4.27,4.27,0,1,1,4.27,4.27,4.27,4.27,0,0,1-4.27-4.27Z" transform="translate(-510.69 1.81)"/></g><g id="CIRCLE-16" data-name="CIRCLE"><path class="cls-1" d="M836.73,298.6a4.27,4.27,0,1,1,4.27,4.27,4.27,4.27,0,0,1-4.27-4.27Z" transform="translate(-510.69 1.81)"/></g><g id="CIRCLE-17" data-name="CIRCLE"><path class="cls-1" d="M823.67,310.08a4.27,4.27,0,1,1,4.27,4.27,4.27,4.27,0,0,1-4.27-4.27Z" transform="translate(-510.69 1.81)"/></g><g id="CIRCLE-18" data-name="CIRCLE"><path class="cls-1" d="M835.88,13.92a3.7,3.7,0,1,1,3.7,3.7,3.7,3.7,0,0,1-3.7-3.7Z" transform="translate(-510.69 1.81)"/></g><g id="CIRCLE-19" data-name="CIRCLE"><path class="cls-1" d="M549.06,13.92a3.7,3.7,0,1,1,3.7,3.7,3.7,3.7,0,0,1-3.7-3.7Z" transform="translate(-510.69 1.81)"/></g><g id="CIRCLE-20" data-name="CIRCLE"><path class="cls-1" d="M522.73,42.39a3.7,3.7,0,1,1,3.7,3.7,3.69,3.69,0,0,1-3.7-3.7Z" transform="translate(-510.69 1.81)"/></g><g id="CIRCLE-21" data-name="CIRCLE"><path class="cls-1" d="M522.73,711.38a3.7,3.7,0,1,1,3.7,3.7,3.69,3.69,0,0,1-3.7-3.7Z" transform="translate(-510.69 1.81)"/></g></svg>