<svg id="_0" data-name="0" xmlns="http://www.w3.org/2000/svg" viewBox="0 0 387.35 771.63"><defs><style>.cls-1{fill:none;stroke:#000;stroke-linecap:round;stroke-linejoin:round;stroke-width:3px;}</style></defs><title>Joint</title><g id="LINE"><line class="cls-1" x1="105.67" y1="770.13" x2="193.66" y2="770.13"/></g><g id="LINE-2" data-name="LINE"><line class="cls-1" x1="193.66" y1="770.13" x2="281.65" y2="770.13"/></g><g id="LINE-3" data-name="LINE"><line class="cls-1" x1="197.12" y1="1.5" x2="190.2" y2="1.5"/></g><g id="ARC"><path class="cls-1" d="M538.87,336a48,48,0,0,0,0,96.08" transform="translate(-489.33 1.81)"/></g><g id="ARC-2" data-name="ARC"><path class="cls-1" d="M827.13,432a48,48,0,0,0,0-96.08" transform="translate(-489.33 1.81)"/></g><g id="ARC-3" data-name="ARC"><path class="cls-1" d="M547.53,712.86A48,48,0,0,0,595,768.31" transform="translate(-489.33 1.81)"/></g><g id="ARC-4" data-name="ARC"><path class="cls-1" d="M771,768.31a48.07,48.07,0,0,0,47.47-55.45" transform="translate(-489.33 1.81)"/></g><g id="ARC-5" data-name="ARC"><path class="cls-1" d="M710.18,20A24,24,0,0,0,686.45-.31" transform="translate(-489.33 1.81)"/></g><g id="ARC-6" data-name="ARC"><path class="cls-1" d="M679.52-.31A24,24,0,0,0,655.79,20" transform="translate(-489.33 1.81)"/></g><g id="CIRCLE"><path class="cls-1" d="M526.86,384a12,12,0,1,1,12,12,12,12,0,0,1-12-12Z" transform="translate(-489.33 1.81)"/></g><g id="CIRCLE-2" data-name="CIRCLE"><path class="cls-1" d="M815.12,384a12,12,0,1,1,12,12,12,12,0,0,1-12-12Z" transform="translate(-489.33 1.81)"/></g><g id="LINE-4" data-name="LINE"><line class="cls-1" x1="217.76" y1="141.05" x2="228.2" y2="141.11"/></g><g id="LINE-5" data-name="LINE"><line class="cls-1" x1="217.76" y1="150.65" x2="232.68" y2="150.56"/></g><g id="LINE-6" data-name="LINE"><line class="cls-1" x1="168.75" y1="141.12" x2="159.05" y2="141.12"/></g><g id="LINE-7" data-name="LINE"><line class="cls-1" x1="169.56" y1="150.65" x2="154.58" y2="150.63"/></g><g id="LINE-8" data-name="LINE"><line class="cls-1" x1="164.88" y1="236.83" x2="144.08" y2="236.8"/></g><g id="LINE-9" data-name="LINE"><line class="cls-1" x1="222.58" y1="236.84" x2="243.22" y2="236.84"/></g><g id="LINE-10" data-name="LINE"><line class="cls-1" x1="247.73" y1="246.45" x2="222.54" y2="246.44"/></g><g id="LINE-11" data-name="LINE"><line class="cls-1" x1="139.6" y1="246.42" x2="164.94" y2="246.44"/></g><g id="LINE-12" data-name="LINE"><line class="cls-1" x1="265.74" y1="534.99" x2="292.82" y2="535"/></g><g id="LINE-13" data-name="LINE"><line class="cls-1" x1="265.73" y1="525.38" x2="288.32" y2="525.34"/></g><g id="LINE-14" data-name="LINE"><line class="cls-1" x1="279.9" y1="630.87" x2="307.79" y2="630.87"/></g><g id="LINE-15" data-name="LINE"><line class="cls-1" x1="279.92" y1="621.26" x2="303.29" y2="621.26"/></g><g id="LINE-16" data-name="LINE"><line class="cls-1" x1="106.74" y1="621.26" x2="84.04" y2="621.33"/></g><g id="LINE-17" data-name="LINE"><line class="cls-1" x1="106.74" y1="630.87" x2="79.56" y2="630.78"/></g><g id="LINE-18" data-name="LINE"><line class="cls-1" x1="70.04" y1="638.91" x2="58.2" y2="714.67"/></g><g id="ARC-7" data-name="ARC"><path class="cls-1" d="M596.07,629.05a4.8,4.8,0,1,0,0-9.6h0" transform="translate(-489.33 1.81)"/></g><g id="LINE-19" data-name="LINE"><line class="cls-1" x1="329.11" y1="714.67" x2="317.28" y2="638.99"/></g><g id="ARC-8" data-name="ARC"><path class="cls-1" d="M769.25,619.45a4.8,4.8,0,1,0,0,9.6h0" transform="translate(-489.33 1.81)"/></g><g id="LINE-20" data-name="LINE"><line class="cls-1" x1="312.78" y1="610.17" x2="302.31" y2="543.12"/></g><g id="ARC-9" data-name="ARC"><path class="cls-1" d="M755.06,523.57a4.81,4.81,0,0,0,0,9.61" transform="translate(-489.33 1.81)"/></g><g id="LINE-21" data-name="LINE"><line class="cls-1" x1="121.71" y1="525.36" x2="99.01" y2="525.36"/></g><g id="LINE-22" data-name="LINE"><line class="cls-1" x1="121.6" y1="534.7" x2="94.55" y2="534.7"/></g><g id="LINE-23" data-name="LINE"><line class="cls-1" x1="85.06" y1="542.82" x2="74.52" y2="610.24"/></g><g id="ARC-10" data-name="ARC"><path class="cls-1" d="M610.93,532.88a4.67,4.67,0,1,0,.22-9.34H611" transform="translate(-489.33 1.81)"/></g><g id="LINE-24" data-name="LINE"><line class="cls-1" x1="97.75" y1="461.58" x2="89.52" y2="514.27"/></g><g id="LINE-25" data-name="LINE"><line class="cls-1" x1="297.79" y1="514.25" x2="289.56" y2="461.58"/></g><g id="LINE-26" data-name="LINE"><line class="cls-1" x1="130.1" y1="254.54" x2="120.27" y2="317.46"/></g><g id="ARC-11" data-name="ARC"><path class="cls-1" d="M654.27,244.63a4.81,4.81,0,0,0,0-9.61h-.07" transform="translate(-489.33 1.81)"/></g><g id="LINE-27" data-name="LINE"><line class="cls-1" x1="267.05" y1="317.46" x2="257.22" y2="254.57"/></g><g id="ARC-12" data-name="ARC"><path class="cls-1" d="M712.05,235a4.8,4.8,0,0,0-.36,9.6h.18" transform="translate(-489.33 1.81)"/></g><g id="LINE-28" data-name="LINE"><line class="cls-1" x1="252.71" y1="225.75" x2="242.24" y2="158.68"/></g><g id="LINE-29" data-name="LINE"><line class="cls-1" x1="237.76" y1="130.02" x2="220.85" y2="21.81"/></g><g id="ARC-13" data-name="ARC"><path class="cls-1" d="M707.09,139.23a4.81,4.81,0,0,0-.06,9.61h.06" transform="translate(-489.33 1.81)"/></g><g id="ARC-14" data-name="ARC"><path class="cls-1" d="M658.88,148.84a4.81,4.81,0,1,0,0-9.61,5.67,5.67,0,0,0-.82.07" transform="translate(-489.33 1.81)"/></g><g id="LINE-30" data-name="LINE"><line class="cls-1" x1="166.46" y1="21.81" x2="149.56" y2="130.02"/></g><g id="LINE-31" data-name="LINE"><line class="cls-1" x1="145.07" y1="158.75" x2="134.61" y2="225.71"/></g><g id="LINE-32" data-name="LINE"><line class="cls-1" x1="150.4" y1="534.69" x2="236.87" y2="534.72"/></g><g id="ARC-15" data-name="ARC"><path class="cls-1" d="M726.2,532.9a4.8,4.8,0,0,0,0-9.6" transform="translate(-489.33 1.81)"/></g><g id="LINE-33" data-name="LINE"><line class="cls-1" x1="236.87" y1="525.11" x2="150.4" y2="525.09"/></g><g id="ARC-16" data-name="ARC"><path class="cls-1" d="M639.73,523.27a4.81,4.81,0,1,0,0,9.61" transform="translate(-489.33 1.81)"/></g><g id="LWPOLYLINE"><path class="cls-1" d="M740.63,629.05H625.69a4.8,4.8,0,0,1,0-9.6H740.63a4.8,4.8,0,1,1,0,9.6Z" transform="translate(-489.33 1.81)"/></g><g id="LINE-34" data-name="LINE"><line class="cls-1" x1="337.81" y1="337.77" x2="290.78" y2="337.77"/></g><g id="LINE-35" data-name="LINE"><line class="cls-1" x1="96.54" y1="337.77" x2="49.54" y2="337.77"/></g><g id="LINE-36" data-name="LINE"><line class="cls-1" x1="49.54" y1="433.85" x2="74.02" y2="433.85"/></g><g id="LINE-37" data-name="LINE"><line class="cls-1" x1="313.3" y1="433.85" x2="337.81" y2="433.85"/></g><g id="ARC-17" data-name="ARC"><path class="cls-1" d="M587.08,459.77A24,24,0,0,0,563.35,432" transform="translate(-489.33 1.81)"/></g><g id="ARC-18" data-name="ARC"><path class="cls-1" d="M802.62,432a24,24,0,0,0-24,24,24.3,24.3,0,0,0,.29,3.71" transform="translate(-489.33 1.81)"/></g><g id="ARC-19" data-name="ARC"><path class="cls-1" d="M756.37,315.65A24,24,0,0,0,780.1,336" transform="translate(-489.33 1.81)"/></g><g id="ARC-20" data-name="ARC"><path class="cls-1" d="M585.86,336a24,24,0,0,0,23.74-20.31" transform="translate(-489.33 1.81)"/></g><g id="ARC-21" data-name="ARC"><path class="cls-1" d="M563.85,608.43a9.64,9.64,0,0,0,9.52,11.09" transform="translate(-489.33 1.81)"/></g><g id="ARC-22" data-name="ARC"><path class="cls-1" d="M578.84,512.45a9.62,9.62,0,0,0,8,11,10.56,10.56,0,0,0,1.49.11" transform="translate(-489.33 1.81)"/></g><g id="ARC-23" data-name="ARC"><path class="cls-1" d="M583.88,532.88a9.61,9.61,0,0,0-9.5,8.13" transform="translate(-489.33 1.81)"/></g><g id="ARC-24" data-name="ARC"><path class="cls-1" d="M568.89,629a9.61,9.61,0,0,0-9.52,8.12" transform="translate(-489.33 1.81)"/></g><g id="ARC-25" data-name="ARC"><path class="cls-1" d="M777.65,523.53a9.62,9.62,0,0,0,9.59-9.63,10.41,10.41,0,0,0-.12-1.47" transform="translate(-489.33 1.81)"/></g><g id="ARC-26" data-name="ARC"><path class="cls-1" d="M791.63,541.31a9.6,9.6,0,0,0-9.49-8.12" transform="translate(-489.33 1.81)"/></g><g id="ARC-27" data-name="ARC"><path class="cls-1" d="M792.62,619.45a9.61,9.61,0,0,0,9.6-9.61,10.67,10.67,0,0,0-.11-1.49" transform="translate(-489.33 1.81)"/></g><g id="ARC-28" data-name="ARC"><path class="cls-1" d="M806.61,637.18a9.61,9.61,0,0,0-9.49-8.13" transform="translate(-489.33 1.81)"/></g><g id="ARC-29" data-name="ARC"><path class="cls-1" d="M638.88,128.21a9.62,9.62,0,0,0,8,11,10.56,10.56,0,0,0,1.49.11" transform="translate(-489.33 1.81)"/></g><g id="ARC-30" data-name="ARC"><path class="cls-1" d="M717.53,139.3a9.61,9.61,0,0,0,9.67-9.55,10,10,0,0,0-.11-1.54" transform="translate(-489.33 1.81)"/></g><g id="ARC-31" data-name="ARC"><path class="cls-1" d="M643.9,148.81a9.61,9.61,0,0,0-9.51,8.13" transform="translate(-489.33 1.81)"/></g><g id="ARC-32" data-name="ARC"><path class="cls-1" d="M731.56,156.87a9.59,9.59,0,0,0-9.55-8.12" transform="translate(-489.33 1.81)"/></g><g id="ARC-33" data-name="ARC"><path class="cls-1" d="M623.93,223.89a9.62,9.62,0,0,0,8,11,10.39,10.39,0,0,0,1.47.11" transform="translate(-489.33 1.81)"/></g><g id="ARC-34" data-name="ARC"><path class="cls-1" d="M732.55,235a9.6,9.6,0,0,0,9.61-9.6,9.26,9.26,0,0,0-.12-1.49" transform="translate(-489.33 1.81)"/></g><g id="ARC-35" data-name="ARC"><path class="cls-1" d="M628.93,244.61a9.59,9.59,0,0,0-9.5,8.12" transform="translate(-489.33 1.81)"/></g><g id="ARC-36" data-name="ARC"><path class="cls-1" d="M746.55,252.76a9.6,9.6,0,0,0-9.49-8.12" transform="translate(-489.33 1.81)"/></g><g id="ARC-37" data-name="ARC"><path class="cls-1" d="M631.19,429a4.81,4.81,0,0,0,7.51,6" transform="translate(-489.33 1.81)"/></g><g id="ARC-38" data-name="ARC"><path class="cls-1" d="M715.56,339a4.8,4.8,0,0,0-7.5-6" transform="translate(-489.33 1.81)"/></g><g id="ARC-39" data-name="ARC"><path class="cls-1" d="M727.27,435a4.8,4.8,0,0,0,7.5-6" transform="translate(-489.33 1.81)"/></g><g id="ARC-40" data-name="ARC"><path class="cls-1" d="M657.91,333a4.8,4.8,0,1,0-7.5,6" transform="translate(-489.33 1.81)"/></g><g id="LINE-38" data-name="LINE"><line class="cls-1" x1="218.73" y1="334.77" x2="193.66" y2="366.11"/></g><g id="LINE-39" data-name="LINE"><line class="cls-1" x1="187.5" y1="373.8" x2="141.87" y2="430.85"/></g><g id="LINE-40" data-name="LINE"><line class="cls-1" x1="245.45" y1="430.85" x2="199.81" y2="373.8"/></g><g id="LINE-41" data-name="LINE"><line class="cls-1" x1="193.66" y1="366.11" x2="168.58" y2="334.77"/></g><g id="LINE-42" data-name="LINE"><line class="cls-1" x1="149.37" y1="436.85" x2="193.66" y2="381.49"/></g><g id="LINE-43" data-name="LINE"><line class="cls-1" x1="199.81" y1="373.8" x2="226.23" y2="340.78"/></g><g id="LINE-44" data-name="LINE"><line class="cls-1" x1="161.08" y1="340.78" x2="187.5" y2="373.8"/></g><g id="LINE-45" data-name="LINE"><line class="cls-1" x1="193.66" y1="381.49" x2="237.94" y2="436.85"/></g></svg>