<svg id="_0" data-name="0" xmlns="http://www.w3.org/2000/svg" viewBox="0 0 1309.67 771.63"><defs><style>.cls-1{fill:none;stroke:#000;stroke-linecap:round;stroke-linejoin:round;stroke-width:3px;}</style></defs><title>MirrorPlate</title><g id="LINE"><line class="cls-1" x1="1249.04" y1="90.19" x2="1249.04" y2="681.44"/></g><g id="LINE-2" data-name="LINE"><line class="cls-1" x1="60.63" y1="681.44" x2="60.63" y2="90.19"/></g><g id="LINE-3" data-name="LINE"><line class="cls-1" x1="16.28" y1="740.56" x2="60.63" y2="740.56"/></g><g id="LINE-4" data-name="LINE"><line class="cls-1" x1="60.63" y1="681.44" x2="16.28" y2="681.44"/></g><g id="LINE-5" data-name="LINE"><line class="cls-1" x1="1.5" y1="696.22" x2="1.5" y2="725.78"/></g><g id="LINE-6" data-name="LINE"><line class="cls-1" x1="16.28" y1="90.19" x2="60.63" y2="90.19"/></g><g id="LINE-7" data-name="LINE"><line class="cls-1" x1="60.63" y1="31.06" x2="16.28" y2="31.06"/></g><g id="LINE-8" data-name="LINE"><line class="cls-1" x1="1.5" y1="45.84" x2="1.5" y2="75.41"/></g><g id="LINE-9" data-name="LINE"><line class="cls-1" x1="1249.04" y1="740.56" x2="1293.39" y2="740.56"/></g><g id="LINE-10" data-name="LINE"><line class="cls-1" x1="1308.17" y1="725.78" x2="1308.17" y2="696.22"/></g><g id="LINE-11" data-name="LINE"><line class="cls-1" x1="1293.39" y1="681.44" x2="1249.04" y2="681.44"/></g><g id="LWPOLYLINE"><path class="cls-1" d="M66.62,47V70.64a7.39,7.39,0,0,1-14.78,0V47a7.39,7.39,0,0,1,14.78,0Z" transform="translate(-28.17 1.81)"/></g><g id="LWPOLYLINE-2" data-name="LWPOLYLINE"><path class="cls-1" d="M51.84,721V697.36a7.39,7.39,0,0,1,14.78,0V721a7.39,7.39,0,0,1-14.78,0Z" transform="translate(-28.17 1.81)"/></g><g id="LWPOLYLINE-3" data-name="LWPOLYLINE"><path class="cls-1" d="M1314.16,697.36V721.2a7.39,7.39,0,0,1-14.78,0V697.36a7.39,7.39,0,0,1,14.78,0Z" transform="translate(-28.17 1.81)"/></g><g id="LINE-12" data-name="LINE"><line class="cls-1" x1="1249.04" y1="31.06" x2="1293.39" y2="31.06"/></g><g id="LINE-13" data-name="LINE"><line class="cls-1" x1="1308.17" y1="45.84" x2="1308.17" y2="75.41"/></g><g id="LINE-14" data-name="LINE"><line class="cls-1" x1="1293.39" y1="90.19" x2="1249.04" y2="90.19"/></g><g id="LWPOLYLINE-4" data-name="LWPOLYLINE"><path class="cls-1" d="M1299.39,70.64V47a7.39,7.39,0,0,1,14.78,0V70.64a7.39,7.39,0,0,1-14.78,0Z" transform="translate(-28.17 1.81)"/></g><g id="LINE-15" data-name="LINE"><line class="cls-1" x1="1095.32" y1="31.06" x2="1095.32" y2="16.28"/></g><g id="LINE-16" data-name="LINE"><line class="cls-1" x1="1080.53" y1="1.5" x2="223.22" y2="1.5"/></g><g id="LINE-17" data-name="LINE"><line class="cls-1" x1="208.44" y1="16.28" x2="208.44" y2="31.06"/></g><g id="LINE-18" data-name="LINE"><line class="cls-1" x1="223.22" y1="770.13" x2="1080.53" y2="770.13"/></g><g id="LINE-19" data-name="LINE"><line class="cls-1" x1="1095.32" y1="755.35" x2="1095.32" y2="740.56"/></g><g id="LINE-20" data-name="LINE"><line class="cls-1" x1="208.44" y1="740.56" x2="208.44" y2="755.35"/></g><g id="ARC"><path class="cls-1" d="M236.6,753.53a14.78,14.78,0,0,0,14.79,14.78" transform="translate(-28.17 1.81)"/></g><g id="ARC-2" data-name="ARC"><path class="cls-1" d="M1108.7,768.31a14.78,14.78,0,0,0,14.78-14.78" transform="translate(-28.17 1.81)"/></g><g id="ARC-3" data-name="ARC"><path class="cls-1" d="M251.39-.31A14.78,14.78,0,0,0,236.6,14.47" transform="translate(-28.17 1.81)"/></g><g id="ARC-4" data-name="ARC"><path class="cls-1" d="M1123.48,14.47A14.78,14.78,0,0,0,1108.7-.31" transform="translate(-28.17 1.81)"/></g><g id="ARC-5" data-name="ARC"><path class="cls-1" d="M29.67,724a14.78,14.78,0,0,0,14.78,14.78" transform="translate(-28.17 1.81)"/></g><g id="ARC-6" data-name="ARC"><path class="cls-1" d="M44.45,679.63a14.77,14.77,0,0,0-14.78,14.78" transform="translate(-28.17 1.81)"/></g><g id="ARC-7" data-name="ARC"><path class="cls-1" d="M1321.55,738.75A14.78,14.78,0,0,0,1336.33,724" transform="translate(-28.17 1.81)"/></g><g id="ARC-8" data-name="ARC"><path class="cls-1" d="M1336.33,694.41a14.77,14.77,0,0,0-14.78-14.78" transform="translate(-28.17 1.81)"/></g><g id="ARC-9" data-name="ARC"><path class="cls-1" d="M1321.55,88.37a14.77,14.77,0,0,0,14.78-14.78" transform="translate(-28.17 1.81)"/></g><g id="ARC-10" data-name="ARC"><path class="cls-1" d="M1336.33,44a14.78,14.78,0,0,0-14.78-14.78" transform="translate(-28.17 1.81)"/></g><g id="ARC-11" data-name="ARC"><path class="cls-1" d="M29.67,73.59A14.77,14.77,0,0,0,44.45,88.37" transform="translate(-28.17 1.81)"/></g><g id="ARC-12" data-name="ARC"><path class="cls-1" d="M44.45,29.25A14.78,14.78,0,0,0,29.67,44" transform="translate(-28.17 1.81)"/></g><g id="LINE-21" data-name="LINE"><line class="cls-1" x1="1249.04" y1="740.56" x2="1095.32" y2="740.56"/></g><g id="LINE-22" data-name="LINE"><line class="cls-1" x1="208.44" y1="740.56" x2="60.63" y2="740.56"/></g><g id="LINE-23" data-name="LINE"><line class="cls-1" x1="60.63" y1="31.06" x2="208.44" y2="31.06"/></g><g id="LINE-24" data-name="LINE"><line class="cls-1" x1="1095.32" y1="31.06" x2="1249.04" y2="31.06"/></g></svg>