<svg id="_0" data-name="0" xmlns="http://www.w3.org/2000/svg" viewBox="0 0 838.57 771.63"><defs><style>.cls-1{fill:none;stroke:#000;stroke-linecap:round;stroke-linejoin:round;stroke-width:3px;}</style></defs><title>NearSidePanel</title><g id="LINE"><line class="cls-1" x1="1.5" y1="1.5" x2="837.07" y2="1.5"/></g><g id="LINE-2" data-name="LINE"><line class="cls-1" x1="837.07" y1="1.5" x2="837.07" y2="745.33"/></g><g id="LINE-3" data-name="LINE"><line class="cls-1" x1="812.28" y1="770.13" x2="26.29" y2="770.13"/></g><g id="LINE-4" data-name="LINE"><line class="cls-1" x1="1.5" y1="745.33" x2="1.5" y2="1.5"/></g><g id="ARC"><path class="cls-1" d="M1076,768.31a24.79,24.79,0,0,0,24.8-24.79" transform="translate(-263.71 1.81)"/></g><g id="ARC-2" data-name="ARC"><path class="cls-1" d="M265.21,743.52A24.79,24.79,0,0,0,290,768.31" transform="translate(-263.71 1.81)"/></g><g id="LWPOLYLINE"><path class="cls-1" d="M571.43,71H794.57a3.1,3.1,0,0,1,0,6.2H571.43a3.1,3.1,0,1,1,0-6.2Z" transform="translate(-263.71 1.81)"/></g><g id="LINE-5" data-name="LINE"><line class="cls-1" x1="38.69" y1="1.5" x2="28.77" y2="1.5"/></g><g id="LINE-6" data-name="LINE"><line class="cls-1" x1="299.03" y1="1.5" x2="274.24" y2="1.5"/></g><g id="LINE-7" data-name="LINE"><line class="cls-1" x1="1.5" y1="26.29" x2="1.5" y2="643.68"/></g><g id="LWPOLYLINE-2" data-name="LWPOLYLINE"><rect class="cls-1" x="31.25" y="31.25" width="19.84" height="19.84"/></g><g id="LWPOLYLINE-3" data-name="LWPOLYLINE"><rect class="cls-1" x="58.8" y="31.25" width="19.84" height="19.84"/></g><g id="LWPOLYLINE-4" data-name="LWPOLYLINE"><rect class="cls-1" x="86.35" y="31.25" width="19.84" height="19.84"/></g><g id="LWPOLYLINE-5" data-name="LWPOLYLINE"><rect class="cls-1" x="113.9" y="31.25" width="19.84" height="19.84"/></g><g id="LWPOLYLINE-6" data-name="LWPOLYLINE"><rect class="cls-1" x="141.45" y="31.25" width="19.84" height="19.84"/></g><g id="LWPOLYLINE-7" data-name="LWPOLYLINE"><rect class="cls-1" x="169" y="31.25" width="19.84" height="19.84"/></g><g id="LWPOLYLINE-8" data-name="LWPOLYLINE"><rect class="cls-1" x="196.55" y="31.25" width="19.84" height="19.84"/></g><g id="LWPOLYLINE-9" data-name="LWPOLYLINE"><rect class="cls-1" x="224.1" y="31.25" width="19.84" height="19.84"/></g><g id="LWPOLYLINE-10" data-name="LWPOLYLINE"><rect class="cls-1" x="251.65" y="31.25" width="19.84" height="19.84"/></g><g id="LWPOLYLINE-11" data-name="LWPOLYLINE"><rect class="cls-1" x="31.25" y="58.11" width="19.84" height="19.84"/></g><g id="LWPOLYLINE-12" data-name="LWPOLYLINE"><rect class="cls-1" x="58.8" y="58.11" width="19.84" height="19.84"/></g><g id="LWPOLYLINE-13" data-name="LWPOLYLINE"><rect class="cls-1" x="86.35" y="58.11" width="19.84" height="19.84"/></g><g id="LWPOLYLINE-14" data-name="LWPOLYLINE"><rect class="cls-1" x="113.9" y="58.11" width="19.84" height="19.84"/></g><g id="LWPOLYLINE-15" data-name="LWPOLYLINE"><rect class="cls-1" x="141.45" y="58.11" width="19.84" height="19.84"/></g><g id="LWPOLYLINE-16" data-name="LWPOLYLINE"><rect class="cls-1" x="169" y="58.11" width="19.84" height="19.84"/></g><g id="LWPOLYLINE-17" data-name="LWPOLYLINE"><rect class="cls-1" x="196.55" y="58.11" width="19.84" height="19.84"/></g><g id="LWPOLYLINE-18" data-name="LWPOLYLINE"><rect class="cls-1" x="224.1" y="58.11" width="19.84" height="19.84"/></g><g id="LWPOLYLINE-19" data-name="LWPOLYLINE"><rect class="cls-1" x="251.65" y="58.11" width="19.84" height="19.84"/></g><g id="LWPOLYLINE-20" data-name="LWPOLYLINE"><rect class="cls-1" x="31.25" y="84.97" width="19.84" height="19.84"/></g><g id="LWPOLYLINE-21" data-name="LWPOLYLINE"><rect class="cls-1" x="58.8" y="84.97" width="19.84" height="19.84"/></g><g id="LWPOLYLINE-22" data-name="LWPOLYLINE"><rect class="cls-1" x="86.35" y="84.97" width="19.84" height="19.84"/></g><g id="LWPOLYLINE-23" data-name="LWPOLYLINE"><rect class="cls-1" x="113.9" y="84.97" width="19.84" height="19.84"/></g><g id="LWPOLYLINE-24" data-name="LWPOLYLINE"><rect class="cls-1" x="141.45" y="84.97" width="19.84" height="19.84"/></g><g id="LWPOLYLINE-25" data-name="LWPOLYLINE"><rect class="cls-1" x="169" y="84.97" width="19.84" height="19.84"/></g><g id="LWPOLYLINE-26" data-name="LWPOLYLINE"><rect class="cls-1" x="196.55" y="84.97" width="19.84" height="19.84"/></g><g id="LWPOLYLINE-27" data-name="LWPOLYLINE"><rect class="cls-1" x="224.1" y="84.97" width="19.84" height="19.84"/></g><g id="LWPOLYLINE-28" data-name="LWPOLYLINE"><rect class="cls-1" x="251.65" y="84.97" width="19.84" height="19.84"/></g><g id="LWPOLYLINE-29" data-name="LWPOLYLINE"><rect class="cls-1" x="31.25" y="111.84" width="19.84" height="19.84"/></g><g id="LWPOLYLINE-30" data-name="LWPOLYLINE"><rect class="cls-1" x="58.8" y="111.84" width="19.84" height="19.84"/></g><g id="LWPOLYLINE-31" data-name="LWPOLYLINE"><rect class="cls-1" x="86.35" y="111.84" width="19.84" height="19.84"/></g><g id="LWPOLYLINE-32" data-name="LWPOLYLINE"><rect class="cls-1" x="113.9" y="111.84" width="19.84" height="19.84"/></g><g id="LWPOLYLINE-33" data-name="LWPOLYLINE"><rect class="cls-1" x="141.45" y="111.84" width="19.84" height="19.84"/></g><g id="LWPOLYLINE-34" data-name="LWPOLYLINE"><rect class="cls-1" x="169" y="111.84" width="19.84" height="19.84"/></g><g id="LWPOLYLINE-35" data-name="LWPOLYLINE"><rect class="cls-1" x="196.55" y="111.84" width="19.84" height="19.84"/></g><g id="LWPOLYLINE-36" data-name="LWPOLYLINE"><rect class="cls-1" x="224.1" y="111.84" width="19.84" height="19.84"/></g><g id="LWPOLYLINE-37" data-name="LWPOLYLINE"><rect class="cls-1" x="251.65" y="111.84" width="19.84" height="19.84"/></g><g id="LWPOLYLINE-38" data-name="LWPOLYLINE"><rect class="cls-1" x="31.25" y="138.7" width="19.84" height="19.84"/></g><g id="LWPOLYLINE-39" data-name="LWPOLYLINE"><rect class="cls-1" x="58.8" y="138.7" width="19.84" height="19.84"/></g><g id="LWPOLYLINE-40" data-name="LWPOLYLINE"><rect class="cls-1" x="86.35" y="138.7" width="19.84" height="19.84"/></g><g id="LWPOLYLINE-41" data-name="LWPOLYLINE"><rect class="cls-1" x="113.9" y="138.7" width="19.84" height="19.84"/></g><g id="LWPOLYLINE-42" data-name="LWPOLYLINE"><rect class="cls-1" x="141.45" y="138.7" width="19.84" height="19.84"/></g><g id="LWPOLYLINE-43" data-name="LWPOLYLINE"><rect class="cls-1" x="169" y="138.7" width="19.84" height="19.84"/></g><g id="LWPOLYLINE-44" data-name="LWPOLYLINE"><rect class="cls-1" x="196.55" y="138.7" width="19.84" height="19.84"/></g><g id="LWPOLYLINE-45" data-name="LWPOLYLINE"><rect class="cls-1" x="224.1" y="138.7" width="19.84" height="19.84"/></g><g id="LWPOLYLINE-46" data-name="LWPOLYLINE"><rect class="cls-1" x="251.65" y="138.7" width="19.84" height="19.84"/></g><g id="LWPOLYLINE-47" data-name="LWPOLYLINE"><rect class="cls-1" x="31.25" y="165.56" width="19.84" height="19.84"/></g><g id="LWPOLYLINE-48" data-name="LWPOLYLINE"><rect class="cls-1" x="58.8" y="165.56" width="19.84" height="19.84"/></g><g id="LWPOLYLINE-49" data-name="LWPOLYLINE"><rect class="cls-1" x="86.35" y="165.56" width="19.84" height="19.84"/></g><g id="LWPOLYLINE-50" data-name="LWPOLYLINE"><rect class="cls-1" x="113.9" y="165.56" width="19.84" height="19.84"/></g><g id="LWPOLYLINE-51" data-name="LWPOLYLINE"><rect class="cls-1" x="141.45" y="165.56" width="19.84" height="19.84"/></g><g id="LWPOLYLINE-52" data-name="LWPOLYLINE"><rect class="cls-1" x="169" y="165.56" width="19.84" height="19.84"/></g><g id="LWPOLYLINE-53" data-name="LWPOLYLINE"><rect class="cls-1" x="196.55" y="165.56" width="19.84" height="19.84"/></g><g id="LWPOLYLINE-54" data-name="LWPOLYLINE"><rect class="cls-1" x="224.1" y="165.56" width="19.84" height="19.84"/></g><g id="LWPOLYLINE-55" data-name="LWPOLYLINE"><rect class="cls-1" x="251.65" y="165.56" width="19.84" height="19.84"/></g><g id="LWPOLYLINE-56" data-name="LWPOLYLINE"><rect class="cls-1" x="31.25" y="192.42" width="19.84" height="19.84"/></g><g id="LWPOLYLINE-57" data-name="LWPOLYLINE"><rect class="cls-1" x="58.8" y="192.42" width="19.84" height="19.84"/></g><g id="LWPOLYLINE-58" data-name="LWPOLYLINE"><rect class="cls-1" x="86.35" y="192.42" width="19.84" height="19.84"/></g><g id="LWPOLYLINE-59" data-name="LWPOLYLINE"><rect class="cls-1" x="113.9" y="192.42" width="19.84" height="19.84"/></g><g id="LWPOLYLINE-60" data-name="LWPOLYLINE"><rect class="cls-1" x="141.45" y="192.42" width="19.84" height="19.84"/></g><g id="LWPOLYLINE-61" data-name="LWPOLYLINE"><rect class="cls-1" x="169" y="192.42" width="19.84" height="19.84"/></g><g id="LWPOLYLINE-62" data-name="LWPOLYLINE"><rect class="cls-1" x="196.55" y="192.42" width="19.84" height="19.84"/></g><g id="LWPOLYLINE-63" data-name="LWPOLYLINE"><rect class="cls-1" x="224.1" y="192.42" width="19.84" height="19.84"/></g><g id="LWPOLYLINE-64" data-name="LWPOLYLINE"><rect class="cls-1" x="251.65" y="192.42" width="19.84" height="19.84"/></g><g id="LWPOLYLINE-65" data-name="LWPOLYLINE"><rect class="cls-1" x="31.25" y="219.28" width="19.84" height="19.84"/></g><g id="LWPOLYLINE-66" data-name="LWPOLYLINE"><rect class="cls-1" x="58.8" y="219.28" width="19.84" height="19.84"/></g><g id="LWPOLYLINE-67" data-name="LWPOLYLINE"><rect class="cls-1" x="86.35" y="219.28" width="19.84" height="19.84"/></g><g id="LWPOLYLINE-68" data-name="LWPOLYLINE"><rect class="cls-1" x="113.9" y="219.28" width="19.84" height="19.84"/></g><g id="LWPOLYLINE-69" data-name="LWPOLYLINE"><rect class="cls-1" x="141.45" y="219.28" width="19.84" height="19.84"/></g><g id="LWPOLYLINE-70" data-name="LWPOLYLINE"><rect class="cls-1" x="169" y="219.28" width="19.84" height="19.84"/></g><g id="LWPOLYLINE-71" data-name="LWPOLYLINE"><rect class="cls-1" x="196.55" y="219.28" width="19.84" height="19.84"/></g><g id="LWPOLYLINE-72" data-name="LWPOLYLINE"><rect class="cls-1" x="224.1" y="219.28" width="19.84" height="19.84"/></g><g id="LWPOLYLINE-73" data-name="LWPOLYLINE"><rect class="cls-1" x="251.65" y="219.28" width="19.84" height="19.84"/></g><g id="LWPOLYLINE-74" data-name="LWPOLYLINE"><rect class="cls-1" x="31.25" y="246.14" width="19.84" height="19.84"/></g><g id="LWPOLYLINE-75" data-name="LWPOLYLINE"><rect class="cls-1" x="58.8" y="246.14" width="19.84" height="19.84"/></g><g id="LWPOLYLINE-76" data-name="LWPOLYLINE"><rect class="cls-1" x="86.35" y="246.14" width="19.84" height="19.84"/></g><g id="LWPOLYLINE-77" data-name="LWPOLYLINE"><rect class="cls-1" x="113.9" y="246.14" width="19.84" height="19.84"/></g><g id="LWPOLYLINE-78" data-name="LWPOLYLINE"><rect class="cls-1" x="141.45" y="246.14" width="19.84" height="19.84"/></g><g id="LWPOLYLINE-79" data-name="LWPOLYLINE"><rect class="cls-1" x="169" y="246.14" width="19.84" height="19.84"/></g><g id="LWPOLYLINE-80" data-name="LWPOLYLINE"><rect class="cls-1" x="196.55" y="246.14" width="19.84" height="19.84"/></g><g id="LWPOLYLINE-81" data-name="LWPOLYLINE"><rect class="cls-1" x="224.1" y="246.14" width="19.84" height="19.84"/></g><g id="LWPOLYLINE-82" data-name="LWPOLYLINE"><rect class="cls-1" x="251.65" y="246.14" width="19.84" height="19.84"/></g><g id="LWPOLYLINE-83" data-name="LWPOLYLINE"><rect class="cls-1" x="31.25" y="273" width="19.84" height="19.84"/></g><g id="LWPOLYLINE-84" data-name="LWPOLYLINE"><rect class="cls-1" x="58.8" y="273" width="19.84" height="19.84"/></g><g id="LWPOLYLINE-85" data-name="LWPOLYLINE"><rect class="cls-1" x="86.35" y="273" width="19.84" height="19.84"/></g><g id="LWPOLYLINE-86" data-name="LWPOLYLINE"><rect class="cls-1" x="113.9" y="273" width="19.84" height="19.84"/></g><g id="LWPOLYLINE-87" data-name="LWPOLYLINE"><rect class="cls-1" x="141.45" y="273" width="19.84" height="19.84"/></g><g id="LWPOLYLINE-88" data-name="LWPOLYLINE"><rect class="cls-1" x="169" y="273" width="19.84" height="19.84"/></g><g id="LWPOLYLINE-89" data-name="LWPOLYLINE"><rect class="cls-1" x="196.55" y="273" width="19.84" height="19.84"/></g><g id="LWPOLYLINE-90" data-name="LWPOLYLINE"><rect class="cls-1" x="224.1" y="273" width="19.84" height="19.84"/></g><g id="LWPOLYLINE-91" data-name="LWPOLYLINE"><rect class="cls-1" x="251.65" y="273" width="19.84" height="19.84"/></g><g id="LWPOLYLINE-92" data-name="LWPOLYLINE"><rect class="cls-1" x="279.2" y="273" width="19.84" height="19.84"/></g><g id="LWPOLYLINE-93" data-name="LWPOLYLINE"><rect class="cls-1" x="31.25" y="299.86" width="19.84" height="19.84"/></g><g id="LWPOLYLINE-94" data-name="LWPOLYLINE"><rect class="cls-1" x="58.8" y="299.86" width="19.84" height="19.84"/></g><g id="LWPOLYLINE-95" data-name="LWPOLYLINE"><rect class="cls-1" x="86.35" y="299.86" width="19.84" height="19.84"/></g><g id="LWPOLYLINE-96" data-name="LWPOLYLINE"><rect class="cls-1" x="113.9" y="299.86" width="19.84" height="19.84"/></g><g id="LWPOLYLINE-97" data-name="LWPOLYLINE"><rect class="cls-1" x="141.45" y="299.86" width="19.84" height="19.84"/></g><g id="LWPOLYLINE-98" data-name="LWPOLYLINE"><rect class="cls-1" x="169" y="299.86" width="19.84" height="19.84"/></g><g id="LWPOLYLINE-99" data-name="LWPOLYLINE"><rect class="cls-1" x="196.55" y="299.86" width="19.84" height="19.84"/></g><g id="LWPOLYLINE-100" data-name="LWPOLYLINE"><rect class="cls-1" x="224.1" y="299.86" width="19.84" height="19.84"/></g><g id="LWPOLYLINE-101" data-name="LWPOLYLINE"><rect class="cls-1" x="251.65" y="299.86" width="19.84" height="19.84"/></g><g id="LWPOLYLINE-102" data-name="LWPOLYLINE"><rect class="cls-1" x="279.2" y="299.86" width="19.84" height="19.84"/></g><g id="LWPOLYLINE-103" data-name="LWPOLYLINE"><rect class="cls-1" x="31.25" y="326.72" width="19.84" height="19.84"/></g><g id="LWPOLYLINE-104" data-name="LWPOLYLINE"><rect class="cls-1" x="58.8" y="326.72" width="19.84" height="19.84"/></g><g id="LWPOLYLINE-105" data-name="LWPOLYLINE"><rect class="cls-1" x="86.35" y="326.72" width="19.84" height="19.84"/></g><g id="LWPOLYLINE-106" data-name="LWPOLYLINE"><rect class="cls-1" x="113.9" y="326.72" width="19.84" height="19.84"/></g><g id="LWPOLYLINE-107" data-name="LWPOLYLINE"><rect class="cls-1" x="141.45" y="326.72" width="19.84" height="19.84"/></g><g id="LWPOLYLINE-108" data-name="LWPOLYLINE"><rect class="cls-1" x="169" y="326.72" width="19.84" height="19.84"/></g><g id="LWPOLYLINE-109" data-name="LWPOLYLINE"><rect class="cls-1" x="196.55" y="326.72" width="19.84" height="19.84"/></g><g id="LWPOLYLINE-110" data-name="LWPOLYLINE"><rect class="cls-1" x="224.1" y="326.72" width="19.84" height="19.84"/></g><g id="LWPOLYLINE-111" data-name="LWPOLYLINE"><rect class="cls-1" x="251.65" y="326.72" width="19.84" height="19.84"/></g><g id="LWPOLYLINE-112" data-name="LWPOLYLINE"><rect class="cls-1" x="279.2" y="326.72" width="19.84" height="19.84"/></g><g id="LWPOLYLINE-113" data-name="LWPOLYLINE"><rect class="cls-1" x="31.25" y="353.58" width="19.84" height="19.84"/></g><g id="LWPOLYLINE-114" data-name="LWPOLYLINE"><rect class="cls-1" x="58.8" y="353.58" width="19.84" height="19.84"/></g><g id="LWPOLYLINE-115" data-name="LWPOLYLINE"><rect class="cls-1" x="86.35" y="353.58" width="19.84" height="19.84"/></g><g id="LWPOLYLINE-116" data-name="LWPOLYLINE"><rect class="cls-1" x="113.9" y="353.58" width="19.84" height="19.84"/></g><g id="LWPOLYLINE-117" data-name="LWPOLYLINE"><rect class="cls-1" x="141.45" y="353.58" width="19.84" height="19.84"/></g><g id="LWPOLYLINE-118" data-name="LWPOLYLINE"><rect class="cls-1" x="169" y="353.58" width="19.84" height="19.84"/></g><g id="LWPOLYLINE-119" data-name="LWPOLYLINE"><rect class="cls-1" x="196.55" y="353.58" width="19.84" height="19.84"/></g><g id="LWPOLYLINE-120" data-name="LWPOLYLINE"><rect class="cls-1" x="224.1" y="353.58" width="19.84" height="19.84"/></g><g id="LWPOLYLINE-121" data-name="LWPOLYLINE"><rect class="cls-1" x="251.65" y="353.58" width="19.84" height="19.84"/></g><g id="LWPOLYLINE-122" data-name="LWPOLYLINE"><rect class="cls-1" x="279.2" y="353.58" width="19.84" height="19.84"/></g><g id="LWPOLYLINE-123" data-name="LWPOLYLINE"><rect class="cls-1" x="31.25" y="380.44" width="19.84" height="19.84"/></g><g id="LWPOLYLINE-124" data-name="LWPOLYLINE"><rect class="cls-1" x="58.8" y="380.44" width="19.84" height="19.84"/></g><g id="LWPOLYLINE-125" data-name="LWPOLYLINE"><rect class="cls-1" x="86.35" y="380.44" width="19.84" height="19.84"/></g><g id="LWPOLYLINE-126" data-name="LWPOLYLINE"><rect class="cls-1" x="113.9" y="380.44" width="19.84" height="19.84"/></g><g id="LWPOLYLINE-127" data-name="LWPOLYLINE"><rect class="cls-1" x="141.45" y="380.44" width="19.84" height="19.84"/></g><g id="LWPOLYLINE-128" data-name="LWPOLYLINE"><rect class="cls-1" x="169" y="380.44" width="19.84" height="19.84"/></g><g id="LWPOLYLINE-129" data-name="LWPOLYLINE"><rect class="cls-1" x="196.55" y="380.44" width="19.84" height="19.84"/></g><g id="LWPOLYLINE-130" data-name="LWPOLYLINE"><rect class="cls-1" x="224.1" y="380.44" width="19.84" height="19.84"/></g><g id="LWPOLYLINE-131" data-name="LWPOLYLINE"><rect class="cls-1" x="251.65" y="380.44" width="19.84" height="19.84"/></g><g id="LWPOLYLINE-132" data-name="LWPOLYLINE"><rect class="cls-1" x="279.2" y="380.44" width="19.84" height="19.84"/></g><g id="LWPOLYLINE-133" data-name="LWPOLYLINE"><rect class="cls-1" x="31.25" y="407.3" width="19.84" height="19.84"/></g><g id="LWPOLYLINE-134" data-name="LWPOLYLINE"><rect class="cls-1" x="58.8" y="407.3" width="19.84" height="19.84"/></g><g id="LWPOLYLINE-135" data-name="LWPOLYLINE"><rect class="cls-1" x="86.35" y="407.3" width="19.84" height="19.84"/></g><g id="LWPOLYLINE-136" data-name="LWPOLYLINE"><rect class="cls-1" x="113.9" y="407.3" width="19.84" height="19.84"/></g><g id="LWPOLYLINE-137" data-name="LWPOLYLINE"><rect class="cls-1" x="141.45" y="407.3" width="19.84" height="19.84"/></g><g id="LWPOLYLINE-138" data-name="LWPOLYLINE"><rect class="cls-1" x="169" y="407.3" width="19.84" height="19.84"/></g><g id="LWPOLYLINE-139" data-name="LWPOLYLINE"><rect class="cls-1" x="196.55" y="407.3" width="19.84" height="19.84"/></g><g id="LWPOLYLINE-140" data-name="LWPOLYLINE"><rect class="cls-1" x="224.1" y="407.3" width="19.84" height="19.84"/></g><g id="LWPOLYLINE-141" data-name="LWPOLYLINE"><rect class="cls-1" x="251.65" y="407.3" width="19.84" height="19.84"/></g><g id="LWPOLYLINE-142" data-name="LWPOLYLINE"><rect class="cls-1" x="279.2" y="407.3" width="19.84" height="19.84"/></g><g id="LWPOLYLINE-143" data-name="LWPOLYLINE"><rect class="cls-1" x="31.25" y="434.16" width="19.84" height="19.84"/></g><g id="LWPOLYLINE-144" data-name="LWPOLYLINE"><rect class="cls-1" x="58.8" y="434.16" width="19.84" height="19.84"/></g><g id="LWPOLYLINE-145" data-name="LWPOLYLINE"><rect class="cls-1" x="86.35" y="434.16" width="19.84" height="19.84"/></g><g id="LWPOLYLINE-146" data-name="LWPOLYLINE"><rect class="cls-1" x="113.9" y="434.16" width="19.84" height="19.84"/></g><g id="LWPOLYLINE-147" data-name="LWPOLYLINE"><rect class="cls-1" x="141.45" y="434.16" width="19.84" height="19.84"/></g><g id="LWPOLYLINE-148" data-name="LWPOLYLINE"><rect class="cls-1" x="169" y="434.16" width="19.84" height="19.84"/></g><g id="LWPOLYLINE-149" data-name="LWPOLYLINE"><rect class="cls-1" x="196.55" y="434.16" width="19.84" height="19.84"/></g><g id="LWPOLYLINE-150" data-name="LWPOLYLINE"><rect class="cls-1" x="224.1" y="434.16" width="19.84" height="19.84"/></g><g id="LWPOLYLINE-151" data-name="LWPOLYLINE"><rect class="cls-1" x="251.65" y="434.16" width="19.84" height="19.84"/></g><g id="LWPOLYLINE-152" data-name="LWPOLYLINE"><rect class="cls-1" x="279.2" y="434.16" width="19.84" height="19.84"/></g><g id="LWPOLYLINE-153" data-name="LWPOLYLINE"><rect class="cls-1" x="31.25" y="461.02" width="19.84" height="19.84"/></g><g id="LWPOLYLINE-154" data-name="LWPOLYLINE"><rect class="cls-1" x="58.8" y="461.02" width="19.84" height="19.84"/></g><g id="LWPOLYLINE-155" data-name="LWPOLYLINE"><rect class="cls-1" x="86.35" y="461.02" width="19.84" height="19.84"/></g><g id="LWPOLYLINE-156" data-name="LWPOLYLINE"><rect class="cls-1" x="113.9" y="461.02" width="19.84" height="19.84"/></g><g id="LWPOLYLINE-157" data-name="LWPOLYLINE"><rect class="cls-1" x="141.45" y="461.02" width="19.84" height="19.84"/></g><g id="LWPOLYLINE-158" data-name="LWPOLYLINE"><rect class="cls-1" x="169" y="461.02" width="19.84" height="19.84"/></g><g id="LWPOLYLINE-159" data-name="LWPOLYLINE"><rect class="cls-1" x="196.55" y="461.02" width="19.84" height="19.84"/></g><g id="LWPOLYLINE-160" data-name="LWPOLYLINE"><rect class="cls-1" x="224.1" y="461.02" width="19.84" height="19.84"/></g><g id="LWPOLYLINE-161" data-name="LWPOLYLINE"><rect class="cls-1" x="251.65" y="461.02" width="19.84" height="19.84"/></g><g id="LWPOLYLINE-162" data-name="LWPOLYLINE"><rect class="cls-1" x="279.2" y="461.02" width="19.84" height="19.84"/></g><g id="LWPOLYLINE-163" data-name="LWPOLYLINE"><rect class="cls-1" x="31.25" y="487.88" width="19.84" height="19.84"/></g><g id="LWPOLYLINE-164" data-name="LWPOLYLINE"><rect class="cls-1" x="58.8" y="487.88" width="19.84" height="19.84"/></g><g id="LWPOLYLINE-165" data-name="LWPOLYLINE"><rect class="cls-1" x="86.35" y="487.88" width="19.84" height="19.84"/></g><g id="LWPOLYLINE-166" data-name="LWPOLYLINE"><rect class="cls-1" x="113.9" y="487.88" width="19.84" height="19.84"/></g><g id="LWPOLYLINE-167" data-name="LWPOLYLINE"><rect class="cls-1" x="141.45" y="487.88" width="19.84" height="19.84"/></g><g id="LWPOLYLINE-168" data-name="LWPOLYLINE"><rect class="cls-1" x="169" y="487.88" width="19.84" height="19.84"/></g><g id="LWPOLYLINE-169" data-name="LWPOLYLINE"><rect class="cls-1" x="196.55" y="487.88" width="19.84" height="19.84"/></g><g id="LWPOLYLINE-170" data-name="LWPOLYLINE"><rect class="cls-1" x="224.1" y="487.88" width="19.84" height="19.84"/></g><g id="LWPOLYLINE-171" data-name="LWPOLYLINE"><rect class="cls-1" x="251.65" y="487.88" width="19.84" height="19.84"/></g><g id="LWPOLYLINE-172" data-name="LWPOLYLINE"><rect class="cls-1" x="279.2" y="487.88" width="19.84" height="19.84"/></g><g id="LWPOLYLINE-173" data-name="LWPOLYLINE"><rect class="cls-1" x="31.25" y="514.74" width="19.84" height="19.84"/></g><g id="LWPOLYLINE-174" data-name="LWPOLYLINE"><rect class="cls-1" x="58.8" y="514.74" width="19.84" height="19.84"/></g><g id="LWPOLYLINE-175" data-name="LWPOLYLINE"><rect class="cls-1" x="86.35" y="514.74" width="19.84" height="19.84"/></g><g id="LWPOLYLINE-176" data-name="LWPOLYLINE"><rect class="cls-1" x="113.9" y="514.74" width="19.84" height="19.84"/></g><g id="LWPOLYLINE-177" data-name="LWPOLYLINE"><rect class="cls-1" x="141.45" y="514.74" width="19.84" height="19.84"/></g><g id="LWPOLYLINE-178" data-name="LWPOLYLINE"><rect class="cls-1" x="169" y="514.74" width="19.84" height="19.84"/></g><g id="LWPOLYLINE-179" data-name="LWPOLYLINE"><rect class="cls-1" x="196.55" y="514.74" width="19.84" height="19.84"/></g><g id="LWPOLYLINE-180" data-name="LWPOLYLINE"><rect class="cls-1" x="224.1" y="514.74" width="19.84" height="19.84"/></g><g id="LWPOLYLINE-181" data-name="LWPOLYLINE"><rect class="cls-1" x="251.65" y="514.74" width="19.84" height="19.84"/></g><g id="LWPOLYLINE-182" data-name="LWPOLYLINE"><rect class="cls-1" x="279.2" y="514.74" width="19.84" height="19.84"/></g><g id="LWPOLYLINE-183" data-name="LWPOLYLINE"><rect class="cls-1" x="31.25" y="541.61" width="19.84" height="19.84"/></g><g id="LWPOLYLINE-184" data-name="LWPOLYLINE"><rect class="cls-1" x="58.8" y="541.61" width="19.84" height="19.84"/></g><g id="LWPOLYLINE-185" data-name="LWPOLYLINE"><rect class="cls-1" x="86.35" y="541.61" width="19.84" height="19.84"/></g><g id="LWPOLYLINE-186" data-name="LWPOLYLINE"><rect class="cls-1" x="113.9" y="541.61" width="19.84" height="19.84"/></g><g id="LWPOLYLINE-187" data-name="LWPOLYLINE"><rect class="cls-1" x="141.45" y="541.61" width="19.84" height="19.84"/></g><g id="LWPOLYLINE-188" data-name="LWPOLYLINE"><rect class="cls-1" x="169" y="541.61" width="19.84" height="19.84"/></g><g id="LWPOLYLINE-189" data-name="LWPOLYLINE"><rect class="cls-1" x="196.55" y="541.61" width="19.84" height="19.84"/></g><g id="LWPOLYLINE-190" data-name="LWPOLYLINE"><rect class="cls-1" x="224.1" y="541.61" width="19.84" height="19.84"/></g><g id="LWPOLYLINE-191" data-name="LWPOLYLINE"><rect class="cls-1" x="251.65" y="541.61" width="19.84" height="19.84"/></g><g id="LWPOLYLINE-192" data-name="LWPOLYLINE"><rect class="cls-1" x="279.2" y="541.61" width="19.84" height="19.84"/></g><g id="LWPOLYLINE-193" data-name="LWPOLYLINE"><rect class="cls-1" x="31.25" y="568.47" width="19.84" height="19.84"/></g><g id="LWPOLYLINE-194" data-name="LWPOLYLINE"><rect class="cls-1" x="58.8" y="568.47" width="19.84" height="19.84"/></g><g id="LWPOLYLINE-195" data-name="LWPOLYLINE"><rect class="cls-1" x="86.35" y="568.47" width="19.84" height="19.84"/></g><g id="LWPOLYLINE-196" data-name="LWPOLYLINE"><rect class="cls-1" x="113.9" y="568.47" width="19.84" height="19.84"/></g><g id="LWPOLYLINE-197" data-name="LWPOLYLINE"><rect class="cls-1" x="141.45" y="568.47" width="19.84" height="19.84"/></g><g id="LWPOLYLINE-198" data-name="LWPOLYLINE"><rect class="cls-1" x="169" y="568.47" width="19.84" height="19.84"/></g><g id="LWPOLYLINE-199" data-name="LWPOLYLINE"><rect class="cls-1" x="196.55" y="568.47" width="19.84" height="19.84"/></g><g id="LWPOLYLINE-200" data-name="LWPOLYLINE"><rect class="cls-1" x="224.1" y="568.47" width="19.84" height="19.84"/></g><g id="LWPOLYLINE-201" data-name="LWPOLYLINE"><rect class="cls-1" x="251.65" y="568.47" width="19.84" height="19.84"/></g><g id="LWPOLYLINE-202" data-name="LWPOLYLINE"><rect class="cls-1" x="279.2" y="568.47" width="19.84" height="19.84"/></g><g id="LWPOLYLINE-203" data-name="LWPOLYLINE"><rect class="cls-1" x="31.25" y="595.33" width="19.84" height="19.84"/></g><g id="LWPOLYLINE-204" data-name="LWPOLYLINE"><rect class="cls-1" x="58.8" y="595.33" width="19.84" height="19.84"/></g><g id="LWPOLYLINE-205" data-name="LWPOLYLINE"><rect class="cls-1" x="86.35" y="595.33" width="19.84" height="19.84"/></g><g id="LWPOLYLINE-206" data-name="LWPOLYLINE"><rect class="cls-1" x="113.9" y="595.33" width="19.84" height="19.84"/></g><g id="LWPOLYLINE-207" data-name="LWPOLYLINE"><rect class="cls-1" x="141.45" y="595.33" width="19.84" height="19.84"/></g><g id="LWPOLYLINE-208" data-name="LWPOLYLINE"><rect class="cls-1" x="169" y="595.33" width="19.84" height="19.84"/></g><g id="LWPOLYLINE-209" data-name="LWPOLYLINE"><rect class="cls-1" x="196.55" y="595.33" width="19.84" height="19.84"/></g><g id="LWPOLYLINE-210" data-name="LWPOLYLINE"><rect class="cls-1" x="224.1" y="595.33" width="19.84" height="19.84"/></g><g id="LWPOLYLINE-211" data-name="LWPOLYLINE"><rect class="cls-1" x="251.65" y="595.33" width="19.84" height="19.84"/></g><g id="LWPOLYLINE-212" data-name="LWPOLYLINE"><rect class="cls-1" x="279.2" y="595.33" width="19.84" height="19.84"/></g><g id="LWPOLYLINE-213" data-name="LWPOLYLINE"><rect class="cls-1" x="31.25" y="622.19" width="19.84" height="19.84"/></g><g id="LWPOLYLINE-214" data-name="LWPOLYLINE"><rect class="cls-1" x="58.8" y="622.19" width="19.84" height="19.84"/></g><g id="LWPOLYLINE-215" data-name="LWPOLYLINE"><rect class="cls-1" x="86.35" y="622.19" width="19.84" height="19.84"/></g><g id="LWPOLYLINE-216" data-name="LWPOLYLINE"><rect class="cls-1" x="113.9" y="622.19" width="19.84" height="19.84"/></g><g id="LWPOLYLINE-217" data-name="LWPOLYLINE"><rect class="cls-1" x="141.45" y="622.19" width="19.84" height="19.84"/></g><g id="LWPOLYLINE-218" data-name="LWPOLYLINE"><rect class="cls-1" x="169" y="622.19" width="19.84" height="19.84"/></g><g id="LWPOLYLINE-219" data-name="LWPOLYLINE"><rect class="cls-1" x="196.55" y="622.19" width="19.84" height="19.84"/></g><g id="LWPOLYLINE-220" data-name="LWPOLYLINE"><rect class="cls-1" x="224.1" y="622.19" width="19.84" height="19.84"/></g><g id="LWPOLYLINE-221" data-name="LWPOLYLINE"><rect class="cls-1" x="251.65" y="622.19" width="19.84" height="19.84"/></g><g id="LWPOLYLINE-222" data-name="LWPOLYLINE"><rect class="cls-1" x="279.2" y="622.19" width="19.84" height="19.84"/></g><g id="LWPOLYLINE-223" data-name="LWPOLYLINE"><rect class="cls-1" x="58.8" y="649.05" width="19.84" height="19.84"/></g><g id="LWPOLYLINE-224" data-name="LWPOLYLINE"><rect class="cls-1" x="86.35" y="649.05" width="19.84" height="19.84"/></g><g id="LWPOLYLINE-225" data-name="LWPOLYLINE"><rect class="cls-1" x="113.9" y="649.05" width="19.84" height="19.84"/></g><g id="LWPOLYLINE-226" data-name="LWPOLYLINE"><rect class="cls-1" x="141.45" y="649.05" width="19.84" height="19.84"/></g><g id="LWPOLYLINE-227" data-name="LWPOLYLINE"><rect class="cls-1" x="169" y="649.05" width="19.84" height="19.84"/></g><g id="LWPOLYLINE-228" data-name="LWPOLYLINE"><rect class="cls-1" x="196.55" y="649.05" width="19.84" height="19.84"/></g><g id="LWPOLYLINE-229" data-name="LWPOLYLINE"><rect class="cls-1" x="224.1" y="649.05" width="19.84" height="19.84"/></g><g id="LWPOLYLINE-230" data-name="LWPOLYLINE"><rect class="cls-1" x="251.65" y="649.05" width="19.84" height="19.84"/></g><g id="LWPOLYLINE-231" data-name="LWPOLYLINE"><rect class="cls-1" x="279.2" y="649.05" width="19.84" height="19.84"/></g><g id="CIRCLE"><path class="cls-1" d="M324,12.08a3.22,3.22,0,1,1,3.22,3.23A3.22,3.22,0,0,1,324,12.08Z" transform="translate(-263.71 1.81)"/></g><g id="CIRCLE-2" data-name="CIRCLE"><path class="cls-1" d="M1035.58,12.08a3.22,3.22,0,1,1,3.22,3.23,3.22,3.22,0,0,1-3.22-3.23Z" transform="translate(-263.71 1.81)"/></g><g id="CIRCLE-3" data-name="CIRCLE"><path class="cls-1" d="M1085.17,706.33a3.22,3.22,0,1,1,3.22,3.22,3.23,3.23,0,0,1-3.22-3.22Z" transform="translate(-263.71 1.81)"/></g><g id="CIRCLE-4" data-name="CIRCLE"><path class="cls-1" d="M274.39,706.33a3.22,3.22,0,1,1,3.22,3.22,3.23,3.23,0,0,1-3.22-3.22Z" transform="translate(-263.71 1.81)"/></g></svg>