<svg id="_0" data-name="0" xmlns="http://www.w3.org/2000/svg" viewBox="0 0 838.57 771.63"><defs><style>.cls-1{fill:none;stroke:#000;stroke-linecap:round;stroke-linejoin:round;stroke-width:3px;}</style></defs><title>NonProjLongSide</title><g id="LWPOLYLINE"><path class="cls-1" d="M265.21-.31V743.52A24.79,24.79,0,0,0,290,768.31h786a24.79,24.79,0,0,0,24.8-24.79V-.31Z" transform="translate(-263.71 1.81)"/></g><g id="LINE"><line class="cls-1" x1="1.5" y1="26.29" x2="1.5" y2="643.68"/></g><g id="LINE-2" data-name="LINE"><line class="cls-1" x1="299.03" y1="1.5" x2="274.24" y2="1.5"/></g><g id="LWPOLYLINE-2" data-name="LWPOLYLINE"><rect class="cls-1" x="31.25" y="622.19" width="19.84" height="19.84"/></g><g id="LINE-3" data-name="LINE"><line class="cls-1" x1="38.69" y1="1.5" x2="28.77" y2="1.5"/></g><g id="LWPOLYLINE-3" data-name="LWPOLYLINE"><rect class="cls-1" x="58.26" y="622.19" width="19.84" height="19.84"/></g><g id="LWPOLYLINE-4" data-name="LWPOLYLINE"><rect class="cls-1" x="85.27" y="622.19" width="19.84" height="19.84"/></g><g id="LWPOLYLINE-5" data-name="LWPOLYLINE"><rect class="cls-1" x="112.28" y="622.19" width="19.84" height="19.84"/></g><g id="LWPOLYLINE-6" data-name="LWPOLYLINE"><rect class="cls-1" x="139.29" y="622.19" width="19.84" height="19.84"/></g><g id="LWPOLYLINE-7" data-name="LWPOLYLINE"><rect class="cls-1" x="166.29" y="622.19" width="19.84" height="19.84"/></g><g id="LWPOLYLINE-8" data-name="LWPOLYLINE"><rect class="cls-1" x="193.3" y="622.19" width="19.84" height="19.84"/></g><g id="LWPOLYLINE-9" data-name="LWPOLYLINE"><rect class="cls-1" x="220.31" y="622.19" width="19.84" height="19.84"/></g><g id="LWPOLYLINE-10" data-name="LWPOLYLINE"><rect class="cls-1" x="247.32" y="622.19" width="19.84" height="19.84"/></g><g id="LWPOLYLINE-11" data-name="LWPOLYLINE"><rect class="cls-1" x="274.33" y="622.19" width="19.84" height="19.84"/></g><g id="LWPOLYLINE-12" data-name="LWPOLYLINE"><rect class="cls-1" x="301.34" y="622.19" width="19.84" height="19.84"/></g><g id="LWPOLYLINE-13" data-name="LWPOLYLINE"><rect class="cls-1" x="328.34" y="622.19" width="19.84" height="19.84"/></g><g id="LWPOLYLINE-14" data-name="LWPOLYLINE"><rect class="cls-1" x="355.35" y="622.19" width="19.84" height="19.84"/></g><g id="LWPOLYLINE-15" data-name="LWPOLYLINE"><rect class="cls-1" x="382.36" y="622.19" width="19.84" height="19.84"/></g><g id="LWPOLYLINE-16" data-name="LWPOLYLINE"><rect class="cls-1" x="409.37" y="622.19" width="19.84" height="19.84"/></g><g id="LWPOLYLINE-17" data-name="LWPOLYLINE"><rect class="cls-1" x="436.38" y="622.19" width="19.84" height="19.84"/></g><g id="LWPOLYLINE-18" data-name="LWPOLYLINE"><rect class="cls-1" x="463.38" y="622.19" width="19.84" height="19.84"/></g><g id="LWPOLYLINE-19" data-name="LWPOLYLINE"><rect class="cls-1" x="490.39" y="622.19" width="19.84" height="19.84"/></g><g id="LWPOLYLINE-20" data-name="LWPOLYLINE"><rect class="cls-1" x="517.4" y="622.19" width="19.84" height="19.84"/></g><g id="LWPOLYLINE-21" data-name="LWPOLYLINE"><rect class="cls-1" x="544.41" y="622.19" width="19.84" height="19.84"/></g><g id="LWPOLYLINE-22" data-name="LWPOLYLINE"><rect class="cls-1" x="571.42" y="622.19" width="19.84" height="19.84"/></g><g id="LWPOLYLINE-23" data-name="LWPOLYLINE"><rect class="cls-1" x="598.43" y="622.19" width="19.84" height="19.84"/></g><g id="LWPOLYLINE-24" data-name="LWPOLYLINE"><rect class="cls-1" x="625.43" y="622.19" width="19.84" height="19.84"/></g><g id="LWPOLYLINE-25" data-name="LWPOLYLINE"><rect class="cls-1" x="652.44" y="622.19" width="19.84" height="19.84"/></g><g id="LWPOLYLINE-26" data-name="LWPOLYLINE"><rect class="cls-1" x="679.45" y="622.19" width="19.84" height="19.84"/></g><g id="LWPOLYLINE-27" data-name="LWPOLYLINE"><rect class="cls-1" x="706.46" y="622.19" width="19.84" height="19.84"/></g><g id="LWPOLYLINE-28" data-name="LWPOLYLINE"><rect class="cls-1" x="733.47" y="622.19" width="19.84" height="19.84"/></g><g id="LWPOLYLINE-29" data-name="LWPOLYLINE"><rect class="cls-1" x="760.48" y="622.19" width="19.84" height="19.84"/></g><g id="LWPOLYLINE-30" data-name="LWPOLYLINE"><rect class="cls-1" x="787.48" y="622.19" width="19.84" height="19.84"/></g><g id="LWPOLYLINE-31" data-name="LWPOLYLINE"><rect class="cls-1" x="31.25" y="595.14" width="19.84" height="19.84"/></g><g id="LWPOLYLINE-32" data-name="LWPOLYLINE"><rect class="cls-1" x="58.26" y="595.14" width="19.84" height="19.84"/></g><g id="LWPOLYLINE-33" data-name="LWPOLYLINE"><rect class="cls-1" x="85.27" y="595.14" width="19.84" height="19.84"/></g><g id="LWPOLYLINE-34" data-name="LWPOLYLINE"><rect class="cls-1" x="112.28" y="595.14" width="19.84" height="19.84"/></g><g id="LWPOLYLINE-35" data-name="LWPOLYLINE"><rect class="cls-1" x="139.29" y="595.14" width="19.84" height="19.84"/></g><g id="LWPOLYLINE-36" data-name="LWPOLYLINE"><rect class="cls-1" x="166.29" y="595.14" width="19.84" height="19.84"/></g><g id="LWPOLYLINE-37" data-name="LWPOLYLINE"><rect class="cls-1" x="193.3" y="595.14" width="19.84" height="19.84"/></g><g id="LWPOLYLINE-38" data-name="LWPOLYLINE"><rect class="cls-1" x="220.31" y="595.14" width="19.84" height="19.84"/></g><g id="LWPOLYLINE-39" data-name="LWPOLYLINE"><rect class="cls-1" x="247.32" y="595.14" width="19.84" height="19.84"/></g><g id="LWPOLYLINE-40" data-name="LWPOLYLINE"><rect class="cls-1" x="274.33" y="595.14" width="19.84" height="19.84"/></g><g id="LWPOLYLINE-41" data-name="LWPOLYLINE"><rect class="cls-1" x="301.34" y="595.14" width="19.84" height="19.84"/></g><g id="LWPOLYLINE-42" data-name="LWPOLYLINE"><rect class="cls-1" x="328.34" y="595.14" width="19.84" height="19.84"/></g><g id="LWPOLYLINE-43" data-name="LWPOLYLINE"><rect class="cls-1" x="355.35" y="595.14" width="19.84" height="19.84"/></g><g id="LWPOLYLINE-44" data-name="LWPOLYLINE"><rect class="cls-1" x="382.36" y="595.14" width="19.84" height="19.84"/></g><g id="LWPOLYLINE-45" data-name="LWPOLYLINE"><rect class="cls-1" x="409.37" y="595.14" width="19.84" height="19.84"/></g><g id="LWPOLYLINE-46" data-name="LWPOLYLINE"><rect class="cls-1" x="436.38" y="595.14" width="19.84" height="19.84"/></g><g id="LWPOLYLINE-47" data-name="LWPOLYLINE"><rect class="cls-1" x="463.38" y="595.14" width="19.84" height="19.84"/></g><g id="LWPOLYLINE-48" data-name="LWPOLYLINE"><rect class="cls-1" x="490.39" y="595.14" width="19.84" height="19.84"/></g><g id="LWPOLYLINE-49" data-name="LWPOLYLINE"><rect class="cls-1" x="517.4" y="595.14" width="19.84" height="19.84"/></g><g id="LWPOLYLINE-50" data-name="LWPOLYLINE"><rect class="cls-1" x="544.41" y="595.14" width="19.84" height="19.84"/></g><g id="LWPOLYLINE-51" data-name="LWPOLYLINE"><rect class="cls-1" x="571.42" y="595.14" width="19.84" height="19.84"/></g><g id="LWPOLYLINE-52" data-name="LWPOLYLINE"><rect class="cls-1" x="598.43" y="595.14" width="19.84" height="19.84"/></g><g id="LWPOLYLINE-53" data-name="LWPOLYLINE"><rect class="cls-1" x="625.43" y="595.14" width="19.84" height="19.84"/></g><g id="LWPOLYLINE-54" data-name="LWPOLYLINE"><rect class="cls-1" x="652.44" y="595.14" width="19.84" height="19.84"/></g><g id="LWPOLYLINE-55" data-name="LWPOLYLINE"><rect class="cls-1" x="679.45" y="595.14" width="19.84" height="19.84"/></g><g id="LWPOLYLINE-56" data-name="LWPOLYLINE"><rect class="cls-1" x="706.46" y="595.14" width="19.84" height="19.84"/></g><g id="LWPOLYLINE-57" data-name="LWPOLYLINE"><rect class="cls-1" x="733.47" y="595.14" width="19.84" height="19.84"/></g><g id="LWPOLYLINE-58" data-name="LWPOLYLINE"><rect class="cls-1" x="760.48" y="595.14" width="19.84" height="19.84"/></g><g id="LWPOLYLINE-59" data-name="LWPOLYLINE"><rect class="cls-1" x="787.48" y="595.14" width="19.84" height="19.84"/></g><g id="LWPOLYLINE-60" data-name="LWPOLYLINE"><rect class="cls-1" x="31.25" y="568.09" width="19.84" height="19.84"/></g><g id="LWPOLYLINE-61" data-name="LWPOLYLINE"><rect class="cls-1" x="58.26" y="568.09" width="19.84" height="19.84"/></g><g id="LWPOLYLINE-62" data-name="LWPOLYLINE"><rect class="cls-1" x="85.27" y="568.09" width="19.84" height="19.84"/></g><g id="LWPOLYLINE-63" data-name="LWPOLYLINE"><rect class="cls-1" x="112.28" y="568.09" width="19.84" height="19.84"/></g><g id="LWPOLYLINE-64" data-name="LWPOLYLINE"><rect class="cls-1" x="139.29" y="568.09" width="19.84" height="19.84"/></g><g id="LWPOLYLINE-65" data-name="LWPOLYLINE"><rect class="cls-1" x="166.29" y="568.09" width="19.84" height="19.84"/></g><g id="LWPOLYLINE-66" data-name="LWPOLYLINE"><rect class="cls-1" x="193.3" y="568.09" width="19.84" height="19.84"/></g><g id="LWPOLYLINE-67" data-name="LWPOLYLINE"><rect class="cls-1" x="220.31" y="568.09" width="19.84" height="19.84"/></g><g id="LWPOLYLINE-68" data-name="LWPOLYLINE"><rect class="cls-1" x="247.32" y="568.09" width="19.84" height="19.84"/></g><g id="LWPOLYLINE-69" data-name="LWPOLYLINE"><rect class="cls-1" x="274.33" y="568.09" width="19.84" height="19.84"/></g><g id="LWPOLYLINE-70" data-name="LWPOLYLINE"><rect class="cls-1" x="301.34" y="568.09" width="19.84" height="19.84"/></g><g id="LWPOLYLINE-71" data-name="LWPOLYLINE"><rect class="cls-1" x="328.34" y="568.09" width="19.84" height="19.84"/></g><g id="LWPOLYLINE-72" data-name="LWPOLYLINE"><rect class="cls-1" x="355.35" y="568.09" width="19.84" height="19.84"/></g><g id="LWPOLYLINE-73" data-name="LWPOLYLINE"><rect class="cls-1" x="382.36" y="568.09" width="19.84" height="19.84"/></g><g id="LWPOLYLINE-74" data-name="LWPOLYLINE"><rect class="cls-1" x="409.37" y="568.09" width="19.84" height="19.84"/></g><g id="LWPOLYLINE-75" data-name="LWPOLYLINE"><rect class="cls-1" x="436.38" y="568.09" width="19.84" height="19.84"/></g><g id="LWPOLYLINE-76" data-name="LWPOLYLINE"><rect class="cls-1" x="463.38" y="568.09" width="19.84" height="19.84"/></g><g id="LWPOLYLINE-77" data-name="LWPOLYLINE"><rect class="cls-1" x="490.39" y="568.09" width="19.84" height="19.84"/></g><g id="LWPOLYLINE-78" data-name="LWPOLYLINE"><rect class="cls-1" x="517.4" y="568.09" width="19.84" height="19.84"/></g><g id="LWPOLYLINE-79" data-name="LWPOLYLINE"><rect class="cls-1" x="544.41" y="568.09" width="19.84" height="19.84"/></g><g id="LWPOLYLINE-80" data-name="LWPOLYLINE"><rect class="cls-1" x="571.42" y="568.09" width="19.84" height="19.84"/></g><g id="LWPOLYLINE-81" data-name="LWPOLYLINE"><rect class="cls-1" x="598.43" y="568.09" width="19.84" height="19.84"/></g><g id="LWPOLYLINE-82" data-name="LWPOLYLINE"><rect class="cls-1" x="625.43" y="568.09" width="19.84" height="19.84"/></g><g id="LWPOLYLINE-83" data-name="LWPOLYLINE"><rect class="cls-1" x="652.44" y="568.09" width="19.84" height="19.84"/></g><g id="LWPOLYLINE-84" data-name="LWPOLYLINE"><rect class="cls-1" x="679.45" y="568.09" width="19.84" height="19.84"/></g><g id="LWPOLYLINE-85" data-name="LWPOLYLINE"><rect class="cls-1" x="706.46" y="568.09" width="19.84" height="19.84"/></g><g id="LWPOLYLINE-86" data-name="LWPOLYLINE"><rect class="cls-1" x="733.47" y="568.09" width="19.84" height="19.84"/></g><g id="LWPOLYLINE-87" data-name="LWPOLYLINE"><rect class="cls-1" x="760.48" y="568.09" width="19.84" height="19.84"/></g><g id="LWPOLYLINE-88" data-name="LWPOLYLINE"><rect class="cls-1" x="787.48" y="568.09" width="19.84" height="19.84"/></g><g id="LWPOLYLINE-89" data-name="LWPOLYLINE"><rect class="cls-1" x="31.25" y="541.04" width="19.84" height="19.84"/></g><g id="LWPOLYLINE-90" data-name="LWPOLYLINE"><rect class="cls-1" x="58.26" y="541.04" width="19.84" height="19.84"/></g><g id="LWPOLYLINE-91" data-name="LWPOLYLINE"><rect class="cls-1" x="85.27" y="541.04" width="19.84" height="19.84"/></g><g id="LWPOLYLINE-92" data-name="LWPOLYLINE"><rect class="cls-1" x="112.28" y="541.04" width="19.84" height="19.84"/></g><g id="LWPOLYLINE-93" data-name="LWPOLYLINE"><rect class="cls-1" x="139.29" y="541.04" width="19.84" height="19.84"/></g><g id="LWPOLYLINE-94" data-name="LWPOLYLINE"><rect class="cls-1" x="166.29" y="541.04" width="19.84" height="19.84"/></g><g id="LWPOLYLINE-95" data-name="LWPOLYLINE"><rect class="cls-1" x="193.3" y="541.04" width="19.84" height="19.84"/></g><g id="LWPOLYLINE-96" data-name="LWPOLYLINE"><rect class="cls-1" x="220.31" y="541.04" width="19.84" height="19.84"/></g><g id="LWPOLYLINE-97" data-name="LWPOLYLINE"><rect class="cls-1" x="247.32" y="541.04" width="19.84" height="19.84"/></g><g id="LWPOLYLINE-98" data-name="LWPOLYLINE"><rect class="cls-1" x="274.33" y="541.04" width="19.84" height="19.84"/></g><g id="LWPOLYLINE-99" data-name="LWPOLYLINE"><rect class="cls-1" x="301.34" y="541.04" width="19.84" height="19.84"/></g><g id="LWPOLYLINE-100" data-name="LWPOLYLINE"><rect class="cls-1" x="328.34" y="541.04" width="19.84" height="19.84"/></g><g id="LWPOLYLINE-101" data-name="LWPOLYLINE"><rect class="cls-1" x="355.35" y="541.04" width="19.84" height="19.84"/></g><g id="LWPOLYLINE-102" data-name="LWPOLYLINE"><rect class="cls-1" x="382.36" y="541.04" width="19.84" height="19.84"/></g><g id="LWPOLYLINE-103" data-name="LWPOLYLINE"><rect class="cls-1" x="409.37" y="541.04" width="19.84" height="19.84"/></g><g id="LWPOLYLINE-104" data-name="LWPOLYLINE"><rect class="cls-1" x="436.38" y="541.04" width="19.84" height="19.84"/></g><g id="LWPOLYLINE-105" data-name="LWPOLYLINE"><rect class="cls-1" x="463.38" y="541.04" width="19.84" height="19.84"/></g><g id="LWPOLYLINE-106" data-name="LWPOLYLINE"><rect class="cls-1" x="490.39" y="541.04" width="19.84" height="19.84"/></g><g id="LWPOLYLINE-107" data-name="LWPOLYLINE"><rect class="cls-1" x="517.4" y="541.04" width="19.84" height="19.84"/></g><g id="LWPOLYLINE-108" data-name="LWPOLYLINE"><rect class="cls-1" x="544.41" y="541.04" width="19.84" height="19.84"/></g><g id="LWPOLYLINE-109" data-name="LWPOLYLINE"><rect class="cls-1" x="571.42" y="541.04" width="19.84" height="19.84"/></g><g id="LWPOLYLINE-110" data-name="LWPOLYLINE"><rect class="cls-1" x="598.43" y="541.04" width="19.84" height="19.84"/></g><g id="LWPOLYLINE-111" data-name="LWPOLYLINE"><rect class="cls-1" x="625.43" y="541.04" width="19.84" height="19.84"/></g><g id="LWPOLYLINE-112" data-name="LWPOLYLINE"><rect class="cls-1" x="652.44" y="541.04" width="19.84" height="19.84"/></g><g id="LWPOLYLINE-113" data-name="LWPOLYLINE"><rect class="cls-1" x="679.45" y="541.04" width="19.84" height="19.84"/></g><g id="LWPOLYLINE-114" data-name="LWPOLYLINE"><rect class="cls-1" x="706.46" y="541.04" width="19.84" height="19.84"/></g><g id="LWPOLYLINE-115" data-name="LWPOLYLINE"><rect class="cls-1" x="733.47" y="541.04" width="19.84" height="19.84"/></g><g id="LWPOLYLINE-116" data-name="LWPOLYLINE"><rect class="cls-1" x="760.48" y="541.04" width="19.84" height="19.84"/></g><g id="LWPOLYLINE-117" data-name="LWPOLYLINE"><rect class="cls-1" x="787.48" y="541.04" width="19.84" height="19.84"/></g><g id="LWPOLYLINE-118" data-name="LWPOLYLINE"><rect class="cls-1" x="31.25" y="513.99" width="19.84" height="19.84"/></g><g id="LWPOLYLINE-119" data-name="LWPOLYLINE"><rect class="cls-1" x="58.26" y="513.99" width="19.84" height="19.84"/></g><g id="LWPOLYLINE-120" data-name="LWPOLYLINE"><rect class="cls-1" x="85.27" y="513.99" width="19.84" height="19.84"/></g><g id="LWPOLYLINE-121" data-name="LWPOLYLINE"><rect class="cls-1" x="112.28" y="513.99" width="19.84" height="19.84"/></g><g id="LWPOLYLINE-122" data-name="LWPOLYLINE"><rect class="cls-1" x="139.29" y="513.99" width="19.84" height="19.84"/></g><g id="LWPOLYLINE-123" data-name="LWPOLYLINE"><rect class="cls-1" x="166.29" y="513.99" width="19.84" height="19.84"/></g><g id="LWPOLYLINE-124" data-name="LWPOLYLINE"><rect class="cls-1" x="193.3" y="513.99" width="19.84" height="19.84"/></g><g id="LWPOLYLINE-125" data-name="LWPOLYLINE"><rect class="cls-1" x="220.31" y="513.99" width="19.84" height="19.84"/></g><g id="LWPOLYLINE-126" data-name="LWPOLYLINE"><rect class="cls-1" x="247.32" y="513.99" width="19.84" height="19.84"/></g><g id="LWPOLYLINE-127" data-name="LWPOLYLINE"><rect class="cls-1" x="274.33" y="513.99" width="19.84" height="19.84"/></g><g id="LWPOLYLINE-128" data-name="LWPOLYLINE"><rect class="cls-1" x="301.34" y="513.99" width="19.84" height="19.84"/></g><g id="LWPOLYLINE-129" data-name="LWPOLYLINE"><rect class="cls-1" x="328.34" y="513.99" width="19.84" height="19.84"/></g><g id="LWPOLYLINE-130" data-name="LWPOLYLINE"><rect class="cls-1" x="355.35" y="513.99" width="19.84" height="19.84"/></g><g id="LWPOLYLINE-131" data-name="LWPOLYLINE"><rect class="cls-1" x="382.36" y="513.99" width="19.84" height="19.84"/></g><g id="LWPOLYLINE-132" data-name="LWPOLYLINE"><rect class="cls-1" x="409.37" y="513.99" width="19.84" height="19.84"/></g><g id="LWPOLYLINE-133" data-name="LWPOLYLINE"><rect class="cls-1" x="436.38" y="513.99" width="19.84" height="19.84"/></g><g id="LWPOLYLINE-134" data-name="LWPOLYLINE"><rect class="cls-1" x="463.38" y="513.99" width="19.84" height="19.84"/></g><g id="LWPOLYLINE-135" data-name="LWPOLYLINE"><rect class="cls-1" x="490.39" y="513.99" width="19.84" height="19.84"/></g><g id="LWPOLYLINE-136" data-name="LWPOLYLINE"><rect class="cls-1" x="517.4" y="513.99" width="19.84" height="19.84"/></g><g id="LWPOLYLINE-137" data-name="LWPOLYLINE"><rect class="cls-1" x="544.41" y="513.99" width="19.84" height="19.84"/></g><g id="LWPOLYLINE-138" data-name="LWPOLYLINE"><rect class="cls-1" x="571.42" y="513.99" width="19.84" height="19.84"/></g><g id="LWPOLYLINE-139" data-name="LWPOLYLINE"><rect class="cls-1" x="598.43" y="513.99" width="19.84" height="19.84"/></g><g id="LWPOLYLINE-140" data-name="LWPOLYLINE"><rect class="cls-1" x="625.43" y="513.99" width="19.84" height="19.84"/></g><g id="LWPOLYLINE-141" data-name="LWPOLYLINE"><rect class="cls-1" x="652.44" y="513.99" width="19.84" height="19.84"/></g><g id="LWPOLYLINE-142" data-name="LWPOLYLINE"><rect class="cls-1" x="679.45" y="513.99" width="19.84" height="19.84"/></g><g id="LWPOLYLINE-143" data-name="LWPOLYLINE"><rect class="cls-1" x="706.46" y="513.99" width="19.84" height="19.84"/></g><g id="LWPOLYLINE-144" data-name="LWPOLYLINE"><rect class="cls-1" x="733.47" y="513.99" width="19.84" height="19.84"/></g><g id="LWPOLYLINE-145" data-name="LWPOLYLINE"><rect class="cls-1" x="760.48" y="513.99" width="19.84" height="19.84"/></g><g id="LWPOLYLINE-146" data-name="LWPOLYLINE"><rect class="cls-1" x="787.48" y="513.99" width="19.84" height="19.84"/></g><g id="LWPOLYLINE-147" data-name="LWPOLYLINE"><rect class="cls-1" x="31.25" y="486.94" width="19.84" height="19.84"/></g><g id="LWPOLYLINE-148" data-name="LWPOLYLINE"><rect class="cls-1" x="58.26" y="486.94" width="19.84" height="19.84"/></g><g id="LWPOLYLINE-149" data-name="LWPOLYLINE"><rect class="cls-1" x="85.27" y="486.94" width="19.84" height="19.84"/></g><g id="LWPOLYLINE-150" data-name="LWPOLYLINE"><rect class="cls-1" x="112.28" y="486.94" width="19.84" height="19.84"/></g><g id="LWPOLYLINE-151" data-name="LWPOLYLINE"><rect class="cls-1" x="139.29" y="486.94" width="19.84" height="19.84"/></g><g id="LWPOLYLINE-152" data-name="LWPOLYLINE"><rect class="cls-1" x="166.29" y="486.94" width="19.84" height="19.84"/></g><g id="LWPOLYLINE-153" data-name="LWPOLYLINE"><rect class="cls-1" x="193.3" y="486.94" width="19.84" height="19.84"/></g><g id="LWPOLYLINE-154" data-name="LWPOLYLINE"><rect class="cls-1" x="220.31" y="486.94" width="19.84" height="19.84"/></g><g id="LWPOLYLINE-155" data-name="LWPOLYLINE"><rect class="cls-1" x="247.32" y="486.94" width="19.84" height="19.84"/></g><g id="LWPOLYLINE-156" data-name="LWPOLYLINE"><rect class="cls-1" x="274.33" y="486.94" width="19.84" height="19.84"/></g><g id="LWPOLYLINE-157" data-name="LWPOLYLINE"><rect class="cls-1" x="301.34" y="486.94" width="19.84" height="19.84"/></g><g id="LWPOLYLINE-158" data-name="LWPOLYLINE"><rect class="cls-1" x="328.34" y="486.94" width="19.84" height="19.84"/></g><g id="LWPOLYLINE-159" data-name="LWPOLYLINE"><rect class="cls-1" x="355.35" y="486.94" width="19.84" height="19.84"/></g><g id="LWPOLYLINE-160" data-name="LWPOLYLINE"><rect class="cls-1" x="382.36" y="486.94" width="19.84" height="19.84"/></g><g id="LWPOLYLINE-161" data-name="LWPOLYLINE"><rect class="cls-1" x="409.37" y="486.94" width="19.84" height="19.84"/></g><g id="LWPOLYLINE-162" data-name="LWPOLYLINE"><rect class="cls-1" x="436.38" y="486.94" width="19.84" height="19.84"/></g><g id="LWPOLYLINE-163" data-name="LWPOLYLINE"><rect class="cls-1" x="463.38" y="486.94" width="19.84" height="19.84"/></g><g id="LWPOLYLINE-164" data-name="LWPOLYLINE"><rect class="cls-1" x="490.39" y="486.94" width="19.84" height="19.84"/></g><g id="LWPOLYLINE-165" data-name="LWPOLYLINE"><rect class="cls-1" x="517.4" y="486.94" width="19.84" height="19.84"/></g><g id="LWPOLYLINE-166" data-name="LWPOLYLINE"><rect class="cls-1" x="544.41" y="486.94" width="19.84" height="19.84"/></g><g id="LWPOLYLINE-167" data-name="LWPOLYLINE"><rect class="cls-1" x="571.42" y="486.94" width="19.84" height="19.84"/></g><g id="LWPOLYLINE-168" data-name="LWPOLYLINE"><rect class="cls-1" x="598.43" y="486.94" width="19.84" height="19.84"/></g><g id="LWPOLYLINE-169" data-name="LWPOLYLINE"><rect class="cls-1" x="625.43" y="486.94" width="19.84" height="19.84"/></g><g id="LWPOLYLINE-170" data-name="LWPOLYLINE"><rect class="cls-1" x="652.44" y="486.94" width="19.84" height="19.84"/></g><g id="LWPOLYLINE-171" data-name="LWPOLYLINE"><rect class="cls-1" x="679.45" y="486.94" width="19.84" height="19.84"/></g><g id="LWPOLYLINE-172" data-name="LWPOLYLINE"><rect class="cls-1" x="706.46" y="486.94" width="19.84" height="19.84"/></g><g id="LWPOLYLINE-173" data-name="LWPOLYLINE"><rect class="cls-1" x="733.47" y="486.94" width="19.84" height="19.84"/></g><g id="LWPOLYLINE-174" data-name="LWPOLYLINE"><rect class="cls-1" x="760.48" y="486.94" width="19.84" height="19.84"/></g><g id="LWPOLYLINE-175" data-name="LWPOLYLINE"><rect class="cls-1" x="787.48" y="486.94" width="19.84" height="19.84"/></g><g id="LWPOLYLINE-176" data-name="LWPOLYLINE"><rect class="cls-1" x="31.25" y="459.9" width="19.84" height="19.84"/></g><g id="LWPOLYLINE-177" data-name="LWPOLYLINE"><rect class="cls-1" x="58.26" y="459.9" width="19.84" height="19.84"/></g><g id="LWPOLYLINE-178" data-name="LWPOLYLINE"><rect class="cls-1" x="85.27" y="459.9" width="19.84" height="19.84"/></g><g id="LWPOLYLINE-179" data-name="LWPOLYLINE"><rect class="cls-1" x="112.28" y="459.9" width="19.84" height="19.84"/></g><g id="LWPOLYLINE-180" data-name="LWPOLYLINE"><rect class="cls-1" x="139.29" y="459.9" width="19.84" height="19.84"/></g><g id="LWPOLYLINE-181" data-name="LWPOLYLINE"><rect class="cls-1" x="166.29" y="459.9" width="19.84" height="19.84"/></g><g id="LWPOLYLINE-182" data-name="LWPOLYLINE"><rect class="cls-1" x="193.3" y="459.9" width="19.84" height="19.84"/></g><g id="LWPOLYLINE-183" data-name="LWPOLYLINE"><rect class="cls-1" x="220.31" y="459.9" width="19.84" height="19.84"/></g><g id="LWPOLYLINE-184" data-name="LWPOLYLINE"><rect class="cls-1" x="247.32" y="459.9" width="19.84" height="19.84"/></g><g id="LWPOLYLINE-185" data-name="LWPOLYLINE"><rect class="cls-1" x="274.33" y="459.9" width="19.84" height="19.84"/></g><g id="LWPOLYLINE-186" data-name="LWPOLYLINE"><rect class="cls-1" x="301.34" y="459.9" width="19.84" height="19.84"/></g><g id="LWPOLYLINE-187" data-name="LWPOLYLINE"><rect class="cls-1" x="328.34" y="459.9" width="19.84" height="19.84"/></g><g id="LWPOLYLINE-188" data-name="LWPOLYLINE"><rect class="cls-1" x="355.35" y="459.9" width="19.84" height="19.84"/></g><g id="LWPOLYLINE-189" data-name="LWPOLYLINE"><rect class="cls-1" x="382.36" y="459.9" width="19.84" height="19.84"/></g><g id="LWPOLYLINE-190" data-name="LWPOLYLINE"><rect class="cls-1" x="409.37" y="459.9" width="19.84" height="19.84"/></g><g id="LWPOLYLINE-191" data-name="LWPOLYLINE"><rect class="cls-1" x="436.38" y="459.9" width="19.84" height="19.84"/></g><g id="LWPOLYLINE-192" data-name="LWPOLYLINE"><rect class="cls-1" x="463.38" y="459.9" width="19.84" height="19.84"/></g><g id="LWPOLYLINE-193" data-name="LWPOLYLINE"><rect class="cls-1" x="490.39" y="459.9" width="19.84" height="19.84"/></g><g id="LWPOLYLINE-194" data-name="LWPOLYLINE"><rect class="cls-1" x="517.4" y="459.9" width="19.84" height="19.84"/></g><g id="LWPOLYLINE-195" data-name="LWPOLYLINE"><rect class="cls-1" x="544.41" y="459.9" width="19.84" height="19.84"/></g><g id="LWPOLYLINE-196" data-name="LWPOLYLINE"><rect class="cls-1" x="571.42" y="459.9" width="19.84" height="19.84"/></g><g id="LWPOLYLINE-197" data-name="LWPOLYLINE"><rect class="cls-1" x="598.43" y="459.9" width="19.84" height="19.84"/></g><g id="LWPOLYLINE-198" data-name="LWPOLYLINE"><rect class="cls-1" x="625.43" y="459.9" width="19.84" height="19.84"/></g><g id="LWPOLYLINE-199" data-name="LWPOLYLINE"><rect class="cls-1" x="652.44" y="459.9" width="19.84" height="19.84"/></g><g id="LWPOLYLINE-200" data-name="LWPOLYLINE"><rect class="cls-1" x="679.45" y="459.9" width="19.84" height="19.84"/></g><g id="LWPOLYLINE-201" data-name="LWPOLYLINE"><rect class="cls-1" x="706.46" y="459.9" width="19.84" height="19.84"/></g><g id="LWPOLYLINE-202" data-name="LWPOLYLINE"><rect class="cls-1" x="733.47" y="459.9" width="19.84" height="19.84"/></g><g id="LWPOLYLINE-203" data-name="LWPOLYLINE"><rect class="cls-1" x="760.48" y="459.9" width="19.84" height="19.84"/></g><g id="LWPOLYLINE-204" data-name="LWPOLYLINE"><rect class="cls-1" x="787.48" y="459.9" width="19.84" height="19.84"/></g><g id="LWPOLYLINE-205" data-name="LWPOLYLINE"><rect class="cls-1" x="31.25" y="432.85" width="19.84" height="19.84"/></g><g id="LWPOLYLINE-206" data-name="LWPOLYLINE"><rect class="cls-1" x="58.26" y="432.85" width="19.84" height="19.84"/></g><g id="LWPOLYLINE-207" data-name="LWPOLYLINE"><rect class="cls-1" x="85.27" y="432.85" width="19.84" height="19.84"/></g><g id="LWPOLYLINE-208" data-name="LWPOLYLINE"><rect class="cls-1" x="112.28" y="432.85" width="19.84" height="19.84"/></g><g id="LWPOLYLINE-209" data-name="LWPOLYLINE"><rect class="cls-1" x="139.29" y="432.85" width="19.84" height="19.84"/></g><g id="LWPOLYLINE-210" data-name="LWPOLYLINE"><rect class="cls-1" x="166.29" y="432.85" width="19.84" height="19.84"/></g><g id="LWPOLYLINE-211" data-name="LWPOLYLINE"><rect class="cls-1" x="193.3" y="432.85" width="19.84" height="19.84"/></g><g id="LWPOLYLINE-212" data-name="LWPOLYLINE"><rect class="cls-1" x="220.31" y="432.85" width="19.84" height="19.84"/></g><g id="LWPOLYLINE-213" data-name="LWPOLYLINE"><rect class="cls-1" x="247.32" y="432.85" width="19.84" height="19.84"/></g><g id="LWPOLYLINE-214" data-name="LWPOLYLINE"><rect class="cls-1" x="274.33" y="432.85" width="19.84" height="19.84"/></g><g id="LWPOLYLINE-215" data-name="LWPOLYLINE"><rect class="cls-1" x="301.34" y="432.85" width="19.84" height="19.84"/></g><g id="LWPOLYLINE-216" data-name="LWPOLYLINE"><rect class="cls-1" x="328.34" y="432.85" width="19.84" height="19.84"/></g><g id="LWPOLYLINE-217" data-name="LWPOLYLINE"><rect class="cls-1" x="355.35" y="432.85" width="19.84" height="19.84"/></g><g id="LWPOLYLINE-218" data-name="LWPOLYLINE"><rect class="cls-1" x="382.36" y="432.85" width="19.84" height="19.84"/></g><g id="LWPOLYLINE-219" data-name="LWPOLYLINE"><rect class="cls-1" x="409.37" y="432.85" width="19.84" height="19.84"/></g><g id="LWPOLYLINE-220" data-name="LWPOLYLINE"><rect class="cls-1" x="436.38" y="432.85" width="19.84" height="19.84"/></g><g id="LWPOLYLINE-221" data-name="LWPOLYLINE"><rect class="cls-1" x="463.38" y="432.85" width="19.84" height="19.84"/></g><g id="LWPOLYLINE-222" data-name="LWPOLYLINE"><rect class="cls-1" x="490.39" y="432.85" width="19.84" height="19.84"/></g><g id="LWPOLYLINE-223" data-name="LWPOLYLINE"><rect class="cls-1" x="517.4" y="432.85" width="19.84" height="19.84"/></g><g id="LWPOLYLINE-224" data-name="LWPOLYLINE"><rect class="cls-1" x="544.41" y="432.85" width="19.84" height="19.84"/></g><g id="LWPOLYLINE-225" data-name="LWPOLYLINE"><rect class="cls-1" x="571.42" y="432.85" width="19.84" height="19.84"/></g><g id="LWPOLYLINE-226" data-name="LWPOLYLINE"><rect class="cls-1" x="598.43" y="432.85" width="19.84" height="19.84"/></g><g id="LWPOLYLINE-227" data-name="LWPOLYLINE"><rect class="cls-1" x="625.43" y="432.85" width="19.84" height="19.84"/></g><g id="LWPOLYLINE-228" data-name="LWPOLYLINE"><rect class="cls-1" x="652.44" y="432.85" width="19.84" height="19.84"/></g><g id="LWPOLYLINE-229" data-name="LWPOLYLINE"><rect class="cls-1" x="679.45" y="432.85" width="19.84" height="19.84"/></g><g id="LWPOLYLINE-230" data-name="LWPOLYLINE"><rect class="cls-1" x="706.46" y="432.85" width="19.84" height="19.84"/></g><g id="LWPOLYLINE-231" data-name="LWPOLYLINE"><rect class="cls-1" x="733.47" y="432.85" width="19.84" height="19.84"/></g><g id="LWPOLYLINE-232" data-name="LWPOLYLINE"><rect class="cls-1" x="760.48" y="432.85" width="19.84" height="19.84"/></g><g id="LWPOLYLINE-233" data-name="LWPOLYLINE"><rect class="cls-1" x="787.48" y="432.85" width="19.84" height="19.84"/></g><g id="LWPOLYLINE-234" data-name="LWPOLYLINE"><rect class="cls-1" x="31.25" y="405.8" width="19.84" height="19.84"/></g><g id="LWPOLYLINE-235" data-name="LWPOLYLINE"><rect class="cls-1" x="58.26" y="405.8" width="19.84" height="19.84"/></g><g id="LWPOLYLINE-236" data-name="LWPOLYLINE"><rect class="cls-1" x="85.27" y="405.8" width="19.84" height="19.84"/></g><g id="LWPOLYLINE-237" data-name="LWPOLYLINE"><rect class="cls-1" x="112.28" y="405.8" width="19.84" height="19.84"/></g><g id="LWPOLYLINE-238" data-name="LWPOLYLINE"><rect class="cls-1" x="139.29" y="405.8" width="19.84" height="19.84"/></g><g id="LWPOLYLINE-239" data-name="LWPOLYLINE"><rect class="cls-1" x="166.29" y="405.8" width="19.84" height="19.84"/></g><g id="LWPOLYLINE-240" data-name="LWPOLYLINE"><rect class="cls-1" x="193.3" y="405.8" width="19.84" height="19.84"/></g><g id="LWPOLYLINE-241" data-name="LWPOLYLINE"><rect class="cls-1" x="220.31" y="405.8" width="19.84" height="19.84"/></g><g id="LWPOLYLINE-242" data-name="LWPOLYLINE"><rect class="cls-1" x="247.32" y="405.8" width="19.84" height="19.84"/></g><g id="LWPOLYLINE-243" data-name="LWPOLYLINE"><rect class="cls-1" x="274.33" y="405.8" width="19.84" height="19.84"/></g><g id="LWPOLYLINE-244" data-name="LWPOLYLINE"><rect class="cls-1" x="301.34" y="405.8" width="19.84" height="19.84"/></g><g id="LWPOLYLINE-245" data-name="LWPOLYLINE"><rect class="cls-1" x="328.34" y="405.8" width="19.84" height="19.84"/></g><g id="LWPOLYLINE-246" data-name="LWPOLYLINE"><rect class="cls-1" x="355.35" y="405.8" width="19.84" height="19.84"/></g><g id="LWPOLYLINE-247" data-name="LWPOLYLINE"><rect class="cls-1" x="382.36" y="405.8" width="19.84" height="19.84"/></g><g id="LWPOLYLINE-248" data-name="LWPOLYLINE"><rect class="cls-1" x="409.37" y="405.8" width="19.84" height="19.84"/></g><g id="LWPOLYLINE-249" data-name="LWPOLYLINE"><rect class="cls-1" x="436.38" y="405.8" width="19.84" height="19.84"/></g><g id="LWPOLYLINE-250" data-name="LWPOLYLINE"><rect class="cls-1" x="463.38" y="405.8" width="19.84" height="19.84"/></g><g id="LWPOLYLINE-251" data-name="LWPOLYLINE"><rect class="cls-1" x="490.39" y="405.8" width="19.84" height="19.84"/></g><g id="LWPOLYLINE-252" data-name="LWPOLYLINE"><rect class="cls-1" x="517.4" y="405.8" width="19.84" height="19.84"/></g><g id="LWPOLYLINE-253" data-name="LWPOLYLINE"><rect class="cls-1" x="544.41" y="405.8" width="19.84" height="19.84"/></g><g id="LWPOLYLINE-254" data-name="LWPOLYLINE"><rect class="cls-1" x="571.42" y="405.8" width="19.84" height="19.84"/></g><g id="LWPOLYLINE-255" data-name="LWPOLYLINE"><rect class="cls-1" x="598.43" y="405.8" width="19.84" height="19.84"/></g><g id="LWPOLYLINE-256" data-name="LWPOLYLINE"><rect class="cls-1" x="625.43" y="405.8" width="19.84" height="19.84"/></g><g id="LWPOLYLINE-257" data-name="LWPOLYLINE"><rect class="cls-1" x="652.44" y="405.8" width="19.84" height="19.84"/></g><g id="LWPOLYLINE-258" data-name="LWPOLYLINE"><rect class="cls-1" x="679.45" y="405.8" width="19.84" height="19.84"/></g><g id="LWPOLYLINE-259" data-name="LWPOLYLINE"><rect class="cls-1" x="706.46" y="405.8" width="19.84" height="19.84"/></g><g id="LWPOLYLINE-260" data-name="LWPOLYLINE"><rect class="cls-1" x="733.47" y="405.8" width="19.84" height="19.84"/></g><g id="LWPOLYLINE-261" data-name="LWPOLYLINE"><rect class="cls-1" x="760.48" y="405.8" width="19.84" height="19.84"/></g><g id="LWPOLYLINE-262" data-name="LWPOLYLINE"><rect class="cls-1" x="787.48" y="405.8" width="19.84" height="19.84"/></g><g id="LWPOLYLINE-263" data-name="LWPOLYLINE"><rect class="cls-1" x="31.25" y="378.75" width="19.84" height="19.84"/></g><g id="LWPOLYLINE-264" data-name="LWPOLYLINE"><rect class="cls-1" x="58.26" y="378.75" width="19.84" height="19.84"/></g><g id="LWPOLYLINE-265" data-name="LWPOLYLINE"><rect class="cls-1" x="85.27" y="378.75" width="19.84" height="19.84"/></g><g id="LWPOLYLINE-266" data-name="LWPOLYLINE"><rect class="cls-1" x="112.28" y="378.75" width="19.84" height="19.84"/></g><g id="LWPOLYLINE-267" data-name="LWPOLYLINE"><rect class="cls-1" x="139.29" y="378.75" width="19.84" height="19.84"/></g><g id="LWPOLYLINE-268" data-name="LWPOLYLINE"><rect class="cls-1" x="166.29" y="378.75" width="19.84" height="19.84"/></g><g id="LWPOLYLINE-269" data-name="LWPOLYLINE"><rect class="cls-1" x="193.3" y="378.75" width="19.84" height="19.84"/></g><g id="LWPOLYLINE-270" data-name="LWPOLYLINE"><rect class="cls-1" x="220.31" y="378.75" width="19.84" height="19.84"/></g><g id="LWPOLYLINE-271" data-name="LWPOLYLINE"><rect class="cls-1" x="247.32" y="378.75" width="19.84" height="19.84"/></g><g id="LWPOLYLINE-272" data-name="LWPOLYLINE"><rect class="cls-1" x="274.33" y="378.75" width="19.84" height="19.84"/></g><g id="LWPOLYLINE-273" data-name="LWPOLYLINE"><rect class="cls-1" x="301.34" y="378.75" width="19.84" height="19.84"/></g><g id="LWPOLYLINE-274" data-name="LWPOLYLINE"><rect class="cls-1" x="328.34" y="378.75" width="19.84" height="19.84"/></g><g id="LWPOLYLINE-275" data-name="LWPOLYLINE"><rect class="cls-1" x="355.35" y="378.75" width="19.84" height="19.84"/></g><g id="LWPOLYLINE-276" data-name="LWPOLYLINE"><rect class="cls-1" x="382.36" y="378.75" width="19.84" height="19.84"/></g><g id="LWPOLYLINE-277" data-name="LWPOLYLINE"><rect class="cls-1" x="409.37" y="378.75" width="19.84" height="19.84"/></g><g id="LWPOLYLINE-278" data-name="LWPOLYLINE"><rect class="cls-1" x="436.38" y="378.75" width="19.84" height="19.84"/></g><g id="LWPOLYLINE-279" data-name="LWPOLYLINE"><rect class="cls-1" x="463.38" y="378.75" width="19.84" height="19.84"/></g><g id="LWPOLYLINE-280" data-name="LWPOLYLINE"><rect class="cls-1" x="490.39" y="378.75" width="19.84" height="19.84"/></g><g id="LWPOLYLINE-281" data-name="LWPOLYLINE"><rect class="cls-1" x="517.4" y="378.75" width="19.84" height="19.84"/></g><g id="LWPOLYLINE-282" data-name="LWPOLYLINE"><rect class="cls-1" x="544.41" y="378.75" width="19.84" height="19.84"/></g><g id="LWPOLYLINE-283" data-name="LWPOLYLINE"><rect class="cls-1" x="571.42" y="378.75" width="19.84" height="19.84"/></g><g id="LWPOLYLINE-284" data-name="LWPOLYLINE"><rect class="cls-1" x="598.43" y="378.75" width="19.84" height="19.84"/></g><g id="LWPOLYLINE-285" data-name="LWPOLYLINE"><rect class="cls-1" x="625.43" y="378.75" width="19.84" height="19.84"/></g><g id="LWPOLYLINE-286" data-name="LWPOLYLINE"><rect class="cls-1" x="652.44" y="378.75" width="19.84" height="19.84"/></g><g id="LWPOLYLINE-287" data-name="LWPOLYLINE"><rect class="cls-1" x="679.45" y="378.75" width="19.84" height="19.84"/></g><g id="LWPOLYLINE-288" data-name="LWPOLYLINE"><rect class="cls-1" x="706.46" y="378.75" width="19.84" height="19.84"/></g><g id="LWPOLYLINE-289" data-name="LWPOLYLINE"><rect class="cls-1" x="733.47" y="378.75" width="19.84" height="19.84"/></g><g id="LWPOLYLINE-290" data-name="LWPOLYLINE"><rect class="cls-1" x="760.48" y="378.75" width="19.84" height="19.84"/></g><g id="LWPOLYLINE-291" data-name="LWPOLYLINE"><rect class="cls-1" x="787.48" y="378.75" width="19.84" height="19.84"/></g><g id="LWPOLYLINE-292" data-name="LWPOLYLINE"><rect class="cls-1" x="31.25" y="351.7" width="19.84" height="19.84"/></g><g id="LWPOLYLINE-293" data-name="LWPOLYLINE"><rect class="cls-1" x="58.26" y="351.7" width="19.84" height="19.84"/></g><g id="LWPOLYLINE-294" data-name="LWPOLYLINE"><rect class="cls-1" x="85.27" y="351.7" width="19.84" height="19.84"/></g><g id="LWPOLYLINE-295" data-name="LWPOLYLINE"><rect class="cls-1" x="112.28" y="351.7" width="19.84" height="19.84"/></g><g id="LWPOLYLINE-296" data-name="LWPOLYLINE"><rect class="cls-1" x="139.29" y="351.7" width="19.84" height="19.84"/></g><g id="LWPOLYLINE-297" data-name="LWPOLYLINE"><rect class="cls-1" x="166.29" y="351.7" width="19.84" height="19.84"/></g><g id="LWPOLYLINE-298" data-name="LWPOLYLINE"><rect class="cls-1" x="193.3" y="351.7" width="19.84" height="19.84"/></g><g id="LWPOLYLINE-299" data-name="LWPOLYLINE"><rect class="cls-1" x="220.31" y="351.7" width="19.84" height="19.84"/></g><g id="LWPOLYLINE-300" data-name="LWPOLYLINE"><rect class="cls-1" x="247.32" y="351.7" width="19.84" height="19.84"/></g><g id="LWPOLYLINE-301" data-name="LWPOLYLINE"><rect class="cls-1" x="274.33" y="351.7" width="19.84" height="19.84"/></g><g id="LWPOLYLINE-302" data-name="LWPOLYLINE"><rect class="cls-1" x="301.34" y="351.7" width="19.84" height="19.84"/></g><g id="LWPOLYLINE-303" data-name="LWPOLYLINE"><rect class="cls-1" x="328.34" y="351.7" width="19.84" height="19.84"/></g><g id="LWPOLYLINE-304" data-name="LWPOLYLINE"><rect class="cls-1" x="355.35" y="351.7" width="19.84" height="19.84"/></g><g id="LWPOLYLINE-305" data-name="LWPOLYLINE"><rect class="cls-1" x="382.36" y="351.7" width="19.84" height="19.84"/></g><g id="LWPOLYLINE-306" data-name="LWPOLYLINE"><rect class="cls-1" x="409.37" y="351.7" width="19.84" height="19.84"/></g><g id="LWPOLYLINE-307" data-name="LWPOLYLINE"><rect class="cls-1" x="436.38" y="351.7" width="19.84" height="19.84"/></g><g id="LWPOLYLINE-308" data-name="LWPOLYLINE"><rect class="cls-1" x="463.38" y="351.7" width="19.84" height="19.84"/></g><g id="LWPOLYLINE-309" data-name="LWPOLYLINE"><rect class="cls-1" x="490.39" y="351.7" width="19.84" height="19.84"/></g><g id="LWPOLYLINE-310" data-name="LWPOLYLINE"><rect class="cls-1" x="517.4" y="351.7" width="19.84" height="19.84"/></g><g id="LWPOLYLINE-311" data-name="LWPOLYLINE"><rect class="cls-1" x="544.41" y="351.7" width="19.84" height="19.84"/></g><g id="LWPOLYLINE-312" data-name="LWPOLYLINE"><rect class="cls-1" x="571.42" y="351.7" width="19.84" height="19.84"/></g><g id="LWPOLYLINE-313" data-name="LWPOLYLINE"><rect class="cls-1" x="598.43" y="351.7" width="19.84" height="19.84"/></g><g id="LWPOLYLINE-314" data-name="LWPOLYLINE"><rect class="cls-1" x="625.43" y="351.7" width="19.84" height="19.84"/></g><g id="LWPOLYLINE-315" data-name="LWPOLYLINE"><rect class="cls-1" x="652.44" y="351.7" width="19.84" height="19.84"/></g><g id="LWPOLYLINE-316" data-name="LWPOLYLINE"><rect class="cls-1" x="679.45" y="351.7" width="19.84" height="19.84"/></g><g id="LWPOLYLINE-317" data-name="LWPOLYLINE"><rect class="cls-1" x="706.46" y="351.7" width="19.84" height="19.84"/></g><g id="LWPOLYLINE-318" data-name="LWPOLYLINE"><rect class="cls-1" x="733.47" y="351.7" width="19.84" height="19.84"/></g><g id="LWPOLYLINE-319" data-name="LWPOLYLINE"><rect class="cls-1" x="760.48" y="351.7" width="19.84" height="19.84"/></g><g id="LWPOLYLINE-320" data-name="LWPOLYLINE"><rect class="cls-1" x="787.48" y="351.7" width="19.84" height="19.84"/></g><g id="LWPOLYLINE-321" data-name="LWPOLYLINE"><rect class="cls-1" x="31.25" y="324.65" width="19.84" height="19.84"/></g><g id="LWPOLYLINE-322" data-name="LWPOLYLINE"><rect class="cls-1" x="58.26" y="324.65" width="19.84" height="19.84"/></g><g id="LWPOLYLINE-323" data-name="LWPOLYLINE"><rect class="cls-1" x="85.27" y="324.65" width="19.84" height="19.84"/></g><g id="LWPOLYLINE-324" data-name="LWPOLYLINE"><rect class="cls-1" x="112.28" y="324.65" width="19.84" height="19.84"/></g><g id="LWPOLYLINE-325" data-name="LWPOLYLINE"><rect class="cls-1" x="139.29" y="324.65" width="19.84" height="19.84"/></g><g id="LWPOLYLINE-326" data-name="LWPOLYLINE"><rect class="cls-1" x="166.29" y="324.65" width="19.84" height="19.84"/></g><g id="LWPOLYLINE-327" data-name="LWPOLYLINE"><rect class="cls-1" x="193.3" y="324.65" width="19.84" height="19.84"/></g><g id="LWPOLYLINE-328" data-name="LWPOLYLINE"><rect class="cls-1" x="220.31" y="324.65" width="19.84" height="19.84"/></g><g id="LWPOLYLINE-329" data-name="LWPOLYLINE"><rect class="cls-1" x="247.32" y="324.65" width="19.84" height="19.84"/></g><g id="LWPOLYLINE-330" data-name="LWPOLYLINE"><rect class="cls-1" x="274.33" y="324.65" width="19.84" height="19.84"/></g><g id="LWPOLYLINE-331" data-name="LWPOLYLINE"><rect class="cls-1" x="301.34" y="324.65" width="19.84" height="19.84"/></g><g id="LWPOLYLINE-332" data-name="LWPOLYLINE"><rect class="cls-1" x="328.34" y="324.65" width="19.84" height="19.84"/></g><g id="LWPOLYLINE-333" data-name="LWPOLYLINE"><rect class="cls-1" x="355.35" y="324.65" width="19.84" height="19.84"/></g><g id="LWPOLYLINE-334" data-name="LWPOLYLINE"><rect class="cls-1" x="382.36" y="324.65" width="19.84" height="19.84"/></g><g id="LWPOLYLINE-335" data-name="LWPOLYLINE"><rect class="cls-1" x="409.37" y="324.65" width="19.84" height="19.84"/></g><g id="LWPOLYLINE-336" data-name="LWPOLYLINE"><rect class="cls-1" x="436.38" y="324.65" width="19.84" height="19.84"/></g><g id="LWPOLYLINE-337" data-name="LWPOLYLINE"><rect class="cls-1" x="463.38" y="324.65" width="19.84" height="19.84"/></g><g id="LWPOLYLINE-338" data-name="LWPOLYLINE"><rect class="cls-1" x="490.39" y="324.65" width="19.84" height="19.84"/></g><g id="LWPOLYLINE-339" data-name="LWPOLYLINE"><rect class="cls-1" x="517.4" y="324.65" width="19.84" height="19.84"/></g><g id="LWPOLYLINE-340" data-name="LWPOLYLINE"><rect class="cls-1" x="544.41" y="324.65" width="19.84" height="19.84"/></g><g id="LWPOLYLINE-341" data-name="LWPOLYLINE"><rect class="cls-1" x="571.42" y="324.65" width="19.84" height="19.84"/></g><g id="LWPOLYLINE-342" data-name="LWPOLYLINE"><rect class="cls-1" x="598.43" y="324.65" width="19.84" height="19.84"/></g><g id="LWPOLYLINE-343" data-name="LWPOLYLINE"><rect class="cls-1" x="625.43" y="324.65" width="19.84" height="19.84"/></g><g id="LWPOLYLINE-344" data-name="LWPOLYLINE"><rect class="cls-1" x="652.44" y="324.65" width="19.84" height="19.84"/></g><g id="LWPOLYLINE-345" data-name="LWPOLYLINE"><rect class="cls-1" x="679.45" y="324.65" width="19.84" height="19.84"/></g><g id="LWPOLYLINE-346" data-name="LWPOLYLINE"><rect class="cls-1" x="706.46" y="324.65" width="19.84" height="19.84"/></g><g id="LWPOLYLINE-347" data-name="LWPOLYLINE"><rect class="cls-1" x="733.47" y="324.65" width="19.84" height="19.84"/></g><g id="LWPOLYLINE-348" data-name="LWPOLYLINE"><rect class="cls-1" x="760.48" y="324.65" width="19.84" height="19.84"/></g><g id="LWPOLYLINE-349" data-name="LWPOLYLINE"><rect class="cls-1" x="787.48" y="324.65" width="19.84" height="19.84"/></g></svg>