<svg id="_0" data-name="0" xmlns="http://www.w3.org/2000/svg" viewBox="0 0 1002.16 771.63"><defs><style>.cls-1{fill:none;stroke:#000;stroke-linecap:round;stroke-linejoin:round;stroke-width:3px;}</style></defs><title>ProjectorPlate</title><g id="LINE"><line class="cls-1" x1="821.37" y1="129.6" x2="821.37" y2="610"/></g><g id="LINE-2" data-name="LINE"><line class="cls-1" x1="821.37" y1="770.13" x2="180.85" y2="770.13"/></g><g id="LINE-3" data-name="LINE"><line class="cls-1" x1="180.85" y1="610" x2="180.85" y2="129.6"/></g><g id="LINE-4" data-name="LINE"><line class="cls-1" x1="180.85" y1="770.13" x2="65.55" y2="770.13"/></g><g id="LINE-5" data-name="LINE"><line class="cls-1" x1="52.74" y1="768.83" x2="52.74" y2="768.83"/></g><g id="LINE-6" data-name="LINE"><line class="cls-1" x1="65.55" y1="642.02" x2="148.82" y2="642.02"/></g><g id="LINE-7" data-name="LINE"><line class="cls-1" x1="821.37" y1="770.13" x2="936.66" y2="770.13"/></g><g id="LINE-8" data-name="LINE"><line class="cls-1" x1="1000.66" y1="708.83" x2="1000.66" y2="703.32"/></g><g id="LINE-9" data-name="LINE"><line class="cls-1" x1="936.66" y1="642.02" x2="853.4" y2="642.02"/></g><g id="CIRCLE"><path class="cls-1" d="M1098.09,704.26a20.5,20.5,0,1,1,20.5,20.5,20.5,20.5,0,0,1-20.5-20.5Z" transform="translate(-181.92 1.81)"/></g><g id="CIRCLE-2" data-name="CIRCLE"><path class="cls-1" d="M227,704.26a20.5,20.5,0,1,1,20.49,20.5A20.49,20.49,0,0,1,227,704.26Z" transform="translate(-181.92 1.81)"/></g><g id="CIRCLE-3" data-name="CIRCLE"><path class="cls-1" d="M666.7,460.86A16.33,16.33,0,1,1,683,477.2a16.33,16.33,0,0,1-16.33-16.34Z" transform="translate(-181.92 1.81)"/></g><g id="LWPOLYLINE"><path class="cls-1" d="M882.69,255.9H483.37a12.81,12.81,0,0,0-9.06,21.86L516.49,320H849.57l42.18-42.19a12.81,12.81,0,0,0-9.06-21.86Z" transform="translate(-181.92 1.81)"/></g><g id="LWPOLYLINE-2" data-name="LWPOLYLINE"><path class="cls-1" d="M483.37,704.26H882.69a12.81,12.81,0,0,0,9.06-21.87l-42.18-42.18H516.49l-42.18,42.18a12.81,12.81,0,0,0,9.06,21.87Z" transform="translate(-181.92 1.81)"/></g><g id="LWPOLYLINE-3" data-name="LWPOLYLINE"><polygon class="cls-1" points="693.26 616.4 693.26 347.38 731.7 308.95 731.7 654.83 693.26 616.4"/></g><g id="LWPOLYLINE-4" data-name="LWPOLYLINE"><polygon class="cls-1" points="308.95 347.38 308.95 616.4 270.52 654.83 270.52 308.95 308.95 347.38"/></g><g id="ARC"><path class="cls-1" d="M330.74,640.21a32,32,0,0,0,32-32" transform="translate(-181.92 1.81)"/></g><g id="ARC-2" data-name="ARC"><path class="cls-1" d="M1003.29,608.18a32,32,0,0,0,32,32" transform="translate(-181.92 1.81)"/></g><g id="ARC-3" data-name="ARC"><path class="cls-1" d="M247.47,640.21A64.05,64.05,0,0,0,234.66,767" transform="translate(-181.92 1.81)"/></g><g id="ARC-4" data-name="ARC"><path class="cls-1" d="M1182.58,701.5a64.05,64.05,0,0,0-64-61.29" transform="translate(-181.92 1.81)"/></g><g id="ARC-5" data-name="ARC"><path class="cls-1" d="M234.66,767a64.14,64.14,0,0,0,12.81,1.29" transform="translate(-181.92 1.81)"/></g><g id="ARC-6" data-name="ARC"><path class="cls-1" d="M1118.59,768.31a64.05,64.05,0,0,0,64-61.29" transform="translate(-181.92 1.81)"/></g><g id="LINE-10" data-name="LINE"><line class="cls-1" x1="180.85" y1="1.5" x2="488.3" y2="1.5"/></g><g id="LINE-11" data-name="LINE"><line class="cls-1" x1="180.85" y1="129.6" x2="180.85" y2="1.5"/></g><g id="LINE-12" data-name="LINE"><line class="cls-1" x1="513.92" y1="1.5" x2="821.37" y2="1.5"/></g><g id="LINE-13" data-name="LINE"><line class="cls-1" x1="821.37" y1="1.5" x2="821.37" y2="129.6"/></g><g id="CIRCLE-4" data-name="CIRCLE"><path class="cls-1" d="M666.7,524.92A16.33,16.33,0,1,1,683,541.25a16.33,16.33,0,0,1-16.33-16.33Z" transform="translate(-181.92 1.81)"/></g><g id="CIRCLE-5" data-name="CIRCLE"><path class="cls-1" d="M666.7,396.81A16.33,16.33,0,1,1,683,413.14a16.33,16.33,0,0,1-16.33-16.33Z" transform="translate(-181.92 1.81)"/></g><g id="CIRCLE-6" data-name="CIRCLE"><path class="cls-1" d="M666.7,589A16.33,16.33,0,1,1,683,605.3,16.34,16.34,0,0,1,666.7,589Z" transform="translate(-181.92 1.81)"/></g><g id="LINE-14" data-name="LINE"><line class="cls-1" x1="513.92" y1="1.5" x2="488.3" y2="1.5"/></g></svg>