<svg id="_0" data-name="0" xmlns="http://www.w3.org/2000/svg" viewBox="0 0 1369.67 149.43"><defs><style>.cls-1{fill:none;stroke:#000;stroke-linecap:round;stroke-linejoin:round;stroke-width:3px;}</style></defs><title>Rail</title><g id="LWPOLYLINE"><path class="cls-1" d="M121.69,457.21H1244.31a24.39,24.39,0,0,0,24.4-24.4V408.4h48.81a48.81,48.81,0,1,0,0-97.61H48.48a48.81,48.81,0,1,0,0,97.61H97.29v24.41A24.39,24.39,0,0,0,121.69,457.21Z" transform="translate(1.83 -309.29)"/></g><g id="CIRCLE"><path class="cls-1" d="M1305.32,359.6a12.21,12.21,0,1,1,12.2,12.2,12.21,12.21,0,0,1-12.2-12.2Z" transform="translate(1.83 -309.29)"/></g><g id="CIRCLE-2" data-name="CIRCLE"><path class="cls-1" d="M36.27,359.6a12.21,12.21,0,1,1,12.21,12.2,12.21,12.21,0,0,1-12.21-12.2Z" transform="translate(1.83 -309.29)"/></g><g id="LWPOLYLINE-2" data-name="LWPOLYLINE"><path class="cls-1" d="M102.17,330.31v58.57a4.89,4.89,0,0,1-9.77,0V330.31a4.89,4.89,0,0,1,9.77,0Z" transform="translate(1.83 -309.29)"/></g><g id="LINE"><line class="cls-1" x1="1275.43" y1="79.7" x2="1275.43" y2="20.92"/></g><g id="ARC"><path class="cls-1" d="M1273.6,330.21a4.89,4.89,0,0,0-9.77,0" transform="translate(1.83 -309.29)"/></g><g id="LINE-2" data-name="LINE"><line class="cls-1" x1="1265.67" y1="20.92" x2="1265.67" y2="79.7"/></g><g id="ARC-2" data-name="ARC"><path class="cls-1" d="M1263.83,389a4.89,4.89,0,0,0,9.77,0" transform="translate(1.83 -309.29)"/></g><g id="LWPOLYLINE-3" data-name="LWPOLYLINE"><path class="cls-1" d="M190,413.29H116.81a4.89,4.89,0,0,1,0-9.77H190a4.89,4.89,0,0,1,0,9.77Z" transform="translate(1.83 -309.29)"/></g><g id="LWPOLYLINE-4" data-name="LWPOLYLINE"><path class="cls-1" d="M286.31,413.29H213.1a4.89,4.89,0,0,1,0-9.77h73.21a4.89,4.89,0,0,1,0,9.77Z" transform="translate(1.83 -309.29)"/></g><g id="LWPOLYLINE-5" data-name="LWPOLYLINE"><path class="cls-1" d="M382.6,413.29H309.39a4.89,4.89,0,1,1,0-9.77H382.6a4.89,4.89,0,0,1,0,9.77Z" transform="translate(1.83 -309.29)"/></g><g id="LWPOLYLINE-6" data-name="LWPOLYLINE"><path class="cls-1" d="M478.89,413.29H405.67a4.89,4.89,0,0,1,0-9.77h73.22a4.89,4.89,0,0,1,0,9.77Z" transform="translate(1.83 -309.29)"/></g><g id="LWPOLYLINE-7" data-name="LWPOLYLINE"><path class="cls-1" d="M575.18,413.29H502a4.89,4.89,0,0,1,0-9.77h73.22a4.89,4.89,0,0,1,0,9.77Z" transform="translate(1.83 -309.29)"/></g><g id="LWPOLYLINE-8" data-name="LWPOLYLINE"><path class="cls-1" d="M671.46,413.29H598.25a4.89,4.89,0,0,1,0-9.77h73.21a4.89,4.89,0,0,1,0,9.77Z" transform="translate(1.83 -309.29)"/></g><g id="LWPOLYLINE-9" data-name="LWPOLYLINE"><path class="cls-1" d="M767.75,413.29H694.54a4.89,4.89,0,0,1,0-9.77h73.21a4.89,4.89,0,0,1,0,9.77Z" transform="translate(1.83 -309.29)"/></g><g id="LWPOLYLINE-10" data-name="LWPOLYLINE"><path class="cls-1" d="M864,413.29H790.82a4.89,4.89,0,0,1,0-9.77H864a4.89,4.89,0,0,1,0,9.77Z" transform="translate(1.83 -309.29)"/></g><g id="LWPOLYLINE-11" data-name="LWPOLYLINE"><path class="cls-1" d="M960.33,413.29H887.11a4.89,4.89,0,0,1,0-9.77h73.22a4.89,4.89,0,0,1,0,9.77Z" transform="translate(1.83 -309.29)"/></g><g id="LWPOLYLINE-12" data-name="LWPOLYLINE"><path class="cls-1" d="M1056.61,413.29H983.4a4.89,4.89,0,0,1,0-9.77h73.21a4.89,4.89,0,1,1,0,9.77Z" transform="translate(1.83 -309.29)"/></g><g id="LWPOLYLINE-13" data-name="LWPOLYLINE"><path class="cls-1" d="M1152.9,413.29h-73.21a4.89,4.89,0,0,1,0-9.77h73.21a4.89,4.89,0,0,1,0,9.77Z" transform="translate(1.83 -309.29)"/></g><g id="LWPOLYLINE-14" data-name="LWPOLYLINE"><path class="cls-1" d="M1249.19,413.29H1176a4.89,4.89,0,0,1,0-9.77h73.21a4.89,4.89,0,0,1,0,9.77Z" transform="translate(1.83 -309.29)"/></g></svg>