<svg id="_0" data-name="0" xmlns="http://www.w3.org/2000/svg" viewBox="0 0 242.53 771.63"><defs><style>.cls-1{fill:none;stroke:#000;stroke-linecap:round;stroke-linejoin:round;stroke-width:3px;}</style></defs><title>Rib</title><g id="LINE"><line class="cls-1" x1="109.01" y1="549.34" x2="143.36" y2="643.7"/></g><g id="LINE-2" data-name="LINE"><line class="cls-1" x1="109.01" y1="222.29" x2="143.36" y2="127.93"/></g><g id="LINE-3" data-name="LINE"><line class="cls-1" x1="148.56" y1="118.91" x2="239.8" y2="10.18"/></g><g id="LINE-4" data-name="LINE"><line class="cls-1" x1="148.56" y1="652.71" x2="239.8" y2="761.44"/></g><g id="LINE-5" data-name="LINE"><line class="cls-1" x1="1.5" y1="547.42" x2="1.5" y2="224.05"/></g><g id="LINE-6" data-name="LINE"><line class="cls-1" x1="235.75" y1="770.13" x2="220.6" y2="770.13"/></g><g id="LINE-7" data-name="LINE"><line class="cls-1" x1="235.75" y1="1.5" x2="222.74" y2="1.5"/></g><g id="LINE-8" data-name="LINE"><line class="cls-1" x1="92.23" y1="676.12" x2="65.71" y2="620.26"/></g><g id="LINE-9" data-name="LINE"><line class="cls-1" x1="35.3" y1="592.99" x2="33.46" y2="592.36"/></g><g id="LINE-10" data-name="LINE"><line class="cls-1" x1="69.07" y1="148.9" x2="91.79" y2="96.94"/></g><g id="LINE-11" data-name="LINE"><line class="cls-1" x1="36.18" y1="178.25" x2="35.09" y2="178.58"/></g><g id="ARC"><path class="cls-1" d="M654,674.31a53,53,0,0,0,7.19,11.23" transform="translate(-561.73 1.81)"/></g><g id="ARC-2" data-name="ARC"><path class="cls-1" d="M661.17,82.67a53.12,53.12,0,0,0-7.65,12.45" transform="translate(-561.73 1.81)"/></g><g id="ARC-3" data-name="ARC"><path class="cls-1" d="M597.91,176.43a52.86,52.86,0,0,0,32.89-29.34" transform="translate(-561.73 1.81)"/></g><g id="ARC-4" data-name="ARC"><path class="cls-1" d="M627.44,618.44A52.87,52.87,0,0,0,597,591.18" transform="translate(-561.73 1.81)"/></g><g id="ARC-5" data-name="ARC"><path class="cls-1" d="M596.82,176.77a47.57,47.57,0,0,0-33.59,45.46" transform="translate(-561.73 1.81)"/></g><g id="ARC-6" data-name="ARC"><path class="cls-1" d="M563.23,545.61a47.56,47.56,0,0,0,32,44.93" transform="translate(-561.73 1.81)"/></g><g id="ARC-7" data-name="ARC"><path class="cls-1" d="M801.53,8.37a5.28,5.28,0,0,0-4-8.68" transform="translate(-561.73 1.81)"/></g><g id="ARC-8" data-name="ARC"><path class="cls-1" d="M797.48,768.31a5.28,5.28,0,0,0,4-8.68" transform="translate(-561.73 1.81)"/></g><g id="LINE-12" data-name="LINE"><line class="cls-1" x1="144.8" y1="702.94" x2="220.6" y2="770.13"/></g><g id="LINE-13" data-name="LINE"><line class="cls-1" x1="145.7" y1="69" x2="222.74" y2="1.5"/></g><g id="ARC-9" data-name="ARC"><path class="cls-1" d="M661.15,685.54a26.43,26.43,0,0,0,24.07,9.2" transform="translate(-561.73 1.81)"/></g><g id="ARC-10" data-name="ARC"><path class="cls-1" d="M685.79,73.4a26.45,26.45,0,0,0-24.62,9.27" transform="translate(-561.73 1.81)"/></g><g id="ARC-11" data-name="ARC"><path class="cls-1" d="M685.79,73.4a26.43,26.43,0,0,0,21.64-6.21" transform="translate(-561.73 1.81)"/></g><g id="ARC-12" data-name="ARC"><path class="cls-1" d="M706.53,701.12a26.44,26.44,0,0,0-21.31-6.38" transform="translate(-561.73 1.81)"/></g><g id="CIRCLE"><path class="cls-1" d="M668.22,668.59a13.21,13.21,0,1,1,13.21,13.21,13.2,13.2,0,0,1-13.21-13.21Z" transform="translate(-561.73 1.81)"/></g><g id="CIRCLE-2" data-name="CIRCLE"><path class="cls-1" d="M668.35,99.48a13.21,13.21,0,1,1,13.21,13.22,13.21,13.21,0,0,1-13.21-13.22Z" transform="translate(-561.73 1.81)"/></g><g id="LWPOLYLINE"><path class="cls-1" d="M680.67,125.9l-25.86,71.36a47.55,47.55,0,0,0-23.47-17l28.93-65.15A26.46,26.46,0,0,0,680.67,125.9Z" transform="translate(-561.73 1.81)"/></g><g id="LWPOLYLINE-2" data-name="LWPOLYLINE"><path class="cls-1" d="M630.87,588l29.78,64.3a26.41,26.41,0,0,1,20.56-10.09L654.72,571A47.47,47.47,0,0,1,630.87,588Z" transform="translate(-561.73 1.81)"/></g><g id="ARC-13" data-name="ARC"><path class="cls-1" d="M661.15,685.54a26.43,26.43,0,0,0,24.07,9.2" transform="translate(-561.73 1.81)"/></g><g id="LINE-14" data-name="LINE"><line class="cls-1" x1="108.56" y1="94.4" x2="107.15" y2="97.56"/></g><g id="ARC-14" data-name="ARC"><path class="cls-1" d="M685.79,73.4a26.45,26.45,0,0,0-24.62,9.27" transform="translate(-561.73 1.81)"/></g><g id="ARC-15" data-name="ARC"><path class="cls-1" d="M705.09,641.89a5.28,5.28,0,1,0,3.62,9.93,5.41,5.41,0,0,0,1.59-.92" transform="translate(-561.73 1.81)"/></g><g id="ARC-16" data-name="ARC"><path class="cls-1" d="M668.94,537.27a5.29,5.29,0,1,0,1.8,10.25" transform="translate(-561.73 1.81)"/></g><g id="ARC-17" data-name="ARC"><path class="cls-1" d="M670.74,220.48a5.28,5.28,0,1,0-1.8,10.25" transform="translate(-561.73 1.81)"/></g><g id="ARC-18" data-name="ARC"><path class="cls-1" d="M710.3,117.1a5.29,5.29,0,0,0-6.8,8.1,5.34,5.34,0,0,0,1.59.91" transform="translate(-561.73 1.81)"/></g><g id="CIRCLE-3" data-name="CIRCLE"><path class="cls-1" d="M603.88,383.92a13.22,13.22,0,1,1,13.22,13.21,13.21,13.21,0,0,1-13.22-13.21Z" transform="translate(-561.73 1.81)"/></g><g id="LINE-15" data-name="LINE"><line class="cls-1" x1="93.99" y1="301.3" x2="93.99" y2="470.43"/></g><g id="ARC-19" data-name="ARC"><path class="cls-1" d="M655.72,468.62a13.22,13.22,0,0,0,13.22,13.21" transform="translate(-561.73 1.81)"/></g><g id="ARC-20" data-name="ARC"><path class="cls-1" d="M668.94,286.28a13.21,13.21,0,0,0-13.22,13.21" transform="translate(-561.73 1.81)"/></g><g id="LINE-16" data-name="LINE"><line class="cls-1" x1="107.2" y1="232.54" x2="107.2" y2="288.09"/></g><g id="LINE-17" data-name="LINE"><line class="cls-1" x1="107.2" y1="483.64" x2="107.2" y2="539.08"/></g><g id="CIRCLE-4" data-name="CIRCLE"><path class="cls-1" d="M603.32,542.61a13.21,13.21,0,1,1,13.21,13.21,13.2,13.2,0,0,1-13.21-13.21Z" transform="translate(-561.73 1.81)"/></g><g id="CIRCLE-5" data-name="CIRCLE"><path class="cls-1" d="M603.32,225.5a13.21,13.21,0,1,1,13.21,13.21,13.21,13.21,0,0,1-13.21-13.21Z" transform="translate(-561.73 1.81)"/></g><g id="CIRCLE-6" data-name="CIRCLE"><path class="cls-1" d="M600,468.62a16.53,16.53,0,1,1,16.53,16.53A16.54,16.54,0,0,1,600,468.62Z" transform="translate(-561.73 1.81)"/></g><g id="CIRCLE-7" data-name="CIRCLE"><path class="cls-1" d="M600,299.49A16.54,16.54,0,1,1,616.53,316,16.53,16.53,0,0,1,600,299.49Z" transform="translate(-561.73 1.81)"/></g></svg>