<svg id="_0" data-name="0" xmlns="http://www.w3.org/2000/svg" viewBox="0 0 1369.67 646.42"><defs><style>.cls-1{fill:none;stroke:#000;stroke-linecap:round;stroke-linejoin:round;stroke-width:3px;}</style></defs><title>Shade</title><g id="LINE"><line class="cls-1" x1="181.86" y1="1.5" x2="1187.2" y2="1.5"/></g><g id="LINE-2" data-name="LINE"><line class="cls-1" x1="1187.2" y1="644.92" x2="181.86" y2="644.92"/></g><g id="ARC"><path class="cls-1" d="M1245.69,122.61a60.32,60.32,0,0,0-60.32-60.32" transform="translate(1.83 -60.79)"/></g><g id="ARC-2" data-name="ARC"><path class="cls-1" d="M1185.37,705.71a60.32,60.32,0,0,0,60.32-60.32" transform="translate(1.83 -60.79)"/></g><g id="ARC-3" data-name="ARC"><path class="cls-1" d="M119.7,645.39A60.32,60.32,0,0,0,180,705.71" transform="translate(1.83 -60.79)"/></g><g id="ARC-4" data-name="ARC"><path class="cls-1" d="M180,62.29a60.32,60.32,0,0,0-60.32,60.32" transform="translate(1.83 -60.79)"/></g><g id="LWPOLYLINE"><path class="cls-1" d="M200.13,187H139.81a4,4,0,0,1,0-8h60.32a4,4,0,1,1,0,8Z" transform="translate(1.83 -60.79)"/></g><g id="LWPOLYLINE-2" data-name="LWPOLYLINE"><path class="cls-1" d="M279,187H218.71a4,4,0,0,1,0-8H279a4,4,0,1,1,0,8Z" transform="translate(1.83 -60.79)"/></g><g id="LWPOLYLINE-3" data-name="LWPOLYLINE"><path class="cls-1" d="M357.93,187H297.61a4,4,0,0,1,0-8h60.32a4,4,0,0,1,0,8Z" transform="translate(1.83 -60.79)"/></g><g id="LWPOLYLINE-4" data-name="LWPOLYLINE"><path class="cls-1" d="M436.83,187H376.51a4,4,0,1,1,0-8h60.32a4,4,0,1,1,0,8Z" transform="translate(1.83 -60.79)"/></g><g id="LWPOLYLINE-5" data-name="LWPOLYLINE"><path class="cls-1" d="M515.73,187H455.41a4,4,0,0,1,0-8h60.32a4,4,0,0,1,0,8Z" transform="translate(1.83 -60.79)"/></g><g id="LWPOLYLINE-6" data-name="LWPOLYLINE"><path class="cls-1" d="M594.63,187H534.31a4,4,0,1,1,0-8h60.32a4,4,0,0,1,0,8Z" transform="translate(1.83 -60.79)"/></g><g id="LWPOLYLINE-7" data-name="LWPOLYLINE"><path class="cls-1" d="M673.53,187H613.21a4,4,0,1,1,0-8h60.32a4,4,0,0,1,0,8Z" transform="translate(1.83 -60.79)"/></g><g id="LWPOLYLINE-8" data-name="LWPOLYLINE"><path class="cls-1" d="M752.43,187H692.11a4,4,0,1,1,0-8h60.32a4,4,0,1,1,0,8Z" transform="translate(1.83 -60.79)"/></g><g id="LWPOLYLINE-9" data-name="LWPOLYLINE"><path class="cls-1" d="M831.33,187H771a4,4,0,1,1,0-8h60.32a4,4,0,0,1,0,8Z" transform="translate(1.83 -60.79)"/></g><g id="LWPOLYLINE-10" data-name="LWPOLYLINE"><path class="cls-1" d="M910.23,187H849.91a4,4,0,1,1,0-8h60.32a4,4,0,0,1,0,8Z" transform="translate(1.83 -60.79)"/></g><g id="LWPOLYLINE-11" data-name="LWPOLYLINE"><path class="cls-1" d="M989.13,187H928.81a4,4,0,1,1,0-8h60.32a4,4,0,0,1,0,8Z" transform="translate(1.83 -60.79)"/></g><g id="LWPOLYLINE-12" data-name="LWPOLYLINE"><path class="cls-1" d="M1068,187h-60.32a4,4,0,1,1,0-8H1068a4,4,0,0,1,0,8Z" transform="translate(1.83 -60.79)"/></g><g id="LWPOLYLINE-13" data-name="LWPOLYLINE"><path class="cls-1" d="M1146.93,187h-60.32a4,4,0,1,1,0-8h60.32a4,4,0,0,1,0,8Z" transform="translate(1.83 -60.79)"/></g><g id="LWPOLYLINE-14" data-name="LWPOLYLINE"><path class="cls-1" d="M1225.83,187H1165.5a4,4,0,1,1,0-8h60.33a4,4,0,0,1,0,8Z" transform="translate(1.83 -60.79)"/></g><g id="LWPOLYLINE-15" data-name="LWPOLYLINE"><path class="cls-1" d="M200.13,267.38H139.81a4,4,0,0,1,0-8h60.32a4,4,0,0,1,0,8Z" transform="translate(1.83 -60.79)"/></g><g id="LWPOLYLINE-16" data-name="LWPOLYLINE"><path class="cls-1" d="M200.13,508.66H139.81a4,4,0,0,1,0-8h60.32a4,4,0,0,1,0,8Z" transform="translate(1.83 -60.79)"/></g><g id="LWPOLYLINE-17" data-name="LWPOLYLINE"><path class="cls-1" d="M218.71,259.34H279a4,4,0,0,1,0,8H218.71a4,4,0,0,1,0-8Z" transform="translate(1.83 -60.79)"/></g><g id="LWPOLYLINE-18" data-name="LWPOLYLINE"><path class="cls-1" d="M218.71,500.62H279a4,4,0,1,1,0,8H218.71a4,4,0,1,1,0-8Z" transform="translate(1.83 -60.79)"/></g><g id="LWPOLYLINE-19" data-name="LWPOLYLINE"><path class="cls-1" d="M297.61,259.34h60.32a4,4,0,0,1,0,8H297.61a4,4,0,0,1,0-8Z" transform="translate(1.83 -60.79)"/></g><g id="LWPOLYLINE-20" data-name="LWPOLYLINE"><path class="cls-1" d="M297.61,500.62h60.32a4,4,0,0,1,0,8H297.61a4,4,0,0,1,0-8Z" transform="translate(1.83 -60.79)"/></g><g id="LWPOLYLINE-21" data-name="LWPOLYLINE"><path class="cls-1" d="M376.51,259.34h60.32a4,4,0,1,1,0,8H376.51a4,4,0,0,1,0-8Z" transform="translate(1.83 -60.79)"/></g><g id="LWPOLYLINE-22" data-name="LWPOLYLINE"><path class="cls-1" d="M376.51,500.62h60.32a4,4,0,1,1,0,8H376.51a4,4,0,1,1,0-8Z" transform="translate(1.83 -60.79)"/></g><g id="LWPOLYLINE-23" data-name="LWPOLYLINE"><path class="cls-1" d="M455.41,259.34h60.32a4,4,0,0,1,0,8H455.41a4,4,0,0,1,0-8Z" transform="translate(1.83 -60.79)"/></g><g id="LWPOLYLINE-24" data-name="LWPOLYLINE"><path class="cls-1" d="M455.41,500.62h60.32a4,4,0,0,1,0,8H455.41a4,4,0,1,1,0-8Z" transform="translate(1.83 -60.79)"/></g><g id="LWPOLYLINE-25" data-name="LWPOLYLINE"><path class="cls-1" d="M534.31,259.34h60.32a4,4,0,0,1,0,8H534.31a4,4,0,1,1,0-8Z" transform="translate(1.83 -60.79)"/></g><g id="LWPOLYLINE-26" data-name="LWPOLYLINE"><path class="cls-1" d="M534.31,500.62h60.32a4,4,0,0,1,0,8H534.31a4,4,0,1,1,0-8Z" transform="translate(1.83 -60.79)"/></g><g id="LWPOLYLINE-27" data-name="LWPOLYLINE"><path class="cls-1" d="M613.21,259.34h60.32a4,4,0,0,1,0,8H613.21a4,4,0,1,1,0-8Z" transform="translate(1.83 -60.79)"/></g><g id="LWPOLYLINE-28" data-name="LWPOLYLINE"><path class="cls-1" d="M613.21,500.62h60.32a4,4,0,0,1,0,8H613.21a4,4,0,1,1,0-8Z" transform="translate(1.83 -60.79)"/></g><g id="LWPOLYLINE-29" data-name="LWPOLYLINE"><path class="cls-1" d="M692.11,259.34h60.32a4,4,0,1,1,0,8H692.11a4,4,0,1,1,0-8Z" transform="translate(1.83 -60.79)"/></g><g id="LWPOLYLINE-30" data-name="LWPOLYLINE"><path class="cls-1" d="M692.11,500.62h60.32a4,4,0,1,1,0,8H692.11a4,4,0,1,1,0-8Z" transform="translate(1.83 -60.79)"/></g><g id="LWPOLYLINE-31" data-name="LWPOLYLINE"><path class="cls-1" d="M771,259.34h60.32a4,4,0,0,1,0,8H771a4,4,0,1,1,0-8Z" transform="translate(1.83 -60.79)"/></g><g id="LWPOLYLINE-32" data-name="LWPOLYLINE"><path class="cls-1" d="M771,500.62h60.32a4,4,0,0,1,0,8H771a4,4,0,1,1,0-8Z" transform="translate(1.83 -60.79)"/></g><g id="LWPOLYLINE-33" data-name="LWPOLYLINE"><path class="cls-1" d="M849.91,259.34h60.32a4,4,0,0,1,0,8H849.91a4,4,0,1,1,0-8Z" transform="translate(1.83 -60.79)"/></g><g id="LWPOLYLINE-34" data-name="LWPOLYLINE"><path class="cls-1" d="M849.91,500.62h60.32a4,4,0,0,1,0,8H849.91a4,4,0,1,1,0-8Z" transform="translate(1.83 -60.79)"/></g><g id="LWPOLYLINE-35" data-name="LWPOLYLINE"><path class="cls-1" d="M928.81,259.34h60.32a4,4,0,0,1,0,8H928.81a4,4,0,1,1,0-8Z" transform="translate(1.83 -60.79)"/></g><g id="LWPOLYLINE-36" data-name="LWPOLYLINE"><path class="cls-1" d="M928.81,500.62h60.32a4,4,0,0,1,0,8H928.81a4,4,0,1,1,0-8Z" transform="translate(1.83 -60.79)"/></g><g id="LWPOLYLINE-37" data-name="LWPOLYLINE"><path class="cls-1" d="M1007.71,259.34H1068a4,4,0,0,1,0,8h-60.32a4,4,0,1,1,0-8Z" transform="translate(1.83 -60.79)"/></g><g id="LWPOLYLINE-38" data-name="LWPOLYLINE"><path class="cls-1" d="M1007.71,500.62H1068a4,4,0,0,1,0,8h-60.32a4,4,0,1,1,0-8Z" transform="translate(1.83 -60.79)"/></g><g id="LWPOLYLINE-39" data-name="LWPOLYLINE"><path class="cls-1" d="M1086.61,259.34h60.32a4,4,0,0,1,0,8h-60.32a4,4,0,1,1,0-8Z" transform="translate(1.83 -60.79)"/></g><g id="LWPOLYLINE-40" data-name="LWPOLYLINE"><path class="cls-1" d="M1086.61,500.62h60.32a4,4,0,0,1,0,8h-60.32a4,4,0,1,1,0-8Z" transform="translate(1.83 -60.79)"/></g><g id="LWPOLYLINE-41" data-name="LWPOLYLINE"><path class="cls-1" d="M1165.5,259.34h60.33a4,4,0,0,1,0,8H1165.5a4,4,0,1,1,0-8Z" transform="translate(1.83 -60.79)"/></g><g id="LWPOLYLINE-42" data-name="LWPOLYLINE"><path class="cls-1" d="M1165.5,500.62h60.33a4,4,0,0,1,0,8H1165.5a4,4,0,1,1,0-8Z" transform="translate(1.83 -60.79)"/></g><g id="LINE-3" data-name="LINE"><line class="cls-1" x1="1287.74" y1="283" x2="1285.14" y2="283"/></g><g id="LINE-4" data-name="LINE"><line class="cls-1" x1="1285.22" y1="363.82" x2="1287.74" y2="363.82"/></g><g id="LINE-5" data-name="LINE"><line class="cls-1" x1="83.92" y1="283" x2="81.32" y2="283"/></g><g id="LINE-6" data-name="LINE"><line class="cls-1" x1="81.32" y1="363.43" x2="83.72" y2="363.43"/></g><g id="ARC-5" data-name="ARC"><path class="cls-1" d="M1290.1,344a39.07,39.07,0,0,0-4.19-.22" transform="translate(1.83 -60.79)"/></g><g id="ARC-6" data-name="ARC"><path class="cls-1" d="M1285.91,424.61c1.27,0,2.54-.06,3.8-.18" transform="translate(1.83 -60.79)"/></g><g id="LINE-7" data-name="LINE"><line class="cls-1" x1="1277.67" y1="277.94" x2="1247.52" y2="202.57"/></g><g id="LINE-8" data-name="LINE"><line class="cls-1" x1="1277.76" y1="368.86" x2="1247.52" y2="443.85"/></g><g id="LINE-9" data-name="LINE"><line class="cls-1" x1="91.18" y1="368.46" x2="121.53" y2="443.85"/></g><g id="LINE-10" data-name="LINE"><line class="cls-1" x1="91.39" y1="277.94" x2="121.53" y2="202.57"/></g><g id="LINE-11" data-name="LINE"><line class="cls-1" x1="1247.52" y1="61.82" x2="1247.52" y2="202.57"/></g><g id="LINE-12" data-name="LINE"><line class="cls-1" x1="1247.52" y1="443.85" x2="1247.52" y2="584.6"/></g><g id="LINE-13" data-name="LINE"><line class="cls-1" x1="121.53" y1="584.6" x2="121.53" y2="443.85"/></g><g id="LINE-14" data-name="LINE"><line class="cls-1" x1="121.53" y1="202.57" x2="121.53" y2="61.82"/></g><g id="LINE-15" data-name="LINE"><line class="cls-1" x1="164.59" y1="607.55" x2="204.81" y2="567.34"/></g><g id="ARC-7" data-name="ARC"><path class="cls-1" d="M203,628.13a4,4,0,0,0-5.68-5.69" transform="translate(1.83 -60.79)"/></g><g id="LINE-16" data-name="LINE"><line class="cls-1" x1="199.12" y1="561.65" x2="158.9" y2="601.87"/></g><g id="ARC-8" data-name="ARC"><path class="cls-1" d="M157.07,662.65a4,4,0,0,0,5.69,5.69" transform="translate(1.83 -60.79)"/></g><g id="LWPOLYLINE-43" data-name="LWPOLYLINE"><path class="cls-1" d="M1168.11,622.44l40.21,40.21a4,4,0,0,1-5.69,5.69l-40.21-40.21a4,4,0,1,1,5.69-5.69Z" transform="translate(1.83 -60.79)"/></g><g id="LWPOLYLINE-44" data-name="LWPOLYLINE"><path class="cls-1" d="M1162.42,139.87l40.21-40.21a4,4,0,0,1,5.69,5.69l-40.21,40.21a4,4,0,1,1-5.69-5.69Z" transform="translate(1.83 -60.79)"/></g><g id="LINE-17" data-name="LINE"><line class="cls-1" x1="158.9" y1="44.56" x2="199.12" y2="84.77"/></g><g id="ARC-9" data-name="ARC"><path class="cls-1" d="M197.29,145.56a4,4,0,0,0,5.68-5.69" transform="translate(1.83 -60.79)"/></g><g id="LINE-18" data-name="LINE"><line class="cls-1" x1="204.81" y1="79.08" x2="164.59" y2="38.87"/></g><g id="ARC-10" data-name="ARC"><path class="cls-1" d="M162.76,99.66a4,4,0,0,0-5.69,5.69" transform="translate(1.83 -60.79)"/></g><g id="ARC-11" data-name="ARC"><path class="cls-1" d="M639.64,421.37a4,4,0,1,0,5.69,5.69" transform="translate(1.83 -60.79)"/></g><g id="ARC-12" data-name="ARC"><path class="cls-1" d="M725.75,346.63a4,4,0,1,0-5.68-5.69" transform="translate(1.83 -60.79)"/></g><g id="ARC-13" data-name="ARC"><path class="cls-1" d="M720.07,427.06a4,4,0,1,0,5.68-5.69" transform="translate(1.83 -60.79)"/></g><g id="ARC-14" data-name="ARC"><path class="cls-1" d="M645.33,340.94a4,4,0,1,0-5.69,5.69" transform="translate(1.83 -60.79)"/></g><g id="LINE-19" data-name="LINE"><line class="cls-1" x1="721.9" y1="280.15" x2="684.53" y2="317.52"/></g><g id="LINE-20" data-name="LINE"><line class="cls-1" x1="678.84" y1="323.21" x2="641.47" y2="360.58"/></g><g id="LINE-21" data-name="LINE"><line class="cls-1" x1="727.59" y1="360.58" x2="690.22" y2="323.21"/></g><g id="LINE-22" data-name="LINE"><line class="cls-1" x1="684.53" y1="317.52" x2="647.16" y2="280.15"/></g><g id="LINE-23" data-name="LINE"><line class="cls-1" x1="647.16" y1="366.27" x2="684.53" y2="328.9"/></g><g id="LINE-24" data-name="LINE"><line class="cls-1" x1="690.22" y1="323.21" x2="727.59" y2="285.84"/></g><g id="LINE-25" data-name="LINE"><line class="cls-1" x1="641.47" y1="285.84" x2="678.84" y2="323.21"/></g><g id="LINE-26" data-name="LINE"><line class="cls-1" x1="684.53" y1="328.9" x2="721.9" y2="366.27"/></g><g id="ARC-15" data-name="ARC"><path class="cls-1" d="M82.08,343.79a8.05,8.05,0,0,0,7.47-5.06" transform="translate(1.83 -60.79)"/></g><g id="ARC-16" data-name="ARC"><path class="cls-1" d="M89.34,429.25a8,8,0,0,0-7.46-5" transform="translate(1.83 -60.79)"/></g><g id="ARC-17" data-name="ARC"><path class="cls-1" d="M1275.84,338.73a8.05,8.05,0,0,0,7.47,5.06" transform="translate(1.83 -60.79)"/></g><g id="ARC-18" data-name="ARC"><path class="cls-1" d="M1283.38,424.61a8.06,8.06,0,0,0-7.46,5" transform="translate(1.83 -60.79)"/></g><g id="CIRCLE"><path class="cls-1" d="M157.9,311.61A10.06,10.06,0,1,1,168,321.67a10.06,10.06,0,0,1-10.06-10.06Z" transform="translate(1.83 -60.79)"/></g><g id="CIRCLE-2" data-name="CIRCLE"><path class="cls-1" d="M1187.38,311.61a10.06,10.06,0,1,1,10,10.06,10.05,10.05,0,0,1-10-10.06Z" transform="translate(1.83 -60.79)"/></g><g id="LWPOLYLINE-45" data-name="LWPOLYLINE"><path class="cls-1" d="M361,343.79a40.21,40.21,0,1,1,0,80.42H200.13v-4H361a36.19,36.19,0,1,0,0-72.38H200.13v-4Z" transform="translate(1.83 -60.79)"/></g><g id="LINE-27" data-name="LINE"><line class="cls-1" x1="83.92" y1="283" x2="81.32" y2="283"/></g><g id="LINE-28" data-name="LINE"><line class="cls-1" x1="81.32" y1="363.43" x2="83.72" y2="363.43"/></g><g id="CIRCLE-3" data-name="CIRCLE"><path class="cls-1" d="M350.93,384A10.06,10.06,0,1,1,361,394.05,10.05,10.05,0,0,1,350.93,384Z" transform="translate(1.83 -60.79)"/></g><g id="LWPOLYLINE-46" data-name="LWPOLYLINE"><path class="cls-1" d="M1004.41,344.19h160.91V348l-161,.23a36.19,36.19,0,0,0,.1,72.38l161-.23v4.25h-161a40.21,40.21,0,1,1,0-80.42Z" transform="translate(1.83 -60.79)"/></g><g id="ARC-19" data-name="ARC"><path class="cls-1" d="M1285.91,424.61c1.27,0,2.54-.06,3.8-.18" transform="translate(1.83 -60.79)"/></g><g id="LINE-29" data-name="LINE"><line class="cls-1" x1="1285.22" y1="363.82" x2="1287.74" y2="363.82"/></g><g id="CIRCLE-4" data-name="CIRCLE"><path class="cls-1" d="M994.35,384.4a10.06,10.06,0,1,1,10.06,10.05,10.06,10.06,0,0,1-10.06-10.05Z" transform="translate(1.83 -60.79)"/></g><g id="LWPOLYLINE-47" data-name="LWPOLYLINE"><path class="cls-1" d="M304.69,363.89h36v4h-36a16.09,16.09,0,1,0,0,32.18h36v4h-36a20.11,20.11,0,0,1,0-40.22Z" transform="translate(1.83 -60.79)"/></g><g id="LWPOLYLINE-48" data-name="LWPOLYLINE"><path class="cls-1" d="M1060.74,404.43l-35.82.05v-4.07l35.85-.12a16.09,16.09,0,0,0-.11-32.18l-35.78.13v-4l35.82-.05a20.11,20.11,0,0,1,.06,40.22Z" transform="translate(1.83 -60.79)"/></g><g id="LWPOLYLINE-49" data-name="LWPOLYLINE"><path class="cls-1" d="M771,581.05h60.32a4,4,0,0,1,0,8H771a4,4,0,1,1,0-8Z" transform="translate(1.83 -60.79)"/></g><g id="LWPOLYLINE-50" data-name="LWPOLYLINE"><path class="cls-1" d="M455.41,581.05h60.32a4,4,0,0,1,0,8H455.41a4,4,0,0,1,0-8Z" transform="translate(1.83 -60.79)"/></g><g id="LWPOLYLINE-51" data-name="LWPOLYLINE"><path class="cls-1" d="M1225.83,581.05a4,4,0,0,1,0,8H1165.5a4,4,0,1,1,0-8Z" transform="translate(1.83 -60.79)"/></g><g id="LWPOLYLINE-52" data-name="LWPOLYLINE"><path class="cls-1" d="M692.11,581.05h60.32a4,4,0,0,1,0,8H692.11a4,4,0,1,1,0-8Z" transform="translate(1.83 -60.79)"/></g><g id="LWPOLYLINE-53" data-name="LWPOLYLINE"><path class="cls-1" d="M436.83,581.05a4,4,0,0,1,0,8H376.51a4,4,0,0,1,0-8Z" transform="translate(1.83 -60.79)"/></g><g id="LWPOLYLINE-54" data-name="LWPOLYLINE"><path class="cls-1" d="M673.53,589.09H613.21a4,4,0,0,1,0-8h60.32a4,4,0,0,1,0,8Z" transform="translate(1.83 -60.79)"/></g><g id="LWPOLYLINE-55" data-name="LWPOLYLINE"><path class="cls-1" d="M910.23,589.09H849.91a4,4,0,1,1,0-8h60.32a4,4,0,0,1,0,8Z" transform="translate(1.83 -60.79)"/></g><g id="LWPOLYLINE-56" data-name="LWPOLYLINE"><path class="cls-1" d="M594.63,589.09H534.31a4,4,0,0,1,0-8h60.32a4,4,0,0,1,0,8Z" transform="translate(1.83 -60.79)"/></g><g id="LWPOLYLINE-57" data-name="LWPOLYLINE"><path class="cls-1" d="M200.13,581.05a4,4,0,0,1,0,8H139.81a4,4,0,1,1,0-8Z" transform="translate(1.83 -60.79)"/></g><g id="LWPOLYLINE-58" data-name="LWPOLYLINE"><path class="cls-1" d="M297.61,581.05h60.32a4,4,0,0,1,0,8H297.61a4,4,0,0,1,0-8Z" transform="translate(1.83 -60.79)"/></g><g id="LWPOLYLINE-59" data-name="LWPOLYLINE"><path class="cls-1" d="M279,589.09H218.71a4,4,0,1,1,0-8H279a4,4,0,0,1,0,8Z" transform="translate(1.83 -60.79)"/></g><g id="LWPOLYLINE-60" data-name="LWPOLYLINE"><path class="cls-1" d="M928.81,589.09a4,4,0,1,1,0-8h60.32a4,4,0,0,1,0,8Z" transform="translate(1.83 -60.79)"/></g><g id="LWPOLYLINE-61" data-name="LWPOLYLINE"><path class="cls-1" d="M1068,589.09h-60.32a4,4,0,1,1,0-8H1068a4,4,0,0,1,0,8Z" transform="translate(1.83 -60.79)"/></g><g id="LWPOLYLINE-62" data-name="LWPOLYLINE"><path class="cls-1" d="M1086.61,589.09a4,4,0,1,1,0-8h60.32a4,4,0,0,1,0,8Z" transform="translate(1.83 -60.79)"/></g><g id="LINE-30" data-name="LINE"><line class="cls-1" x1="83.92" y1="283" x2="41.71" y2="283"/></g><g id="ARC-20" data-name="ARC"><path class="cls-1" d="M39.88,343.79a40.21,40.21,0,0,0,0,80.42" transform="translate(1.83 -60.79)"/></g><g id="LINE-31" data-name="LINE"><line class="cls-1" x1="41.71" y1="363.43" x2="83.72" y2="363.43"/></g><g id="CIRCLE-5" data-name="CIRCLE"><path class="cls-1" d="M29.83,384a10,10,0,1,1,10.05,10.05A10.05,10.05,0,0,1,29.83,384Z" transform="translate(1.83 -60.79)"/></g><g id="LINE-32" data-name="LINE"><line class="cls-1" x1="1291.54" y1="363.64" x2="1327.75" y2="363.82"/></g><g id="ARC-21" data-name="ARC"><path class="cls-1" d="M1325.92,424.61a40.21,40.21,0,1,0,.4-80.42" transform="translate(1.83 -60.79)"/></g><g id="LINE-33" data-name="LINE"><line class="cls-1" x1="1328.15" y1="283.4" x2="1291.94" y2="283.22"/></g><g id="CIRCLE-6" data-name="CIRCLE"><path class="cls-1" d="M1316.07,384a10,10,0,1,1,10,10.05,10.05,10.05,0,0,1-10-10.05Z" transform="translate(1.83 -60.79)"/></g></svg>