<svg id="_0" data-name="0" xmlns="http://www.w3.org/2000/svg" viewBox="0 0 1086.07 771.63"><defs><style>.cls-1{fill:none;stroke:#000;stroke-linecap:round;stroke-linejoin:round;stroke-width:3px;}</style></defs><title>SidePanel</title><g id="LWPOLYLINE"><path class="cls-1" d="M1224.53,733.38V34.62A34.93,34.93,0,0,0,1189.6-.31h-13.85a8.73,8.73,0,0,0-6.18,2.56l-12.31,12.34a8.77,8.77,0,0,1-6.19,2.57H197.52a8.69,8.69,0,0,1-6.16-2.56L179,2.24a8.7,8.7,0,0,0-6.17-2.55H141.47V768.31h31.19a8.72,8.72,0,0,0,6.18-2.56l12.32-12.34a8.73,8.73,0,0,1,6.18-2.57H1151a8.69,8.69,0,0,1,6.17,2.56l12.4,12.36a8.68,8.68,0,0,0,6.17,2.55h13.87A34.93,34.93,0,0,0,1224.53,733.38Z" transform="translate(-139.97 1.81)"/></g><g id="CIRCLE"><path class="cls-1" d="M1185.05,17.16a4.55,4.55,0,1,1,4.55,4.54,4.55,4.55,0,0,1-4.55-4.54Z" transform="translate(-139.97 1.81)"/></g><g id="CIRCLE-2" data-name="CIRCLE"><path class="cls-1" d="M1185.05,750.84a4.55,4.55,0,1,1,4.55,4.55,4.55,4.55,0,0,1-4.55-4.55Z" transform="translate(-139.97 1.81)"/></g><g id="CIRCLE-3" data-name="CIRCLE"><path class="cls-1" d="M154.39,750.84a4.55,4.55,0,1,1,4.55,4.55,4.55,4.55,0,0,1-4.55-4.55Z" transform="translate(-139.97 1.81)"/></g><g id="CIRCLE-4" data-name="CIRCLE"><path class="cls-1" d="M154.39,17.16a4.55,4.55,0,1,1,4.55,4.54,4.55,4.55,0,0,1-4.55-4.54Z" transform="translate(-139.97 1.81)"/></g><g id="LINE"><line class="cls-1" x1="36.44" y1="735.19" x2="36.44" y2="735.19"/></g><g id="LINE-2" data-name="LINE"><line class="cls-1" x1="36.44" y1="36.44" x2="36.44" y2="36.44"/></g><g id="LWPOLYLINE-2" data-name="LWPOLYLINE"><rect class="cls-1" x="914.07" y="46.92" width="27.95" height="27.95"/></g><g id="LWPOLYLINE-3" data-name="LWPOLYLINE"><rect class="cls-1" x="875.99" y="46.92" width="27.95" height="27.95"/></g><g id="LWPOLYLINE-4" data-name="LWPOLYLINE"><rect class="cls-1" x="837.91" y="46.92" width="27.95" height="27.95"/></g><g id="LWPOLYLINE-5" data-name="LWPOLYLINE"><rect class="cls-1" x="914.07" y="85" width="27.95" height="27.95"/></g><g id="LWPOLYLINE-6" data-name="LWPOLYLINE"><rect class="cls-1" x="875.99" y="85" width="27.95" height="27.95"/></g><g id="LWPOLYLINE-7" data-name="LWPOLYLINE"><rect class="cls-1" x="837.91" y="85" width="27.95" height="27.95"/></g><g id="LWPOLYLINE-8" data-name="LWPOLYLINE"><rect class="cls-1" x="914.07" y="123.08" width="27.95" height="27.95"/></g><g id="LWPOLYLINE-9" data-name="LWPOLYLINE"><rect class="cls-1" x="875.99" y="123.08" width="27.95" height="27.95"/></g><g id="LWPOLYLINE-10" data-name="LWPOLYLINE"><rect class="cls-1" x="837.91" y="123.08" width="27.95" height="27.95"/></g><g id="LWPOLYLINE-11" data-name="LWPOLYLINE"><rect class="cls-1" x="914.07" y="161.16" width="27.95" height="27.95"/></g><g id="LWPOLYLINE-12" data-name="LWPOLYLINE"><rect class="cls-1" x="875.99" y="161.16" width="27.95" height="27.95"/></g><g id="LWPOLYLINE-13" data-name="LWPOLYLINE"><rect class="cls-1" x="837.91" y="161.16" width="27.95" height="27.95"/></g><g id="LWPOLYLINE-14" data-name="LWPOLYLINE"><rect class="cls-1" x="914.07" y="199.25" width="27.95" height="27.95"/></g><g id="LWPOLYLINE-15" data-name="LWPOLYLINE"><rect class="cls-1" x="875.99" y="199.25" width="27.95" height="27.95"/></g><g id="LWPOLYLINE-16" data-name="LWPOLYLINE"><rect class="cls-1" x="837.91" y="199.25" width="27.95" height="27.95"/></g><g id="LWPOLYLINE-17" data-name="LWPOLYLINE"><rect class="cls-1" x="914.07" y="237.33" width="27.95" height="27.95"/></g><g id="LWPOLYLINE-18" data-name="LWPOLYLINE"><rect class="cls-1" x="875.99" y="237.33" width="27.95" height="27.95"/></g><g id="LWPOLYLINE-19" data-name="LWPOLYLINE"><rect class="cls-1" x="837.91" y="237.33" width="27.95" height="27.95"/></g><g id="LWPOLYLINE-20" data-name="LWPOLYLINE"><rect class="cls-1" x="914.07" y="275.41" width="27.95" height="27.95"/></g><g id="LWPOLYLINE-21" data-name="LWPOLYLINE"><rect class="cls-1" x="875.99" y="275.41" width="27.95" height="27.95"/></g><g id="LWPOLYLINE-22" data-name="LWPOLYLINE"><rect class="cls-1" x="837.91" y="275.41" width="27.95" height="27.95"/></g><g id="LWPOLYLINE-23" data-name="LWPOLYLINE"><rect class="cls-1" x="914.07" y="313.49" width="27.95" height="27.95"/></g><g id="LWPOLYLINE-24" data-name="LWPOLYLINE"><rect class="cls-1" x="875.99" y="313.49" width="27.95" height="27.95"/></g><g id="LWPOLYLINE-25" data-name="LWPOLYLINE"><rect class="cls-1" x="837.91" y="313.49" width="27.95" height="27.95"/></g><g id="LWPOLYLINE-26" data-name="LWPOLYLINE"><rect class="cls-1" x="914.07" y="351.57" width="27.95" height="27.95"/></g><g id="LWPOLYLINE-27" data-name="LWPOLYLINE"><rect class="cls-1" x="875.99" y="351.57" width="27.95" height="27.95"/></g><g id="LWPOLYLINE-28" data-name="LWPOLYLINE"><rect class="cls-1" x="837.91" y="351.57" width="27.95" height="27.95"/></g><g id="LWPOLYLINE-29" data-name="LWPOLYLINE"><rect class="cls-1" x="914.07" y="389.66" width="27.95" height="27.95"/></g><g id="LWPOLYLINE-30" data-name="LWPOLYLINE"><rect class="cls-1" x="875.99" y="389.66" width="27.95" height="27.95"/></g><g id="LWPOLYLINE-31" data-name="LWPOLYLINE"><rect class="cls-1" x="837.91" y="389.66" width="27.95" height="27.95"/></g><g id="LWPOLYLINE-32" data-name="LWPOLYLINE"><rect class="cls-1" x="914.07" y="427.74" width="27.95" height="27.95"/></g><g id="LWPOLYLINE-33" data-name="LWPOLYLINE"><rect class="cls-1" x="875.99" y="427.74" width="27.95" height="27.95"/></g><g id="LWPOLYLINE-34" data-name="LWPOLYLINE"><rect class="cls-1" x="837.91" y="427.74" width="27.95" height="27.95"/></g><g id="LWPOLYLINE-35" data-name="LWPOLYLINE"><rect class="cls-1" x="914.07" y="465.82" width="27.95" height="27.95"/></g><g id="LWPOLYLINE-36" data-name="LWPOLYLINE"><rect class="cls-1" x="875.99" y="465.82" width="27.95" height="27.95"/></g><g id="LWPOLYLINE-37" data-name="LWPOLYLINE"><rect class="cls-1" x="837.91" y="465.82" width="27.95" height="27.95"/></g><g id="LWPOLYLINE-38" data-name="LWPOLYLINE"><rect class="cls-1" x="914.07" y="503.9" width="27.95" height="27.95"/></g><g id="LWPOLYLINE-39" data-name="LWPOLYLINE"><rect class="cls-1" x="875.99" y="503.9" width="27.95" height="27.95"/></g><g id="LWPOLYLINE-40" data-name="LWPOLYLINE"><rect class="cls-1" x="837.91" y="503.9" width="27.95" height="27.95"/></g><g id="LWPOLYLINE-41" data-name="LWPOLYLINE"><rect class="cls-1" x="914.07" y="541.98" width="27.95" height="27.95"/></g><g id="LWPOLYLINE-42" data-name="LWPOLYLINE"><rect class="cls-1" x="875.99" y="541.98" width="27.95" height="27.95"/></g><g id="LWPOLYLINE-43" data-name="LWPOLYLINE"><rect class="cls-1" x="837.91" y="541.98" width="27.95" height="27.95"/></g><g id="LWPOLYLINE-44" data-name="LWPOLYLINE"><rect class="cls-1" x="914.07" y="580.07" width="27.95" height="27.95"/></g><g id="LWPOLYLINE-45" data-name="LWPOLYLINE"><rect class="cls-1" x="875.99" y="580.07" width="27.95" height="27.95"/></g><g id="LWPOLYLINE-46" data-name="LWPOLYLINE"><rect class="cls-1" x="837.91" y="580.07" width="27.95" height="27.95"/></g><g id="LWPOLYLINE-47" data-name="LWPOLYLINE"><rect class="cls-1" x="914.07" y="618.15" width="27.95" height="27.95"/></g><g id="LWPOLYLINE-48" data-name="LWPOLYLINE"><rect class="cls-1" x="875.99" y="618.15" width="27.95" height="27.95"/></g><g id="LWPOLYLINE-49" data-name="LWPOLYLINE"><rect class="cls-1" x="837.91" y="618.15" width="27.95" height="27.95"/></g><g id="LWPOLYLINE-50" data-name="LWPOLYLINE"><rect class="cls-1" x="914.07" y="656.23" width="27.95" height="27.95"/></g><g id="LWPOLYLINE-51" data-name="LWPOLYLINE"><rect class="cls-1" x="875.99" y="656.23" width="27.95" height="27.95"/></g><g id="LWPOLYLINE-52" data-name="LWPOLYLINE"><rect class="cls-1" x="837.91" y="656.23" width="27.95" height="27.95"/></g><g id="LWPOLYLINE-53" data-name="LWPOLYLINE"><rect class="cls-1" x="914.07" y="694.31" width="27.95" height="27.95"/></g><g id="LWPOLYLINE-54" data-name="LWPOLYLINE"><rect class="cls-1" x="875.99" y="694.31" width="27.95" height="27.95"/></g><g id="LWPOLYLINE-55" data-name="LWPOLYLINE"><rect class="cls-1" x="837.91" y="694.31" width="27.95" height="27.95"/></g></svg>