<svg id="_0" data-name="0" xmlns="http://www.w3.org/2000/svg" viewBox="0 0 335.38 771.63"><defs><style>.cls-1{fill:none;stroke:#000;stroke-linecap:round;stroke-linejoin:round;stroke-width:3px;}</style></defs><title>Standoff</title><g id="LWPOLYLINE"><path class="cls-1" d="M683,145.1,824.11,4a14.69,14.69,0,0,1,25.08,10.39V738.94a29.37,29.37,0,0,1-29.38,29.37H546.19a29.37,29.37,0,0,1-29.38-29.37V14.38A14.69,14.69,0,0,1,541.89,4Z" transform="translate(-515.31 1.81)"/></g><g id="LWPOLYLINE-2" data-name="LWPOLYLINE"><path class="cls-1" d="M599.91,504.34H766.09a14.69,14.69,0,0,1,0,29.38H599.91a14.69,14.69,0,1,1,0-29.38Z" transform="translate(-515.31 1.81)"/></g><g id="CIRCLE"><path class="cls-1" d="M646.28,664.45A36.72,36.72,0,1,1,683,701.17a36.72,36.72,0,0,1-36.72-36.72Z" transform="translate(-515.31 1.81)"/></g></svg>